SplineFontDB: 3.2
FontName: ProtoThrottleLCD
FullName: ProtoThrottleLCD
FamilyName: ProtoThrottleLCD
Weight: Medium
Copyright: Created by Michael Petersen,,, with FontForge 2.0 (http://fontforge.sf.net)
Version: 001.000
ItalicAngle: 0
UnderlinePosition: -114
UnderlineWidth: 18
Ascent: 1120
Descent: 190
InvalidEm: 0
sfntRevision: 0x00010000
LayerCount: 2
Layer: 0 1 "Back" 1
Layer: 1 1 "Fore" 0
XUID: [1021 1016 1433248732 12193323]
StyleMap: 0x0000
FSType: 0
OS2Version: 4
OS2_WeightWidthSlopeOnly: 0
OS2_UseTypoMetrics: 1
CreationTime: 1506095843
ModificationTime: 1695870113
PfmFamily: 17
TTFWeight: 500
TTFWidth: 5
LineGap: 118
VLineGap: 0
Panose: 2 0 6 3 0 0 0 0 0 0
OS2TypoAscent: 1120
OS2TypoAOffset: 0
OS2TypoDescent: -190
OS2TypoDOffset: 0
OS2TypoLinegap: 118
OS2WinAscent: 1048
OS2WinAOffset: 0
OS2WinDescent: 73
OS2WinDOffset: 0
HheadAscent: 1048
HheadAOffset: 0
HheadDescent: -73
HheadDOffset: 0
OS2SubXSize: 851
OS2SubYSize: 916
OS2SubXOff: 0
OS2SubYOff: 183
OS2SupXSize: 851
OS2SupYSize: 916
OS2SupXOff: 0
OS2SupYOff: 628
OS2StrikeYSize: 65
OS2StrikeYPos: 339
OS2CapHeight: 1048
OS2XHeight: 764
OS2Vendor: 'PfEd'
OS2CodePages: 00000001.00000000
OS2UnicodeRanges: 00000003.00000000.00000000.00000000
MarkAttachClasses: 1
DEI: 91125
ShortTable: cvt  2
  43
  830
EndShort
ShortTable: maxp 16
  1
  0
  167
  160
  40
  0
  0
  2
  0
  1
  1
  0
  64
  46
  0
  0
EndShort
LangName: 1033 "" "" "" "FontForge : ProtoThrottleLCD : 28-9-2023"
GaspTable: 1 65535 2 0
MATH:ScriptPercentScaleDown: 80
MATH:ScriptScriptPercentScaleDown: 60
MATH:DelimitedSubFormulaMinHeight: 1965
MATH:DisplayOperatorMinHeight: 0
MATH:MathLeading: 0 
MATH:AxisHeight: 0 
MATH:AccentBaseHeight: 1048 
MATH:FlattenedAccentBaseHeight: 1048 
MATH:SubscriptShiftDown: 187 
MATH:SubscriptTopMax: 1048 
MATH:SubscriptBaselineDropMin: 0 
MATH:SuperscriptShiftUp: 593 
MATH:SuperscriptShiftUpCramped: 0 
MATH:SuperscriptBottomMin: 1048 
MATH:SuperscriptBaselineDropMax: 0 
MATH:SubSuperscriptGapMin: 75 

StartChar: .notdef
Encoding: 65536 -1 0
Width: 475
Flags: W
LayerCount: 2
Fore
SplineSet
43 0 m 1,0,-1
 43 873 l 1,1,-1
 389 873 l 1,2,-1
 389 0 l 1,3,-1
 43 0 l 1,0,-1
86 43 m 1,4,-1
 346 43 l 1,5,-1
 346 830 l 1,6,-1
 86 830 l 1,7,-1
 86 43 l 1,4,-1
EndSplineSet
Validated: 1
EndChar

StartChar: exclam
Encoding: 33 33 4
Width: 801
Flags: W
LayerCount: 2
Fore
SplineSet
351 493 m 1,0,-1
 351 622 l 1,1,-1
 479 622 l 1,2,-1
 479 493 l 1,3,-1
 351 493 l 1,0,-1
351 635 m 1,4,-1
 351 764 l 1,5,-1
 479 764 l 1,6,-1
 479 635 l 1,7,-1
 351 635 l 1,4,-1
351 777 m 1,8,-1
 351 906 l 1,9,-1
 479 906 l 1,10,-1
 479 777 l 1,11,-1
 351 777 l 1,8,-1
351 68 m 1,12,-1
 351 196 l 1,13,-1
 479 196 l 1,14,-1
 479 68 l 1,15,-1
 351 68 l 1,12,-1
351 919 m 1,16,-1
 351 1048 l 1,17,-1
 479 1048 l 1,18,-1
 479 919 l 1,19,-1
 351 919 l 1,16,-1
EndSplineSet
Validated: 1
EndChar

StartChar: quotedbl
Encoding: 34 34 5
Width: 801
Flags: W
LayerCount: 2
Fore
SplineSet
209 635 m 1,0,-1
 209 764 l 1,1,-1
 338 764 l 1,2,-1
 338 635 l 1,3,-1
 209 635 l 1,0,-1
492 635 m 1,4,-1
 492 764 l 1,5,-1
 621 764 l 1,6,-1
 621 635 l 1,7,-1
 492 635 l 1,4,-1
209 777 m 1,8,-1
 209 906 l 1,9,-1
 338 906 l 1,10,-1
 338 777 l 1,11,-1
 209 777 l 1,8,-1
492 777 m 1,12,-1
 492 906 l 1,13,-1
 621 906 l 1,14,-1
 621 777 l 1,15,-1
 492 777 l 1,12,-1
209 919 m 1,16,-1
 209 1048 l 1,17,-1
 338 1048 l 1,18,-1
 338 919 l 1,19,-1
 209 919 l 1,16,-1
492 919 m 1,20,-1
 492 1048 l 1,21,-1
 621 1048 l 1,22,-1
 621 919 l 1,23,-1
 492 919 l 1,20,-1
EndSplineSet
Validated: 1
EndChar

StartChar: numbersign
Encoding: 35 35 6
Width: 801
Flags: W
LayerCount: 2
Fore
SplineSet
66 351 m 1,0,-1
 66 480 l 1,1,-1
 196 480 l 1,2,-1
 196 351 l 1,3,-1
 66 351 l 1,0,-1
66 635 m 1,4,-1
 66 764 l 1,5,-1
 196 764 l 1,6,-1
 196 635 l 1,7,-1
 66 635 l 1,4,-1
209 210 m 1,8,-1
 209 339 l 1,9,-1
 338 339 l 1,10,-1
 338 210 l 1,11,-1
 209 210 l 1,8,-1
492 210 m 1,12,-1
 492 339 l 1,13,-1
 621 339 l 1,14,-1
 621 210 l 1,15,-1
 492 210 l 1,12,-1
209 351 m 1,16,-1
 209 480 l 1,17,-1
 338 480 l 1,18,-1
 338 351 l 1,19,-1
 209 351 l 1,16,-1
351 351 m 1,20,-1
 351 480 l 1,21,-1
 479 480 l 1,22,-1
 479 351 l 1,23,-1
 351 351 l 1,20,-1
492 351 m 1,24,-1
 492 480 l 1,25,-1
 621 480 l 1,26,-1
 621 351 l 1,27,-1
 492 351 l 1,24,-1
209 493 m 1,28,-1
 209 622 l 1,29,-1
 338 622 l 1,30,-1
 338 493 l 1,31,-1
 209 493 l 1,28,-1
492 493 m 1,32,-1
 492 622 l 1,33,-1
 621 622 l 1,34,-1
 621 493 l 1,35,-1
 492 493 l 1,32,-1
209 635 m 1,36,-1
 209 764 l 1,37,-1
 338 764 l 1,38,-1
 338 635 l 1,39,-1
 209 635 l 1,36,-1
351 635 m 1,40,-1
 351 764 l 1,41,-1
 479 764 l 1,42,-1
 479 635 l 1,43,-1
 351 635 l 1,40,-1
492 635 m 1,44,-1
 492 764 l 1,45,-1
 621 764 l 1,46,-1
 621 635 l 1,47,-1
 492 635 l 1,44,-1
209 777 m 1,48,-1
 209 906 l 1,49,-1
 338 906 l 1,50,-1
 338 777 l 1,51,-1
 209 777 l 1,48,-1
492 777 m 1,52,-1
 492 906 l 1,53,-1
 621 906 l 1,54,-1
 621 777 l 1,55,-1
 492 777 l 1,52,-1
209 68 m 1,56,-1
 209 196 l 1,57,-1
 338 196 l 1,58,-1
 338 68 l 1,59,-1
 209 68 l 1,56,-1
492 68 m 1,60,-1
 492 196 l 1,61,-1
 621 196 l 1,62,-1
 621 68 l 1,63,-1
 492 68 l 1,60,-1
634 352 m 1,64,-1
 634 481 l 1,65,-1
 764 481 l 1,66,-1
 764 352 l 1,67,-1
 634 352 l 1,64,-1
634 635 m 1,68,-1
 634 764 l 1,69,-1
 764 764 l 1,70,-1
 764 635 l 1,71,-1
 634 635 l 1,68,-1
209 919 m 1,72,-1
 209 1048 l 1,73,-1
 338 1048 l 1,74,-1
 338 919 l 1,75,-1
 209 919 l 1,72,-1
492 919 m 1,76,-1
 492 1048 l 1,77,-1
 621 1048 l 1,78,-1
 621 919 l 1,79,-1
 492 919 l 1,76,-1
EndSplineSet
Validated: 1
EndChar

StartChar: dollar
Encoding: 36 36 7
Width: 801
Flags: W
LayerCount: 2
Fore
SplineSet
66 210 m 1,0,-1
 66 339 l 1,1,-1
 196 339 l 1,2,-1
 196 210 l 1,3,-1
 66 210 l 1,0,-1
66 635 m 1,4,-1
 66 764 l 1,5,-1
 196 764 l 1,6,-1
 196 635 l 1,7,-1
 66 635 l 1,4,-1
209 210 m 1,8,-1
 209 339 l 1,9,-1
 338 339 l 1,10,-1
 338 210 l 1,11,-1
 209 210 l 1,8,-1
351 210 m 1,12,-1
 351 339 l 1,13,-1
 479 339 l 1,14,-1
 479 210 l 1,15,-1
 351 210 l 1,12,-1
492 210 m 1,16,-1
 492 339 l 1,17,-1
 621 339 l 1,18,-1
 621 210 l 1,19,-1
 492 210 l 1,16,-1
351 351 m 1,20,-1
 351 480 l 1,21,-1
 479 480 l 1,22,-1
 479 351 l 1,23,-1
 351 351 l 1,20,-1
209 493 m 1,24,-1
 209 622 l 1,25,-1
 338 622 l 1,26,-1
 338 493 l 1,27,-1
 209 493 l 1,24,-1
351 493 m 1,28,-1
 351 622 l 1,29,-1
 479 622 l 1,30,-1
 479 493 l 1,31,-1
 351 493 l 1,28,-1
492 493 m 1,32,-1
 492 622 l 1,33,-1
 621 622 l 1,34,-1
 621 493 l 1,35,-1
 492 493 l 1,32,-1
351 635 m 1,36,-1
 351 764 l 1,37,-1
 479 764 l 1,38,-1
 479 635 l 1,39,-1
 351 635 l 1,36,-1
209 777 m 1,40,-1
 209 906 l 1,41,-1
 338 906 l 1,42,-1
 338 777 l 1,43,-1
 209 777 l 1,40,-1
351 777 m 1,44,-1
 351 906 l 1,45,-1
 479 906 l 1,46,-1
 479 777 l 1,47,-1
 351 777 l 1,44,-1
492 777 m 1,48,-1
 492 906 l 1,49,-1
 621 906 l 1,50,-1
 621 777 l 1,51,-1
 492 777 l 1,48,-1
351 68 m 1,52,-1
 351 196 l 1,53,-1
 479 196 l 1,54,-1
 479 68 l 1,55,-1
 351 68 l 1,52,-1
634 352 m 1,56,-1
 634 481 l 1,57,-1
 764 481 l 1,58,-1
 764 352 l 1,59,-1
 634 352 l 1,56,-1
634 777 m 1,60,-1
 634 906 l 1,61,-1
 764 906 l 1,62,-1
 764 777 l 1,63,-1
 634 777 l 1,60,-1
351 919 m 1,64,-1
 351 1048 l 1,65,-1
 479 1048 l 1,66,-1
 479 919 l 1,67,-1
 351 919 l 1,64,-1
EndSplineSet
Validated: 1
EndChar

StartChar: percent
Encoding: 37 37 8
Width: 801
Flags: W
LayerCount: 2
Fore
SplineSet
66 210 m 1,0,-1
 66 339 l 1,1,-1
 196 339 l 1,2,-1
 196 210 l 1,3,-1
 66 210 l 1,0,-1
66 777 m 1,4,-1
 66 906 l 1,5,-1
 196 906 l 1,6,-1
 196 777 l 1,7,-1
 66 777 l 1,4,-1
492 210 m 1,8,-1
 492 339 l 1,9,-1
 621 339 l 1,10,-1
 621 210 l 1,11,-1
 492 210 l 1,8,-1
209 351 m 1,12,-1
 209 480 l 1,13,-1
 338 480 l 1,14,-1
 338 351 l 1,15,-1
 209 351 l 1,12,-1
351 493 m 1,16,-1
 351 622 l 1,17,-1
 479 622 l 1,18,-1
 479 493 l 1,19,-1
 351 493 l 1,16,-1
492 635 m 1,20,-1
 492 764 l 1,21,-1
 621 764 l 1,22,-1
 621 635 l 1,23,-1
 492 635 l 1,20,-1
209 777 m 1,24,-1
 209 906 l 1,25,-1
 338 906 l 1,26,-1
 338 777 l 1,27,-1
 209 777 l 1,24,-1
634 68 m 1,28,-1
 634 196 l 1,29,-1
 764 196 l 1,30,-1
 764 68 l 1,31,-1
 634 68 l 1,28,-1
66 919 m 1,32,-1
 66 1048 l 1,33,-1
 196 1048 l 1,34,-1
 196 919 l 1,35,-1
 66 919 l 1,32,-1
492 68 m 1,36,-1
 492 196 l 1,37,-1
 621 196 l 1,38,-1
 621 68 l 1,39,-1
 492 68 l 1,36,-1
634 210 m 1,40,-1
 634 339 l 1,41,-1
 764 339 l 1,42,-1
 764 210 l 1,43,-1
 634 210 l 1,40,-1
634 777 m 1,44,-1
 634 906 l 1,45,-1
 764 906 l 1,46,-1
 764 777 l 1,47,-1
 634 777 l 1,44,-1
209 919 m 1,48,-1
 209 1048 l 1,49,-1
 338 1048 l 1,50,-1
 338 919 l 1,51,-1
 209 919 l 1,48,-1
EndSplineSet
Validated: 1
EndChar

StartChar: ampersand
Encoding: 38 38 9
Width: 801
Flags: W
LayerCount: 2
Fore
SplineSet
66 210 m 1,0,-1
 66 339 l 1,1,-1
 196 339 l 1,2,-1
 196 210 l 1,3,-1
 66 210 l 1,0,-1
66 351 m 1,4,-1
 66 480 l 1,5,-1
 196 480 l 1,6,-1
 196 351 l 1,7,-1
 66 351 l 1,4,-1
66 635 m 1,8,-1
 66 764 l 1,9,-1
 196 764 l 1,10,-1
 196 635 l 1,11,-1
 66 635 l 1,8,-1
66 777 m 1,12,-1
 66 906 l 1,13,-1
 196 906 l 1,14,-1
 196 777 l 1,15,-1
 66 777 l 1,12,-1
492 210 m 1,16,-1
 492 339 l 1,17,-1
 621 339 l 1,18,-1
 621 210 l 1,19,-1
 492 210 l 1,16,-1
351 351 m 1,20,-1
 351 480 l 1,21,-1
 479 480 l 1,22,-1
 479 351 l 1,23,-1
 351 351 l 1,20,-1
209 493 m 1,24,-1
 209 622 l 1,25,-1
 338 622 l 1,26,-1
 338 493 l 1,27,-1
 209 493 l 1,24,-1
351 635 m 1,28,-1
 351 764 l 1,29,-1
 479 764 l 1,30,-1
 479 635 l 1,31,-1
 351 635 l 1,28,-1
492 777 m 1,32,-1
 492 906 l 1,33,-1
 621 906 l 1,34,-1
 621 777 l 1,35,-1
 492 777 l 1,32,-1
634 68 m 1,36,-1
 634 196 l 1,37,-1
 764 196 l 1,38,-1
 764 68 l 1,39,-1
 634 68 l 1,36,-1
209 68 m 1,40,-1
 209 196 l 1,41,-1
 338 196 l 1,42,-1
 338 68 l 1,43,-1
 209 68 l 1,40,-1
351 68 m 1,44,-1
 351 196 l 1,45,-1
 479 196 l 1,46,-1
 479 68 l 1,47,-1
 351 68 l 1,44,-1
634 352 m 1,48,-1
 634 481 l 1,49,-1
 764 481 l 1,50,-1
 764 352 l 1,51,-1
 634 352 l 1,48,-1
209 919 m 1,52,-1
 209 1048 l 1,53,-1
 338 1048 l 1,54,-1
 338 919 l 1,55,-1
 209 919 l 1,52,-1
351 919 m 1,56,-1
 351 1048 l 1,57,-1
 479 1048 l 1,58,-1
 479 919 l 1,59,-1
 351 919 l 1,56,-1
EndSplineSet
Validated: 1
EndChar

StartChar: quotesingle
Encoding: 39 39 10
Width: 801
Flags: W
LayerCount: 2
Fore
SplineSet
209 635 m 1,0,-1
 209 764 l 1,1,-1
 338 764 l 1,2,-1
 338 635 l 1,3,-1
 209 635 l 1,0,-1
351 777 m 1,4,-1
 351 906 l 1,5,-1
 479 906 l 1,6,-1
 479 777 l 1,7,-1
 351 777 l 1,4,-1
209 919 m 1,8,-1
 209 1048 l 1,9,-1
 338 1048 l 1,10,-1
 338 919 l 1,11,-1
 209 919 l 1,8,-1
351 919 m 1,12,-1
 351 1048 l 1,13,-1
 479 1048 l 1,14,-1
 479 919 l 1,15,-1
 351 919 l 1,12,-1
EndSplineSet
Validated: 1
EndChar

StartChar: parenleft
Encoding: 40 40 11
Width: 801
Flags: W
LayerCount: 2
Fore
SplineSet
351 210 m 1,0,-1
 351 339 l 1,1,-1
 479 339 l 1,2,-1
 479 210 l 1,3,-1
 351 210 l 1,0,-1
209 351 m 1,4,-1
 209 480 l 1,5,-1
 338 480 l 1,6,-1
 338 351 l 1,7,-1
 209 351 l 1,4,-1
209 493 m 1,8,-1
 209 622 l 1,9,-1
 338 622 l 1,10,-1
 338 493 l 1,11,-1
 209 493 l 1,8,-1
209 635 m 1,12,-1
 209 764 l 1,13,-1
 338 764 l 1,14,-1
 338 635 l 1,15,-1
 209 635 l 1,12,-1
351 777 m 1,16,-1
 351 906 l 1,17,-1
 479 906 l 1,18,-1
 479 777 l 1,19,-1
 351 777 l 1,16,-1
492 68 m 1,20,-1
 492 196 l 1,21,-1
 621 196 l 1,22,-1
 621 68 l 1,23,-1
 492 68 l 1,20,-1
492 919 m 1,24,-1
 492 1048 l 1,25,-1
 621 1048 l 1,26,-1
 621 919 l 1,27,-1
 492 919 l 1,24,-1
EndSplineSet
Validated: 1
EndChar

StartChar: parenright
Encoding: 41 41 12
Width: 801
Flags: W
LayerCount: 2
Fore
SplineSet
351 210 m 1,0,-1
 351 339 l 1,1,-1
 479 339 l 1,2,-1
 479 210 l 1,3,-1
 351 210 l 1,0,-1
492 351 m 1,4,-1
 492 480 l 1,5,-1
 621 480 l 1,6,-1
 621 351 l 1,7,-1
 492 351 l 1,4,-1
492 493 m 1,8,-1
 492 622 l 1,9,-1
 621 622 l 1,10,-1
 621 493 l 1,11,-1
 492 493 l 1,8,-1
492 635 m 1,12,-1
 492 764 l 1,13,-1
 621 764 l 1,14,-1
 621 635 l 1,15,-1
 492 635 l 1,12,-1
351 777 m 1,16,-1
 351 906 l 1,17,-1
 479 906 l 1,18,-1
 479 777 l 1,19,-1
 351 777 l 1,16,-1
209 68 m 1,20,-1
 209 196 l 1,21,-1
 338 196 l 1,22,-1
 338 68 l 1,23,-1
 209 68 l 1,20,-1
209 919 m 1,24,-1
 209 1048 l 1,25,-1
 338 1048 l 1,26,-1
 338 919 l 1,27,-1
 209 919 l 1,24,-1
EndSplineSet
Validated: 1
EndChar

StartChar: asterisk
Encoding: 42 42 13
Width: 801
Flags: W
LayerCount: 2
Fore
SplineSet
66 351 m 1,0,-1
 66 480 l 1,1,-1
 196 480 l 1,2,-1
 196 351 l 1,3,-1
 66 351 l 1,0,-1
66 635 m 1,4,-1
 66 764 l 1,5,-1
 196 764 l 1,6,-1
 196 635 l 1,7,-1
 66 635 l 1,4,-1
351 210 m 1,8,-1
 351 339 l 1,9,-1
 479 339 l 1,10,-1
 479 210 l 1,11,-1
 351 210 l 1,8,-1
351 351 m 1,12,-1
 351 480 l 1,13,-1
 479 480 l 1,14,-1
 479 351 l 1,15,-1
 351 351 l 1,12,-1
209 493 m 1,16,-1
 209 622 l 1,17,-1
 338 622 l 1,18,-1
 338 493 l 1,19,-1
 209 493 l 1,16,-1
351 493 m 1,20,-1
 351 622 l 1,21,-1
 479 622 l 1,22,-1
 479 493 l 1,23,-1
 351 493 l 1,20,-1
492 493 m 1,24,-1
 492 622 l 1,25,-1
 621 622 l 1,26,-1
 621 493 l 1,27,-1
 492 493 l 1,24,-1
351 635 m 1,28,-1
 351 764 l 1,29,-1
 479 764 l 1,30,-1
 479 635 l 1,31,-1
 351 635 l 1,28,-1
351 777 m 1,32,-1
 351 906 l 1,33,-1
 479 906 l 1,34,-1
 479 777 l 1,35,-1
 351 777 l 1,32,-1
634 352 m 1,36,-1
 634 481 l 1,37,-1
 764 481 l 1,38,-1
 764 352 l 1,39,-1
 634 352 l 1,36,-1
634 635 m 1,40,-1
 634 764 l 1,41,-1
 764 764 l 1,42,-1
 764 635 l 1,43,-1
 634 635 l 1,40,-1
EndSplineSet
Validated: 1
EndChar

StartChar: plus
Encoding: 43 43 14
Width: 801
Flags: W
LayerCount: 2
Fore
SplineSet
66 493 m 1,0,-1
 66 622 l 1,1,-1
 196 622 l 1,2,-1
 196 493 l 1,3,-1
 66 493 l 1,0,-1
351 210 m 1,4,-1
 351 339 l 1,5,-1
 479 339 l 1,6,-1
 479 210 l 1,7,-1
 351 210 l 1,4,-1
351 351 m 1,8,-1
 351 480 l 1,9,-1
 479 480 l 1,10,-1
 479 351 l 1,11,-1
 351 351 l 1,8,-1
209 493 m 1,12,-1
 209 622 l 1,13,-1
 338 622 l 1,14,-1
 338 493 l 1,15,-1
 209 493 l 1,12,-1
351 493 m 1,16,-1
 351 622 l 1,17,-1
 479 622 l 1,18,-1
 479 493 l 1,19,-1
 351 493 l 1,16,-1
492 493 m 1,20,-1
 492 622 l 1,21,-1
 621 622 l 1,22,-1
 621 493 l 1,23,-1
 492 493 l 1,20,-1
351 635 m 1,24,-1
 351 764 l 1,25,-1
 479 764 l 1,26,-1
 479 635 l 1,27,-1
 351 635 l 1,24,-1
351 777 m 1,28,-1
 351 906 l 1,29,-1
 479 906 l 1,30,-1
 479 777 l 1,31,-1
 351 777 l 1,28,-1
634 493 m 1,32,-1
 634 622 l 1,33,-1
 764 622 l 1,34,-1
 764 493 l 1,35,-1
 634 493 l 1,32,-1
EndSplineSet
Validated: 1
EndChar

StartChar: comma
Encoding: 44 44 15
Width: 801
Flags: W
LayerCount: 2
Fore
SplineSet
351 210 m 1,0,-1
 351 339 l 1,1,-1
 479 339 l 1,2,-1
 479 210 l 1,3,-1
 351 210 l 1,0,-1
209 351 m 1,4,-1
 209 480 l 1,5,-1
 338 480 l 1,6,-1
 338 351 l 1,7,-1
 209 351 l 1,4,-1
351 351 m 1,8,-1
 351 480 l 1,9,-1
 479 480 l 1,10,-1
 479 351 l 1,11,-1
 351 351 l 1,8,-1
209 68 m 1,12,-1
 209 196 l 1,13,-1
 338 196 l 1,14,-1
 338 68 l 1,15,-1
 209 68 l 1,12,-1
EndSplineSet
Validated: 1
EndChar

StartChar: hyphen
Encoding: 45 45 16
Width: 801
Flags: W
LayerCount: 2
Fore
SplineSet
66 493 m 1,0,-1
 66 622 l 1,1,-1
 196 622 l 1,2,-1
 196 493 l 1,3,-1
 66 493 l 1,0,-1
209 493 m 1,4,-1
 209 622 l 1,5,-1
 338 622 l 1,6,-1
 338 493 l 1,7,-1
 209 493 l 1,4,-1
351 493 m 1,8,-1
 351 622 l 1,9,-1
 479 622 l 1,10,-1
 479 493 l 1,11,-1
 351 493 l 1,8,-1
492 493 m 1,12,-1
 492 622 l 1,13,-1
 621 622 l 1,14,-1
 621 493 l 1,15,-1
 492 493 l 1,12,-1
634 493 m 1,16,-1
 634 622 l 1,17,-1
 764 622 l 1,18,-1
 764 493 l 1,19,-1
 634 493 l 1,16,-1
EndSplineSet
Validated: 1
EndChar

StartChar: period
Encoding: 46 46 17
Width: 801
Flags: W
LayerCount: 2
Fore
SplineSet
209 210 m 1,0,-1
 209 339 l 1,1,-1
 338 339 l 1,2,-1
 338 210 l 1,3,-1
 209 210 l 1,0,-1
351 210 m 1,4,-1
 351 339 l 1,5,-1
 479 339 l 1,6,-1
 479 210 l 1,7,-1
 351 210 l 1,4,-1
209 68 m 1,8,-1
 209 196 l 1,9,-1
 338 196 l 1,10,-1
 338 68 l 1,11,-1
 209 68 l 1,8,-1
351 68 m 1,12,-1
 351 196 l 1,13,-1
 479 196 l 1,14,-1
 479 68 l 1,15,-1
 351 68 l 1,12,-1
EndSplineSet
Validated: 1
EndChar

StartChar: slash
Encoding: 47 47 18
Width: 801
Flags: W
LayerCount: 2
Fore
SplineSet
66 210 m 1,0,-1
 66 339 l 1,1,-1
 196 339 l 1,2,-1
 196 210 l 1,3,-1
 66 210 l 1,0,-1
209 351 m 1,4,-1
 209 480 l 1,5,-1
 338 480 l 1,6,-1
 338 351 l 1,7,-1
 209 351 l 1,4,-1
351 493 m 1,8,-1
 351 622 l 1,9,-1
 479 622 l 1,10,-1
 479 493 l 1,11,-1
 351 493 l 1,8,-1
492 635 m 1,12,-1
 492 764 l 1,13,-1
 621 764 l 1,14,-1
 621 635 l 1,15,-1
 492 635 l 1,12,-1
634 777 m 1,16,-1
 634 906 l 1,17,-1
 764 906 l 1,18,-1
 764 777 l 1,19,-1
 634 777 l 1,16,-1
EndSplineSet
Validated: 1
EndChar

StartChar: zero
Encoding: 48 48 19
Width: 801
Flags: W
LayerCount: 2
Fore
SplineSet
66 210 m 1,0,-1
 66 339 l 1,1,-1
 196 339 l 1,2,-1
 196 210 l 1,3,-1
 66 210 l 1,0,-1
66 351 m 1,4,-1
 66 480 l 1,5,-1
 196 480 l 1,6,-1
 196 351 l 1,7,-1
 66 351 l 1,4,-1
66 493 m 1,8,-1
 66 622 l 1,9,-1
 196 622 l 1,10,-1
 196 493 l 1,11,-1
 66 493 l 1,8,-1
66 635 m 1,12,-1
 66 764 l 1,13,-1
 196 764 l 1,14,-1
 196 635 l 1,15,-1
 66 635 l 1,12,-1
66 777 m 1,16,-1
 66 906 l 1,17,-1
 196 906 l 1,18,-1
 196 777 l 1,19,-1
 66 777 l 1,16,-1
209 351 m 1,20,-1
 209 480 l 1,21,-1
 338 480 l 1,22,-1
 338 351 l 1,23,-1
 209 351 l 1,20,-1
351 493 m 1,24,-1
 351 622 l 1,25,-1
 479 622 l 1,26,-1
 479 493 l 1,27,-1
 351 493 l 1,24,-1
492 635 m 1,28,-1
 492 764 l 1,29,-1
 621 764 l 1,30,-1
 621 635 l 1,31,-1
 492 635 l 1,28,-1
209 68 m 1,32,-1
 209 196 l 1,33,-1
 338 196 l 1,34,-1
 338 68 l 1,35,-1
 209 68 l 1,32,-1
351 68 m 1,36,-1
 351 196 l 1,37,-1
 479 196 l 1,38,-1
 479 68 l 1,39,-1
 351 68 l 1,36,-1
492 68 m 1,40,-1
 492 196 l 1,41,-1
 621 196 l 1,42,-1
 621 68 l 1,43,-1
 492 68 l 1,40,-1
634 210 m 1,44,-1
 634 339 l 1,45,-1
 764 339 l 1,46,-1
 764 210 l 1,47,-1
 634 210 l 1,44,-1
634 352 m 1,48,-1
 634 481 l 1,49,-1
 764 481 l 1,50,-1
 764 352 l 1,51,-1
 634 352 l 1,48,-1
634 493 m 1,52,-1
 634 622 l 1,53,-1
 764 622 l 1,54,-1
 764 493 l 1,55,-1
 634 493 l 1,52,-1
634 635 m 1,56,-1
 634 764 l 1,57,-1
 764 764 l 1,58,-1
 764 635 l 1,59,-1
 634 635 l 1,56,-1
634 777 m 1,60,-1
 634 906 l 1,61,-1
 764 906 l 1,62,-1
 764 777 l 1,63,-1
 634 777 l 1,60,-1
209 919 m 1,64,-1
 209 1048 l 1,65,-1
 338 1048 l 1,66,-1
 338 919 l 1,67,-1
 209 919 l 1,64,-1
351 919 m 1,68,-1
 351 1048 l 1,69,-1
 479 1048 l 1,70,-1
 479 919 l 1,71,-1
 351 919 l 1,68,-1
492 919 m 1,72,-1
 492 1048 l 1,73,-1
 621 1048 l 1,74,-1
 621 919 l 1,75,-1
 492 919 l 1,72,-1
EndSplineSet
Validated: 1
EndChar

StartChar: one
Encoding: 49 49 20
Width: 801
Flags: W
LayerCount: 2
Fore
SplineSet
351 210 m 1,0,-1
 351 339 l 1,1,-1
 479 339 l 1,2,-1
 479 210 l 1,3,-1
 351 210 l 1,0,-1
351 351 m 1,4,-1
 351 480 l 1,5,-1
 479 480 l 1,6,-1
 479 351 l 1,7,-1
 351 351 l 1,4,-1
351 493 m 1,8,-1
 351 622 l 1,9,-1
 479 622 l 1,10,-1
 479 493 l 1,11,-1
 351 493 l 1,8,-1
351 635 m 1,12,-1
 351 764 l 1,13,-1
 479 764 l 1,14,-1
 479 635 l 1,15,-1
 351 635 l 1,12,-1
209 777 m 1,16,-1
 209 906 l 1,17,-1
 338 906 l 1,18,-1
 338 777 l 1,19,-1
 209 777 l 1,16,-1
351 777 m 1,20,-1
 351 906 l 1,21,-1
 479 906 l 1,22,-1
 479 777 l 1,23,-1
 351 777 l 1,20,-1
209 68 m 1,24,-1
 209 196 l 1,25,-1
 338 196 l 1,26,-1
 338 68 l 1,27,-1
 209 68 l 1,24,-1
351 68 m 1,28,-1
 351 196 l 1,29,-1
 479 196 l 1,30,-1
 479 68 l 1,31,-1
 351 68 l 1,28,-1
492 68 m 1,32,-1
 492 196 l 1,33,-1
 621 196 l 1,34,-1
 621 68 l 1,35,-1
 492 68 l 1,32,-1
351 919 m 1,36,-1
 351 1048 l 1,37,-1
 479 1048 l 1,38,-1
 479 919 l 1,39,-1
 351 919 l 1,36,-1
EndSplineSet
Validated: 1
EndChar

StartChar: two
Encoding: 50 50 21
Width: 801
Flags: W
LayerCount: 2
Fore
SplineSet
66 777 m 1,0,-1
 66 906 l 1,1,-1
 196 906 l 1,2,-1
 196 777 l 1,3,-1
 66 777 l 1,0,-1
209 210 m 1,4,-1
 209 339 l 1,5,-1
 338 339 l 1,6,-1
 338 210 l 1,7,-1
 209 210 l 1,4,-1
351 351 m 1,8,-1
 351 480 l 1,9,-1
 479 480 l 1,10,-1
 479 351 l 1,11,-1
 351 351 l 1,8,-1
492 493 m 1,12,-1
 492 622 l 1,13,-1
 621 622 l 1,14,-1
 621 493 l 1,15,-1
 492 493 l 1,12,-1
66 68 m 1,16,-1
 66 196 l 1,17,-1
 196 196 l 1,18,-1
 196 68 l 1,19,-1
 66 68 l 1,16,-1
634 68 m 1,20,-1
 634 196 l 1,21,-1
 764 196 l 1,22,-1
 764 68 l 1,23,-1
 634 68 l 1,20,-1
209 68 m 1,24,-1
 209 196 l 1,25,-1
 338 196 l 1,26,-1
 338 68 l 1,27,-1
 209 68 l 1,24,-1
351 68 m 1,28,-1
 351 196 l 1,29,-1
 479 196 l 1,30,-1
 479 68 l 1,31,-1
 351 68 l 1,28,-1
492 68 m 1,32,-1
 492 196 l 1,33,-1
 621 196 l 1,34,-1
 621 68 l 1,35,-1
 492 68 l 1,32,-1
634 635 m 1,36,-1
 634 764 l 1,37,-1
 764 764 l 1,38,-1
 764 635 l 1,39,-1
 634 635 l 1,36,-1
634 777 m 1,40,-1
 634 906 l 1,41,-1
 764 906 l 1,42,-1
 764 777 l 1,43,-1
 634 777 l 1,40,-1
209 919 m 1,44,-1
 209 1048 l 1,45,-1
 338 1048 l 1,46,-1
 338 919 l 1,47,-1
 209 919 l 1,44,-1
351 919 m 1,48,-1
 351 1048 l 1,49,-1
 479 1048 l 1,50,-1
 479 919 l 1,51,-1
 351 919 l 1,48,-1
492 919 m 1,52,-1
 492 1048 l 1,53,-1
 621 1048 l 1,54,-1
 621 919 l 1,55,-1
 492 919 l 1,52,-1
EndSplineSet
Validated: 1
EndChar

StartChar: three
Encoding: 51 51 22
Width: 801
Flags: W
LayerCount: 2
Fore
SplineSet
66 210 m 1,0,-1
 66 339 l 1,1,-1
 196 339 l 1,2,-1
 196 210 l 1,3,-1
 66 210 l 1,0,-1
492 493 m 1,4,-1
 492 622 l 1,5,-1
 621 622 l 1,6,-1
 621 493 l 1,7,-1
 492 493 l 1,4,-1
351 635 m 1,8,-1
 351 764 l 1,9,-1
 479 764 l 1,10,-1
 479 635 l 1,11,-1
 351 635 l 1,8,-1
492 777 m 1,12,-1
 492 906 l 1,13,-1
 621 906 l 1,14,-1
 621 777 l 1,15,-1
 492 777 l 1,12,-1
634 919 m 1,16,-1
 634 1048 l 1,17,-1
 764 1048 l 1,18,-1
 764 919 l 1,19,-1
 634 919 l 1,16,-1
66 919 m 1,20,-1
 66 1048 l 1,21,-1
 196 1048 l 1,22,-1
 196 919 l 1,23,-1
 66 919 l 1,20,-1
209 68 m 1,24,-1
 209 196 l 1,25,-1
 338 196 l 1,26,-1
 338 68 l 1,27,-1
 209 68 l 1,24,-1
351 68 m 1,28,-1
 351 196 l 1,29,-1
 479 196 l 1,30,-1
 479 68 l 1,31,-1
 351 68 l 1,28,-1
492 68 m 1,32,-1
 492 196 l 1,33,-1
 621 196 l 1,34,-1
 621 68 l 1,35,-1
 492 68 l 1,32,-1
634 210 m 1,36,-1
 634 339 l 1,37,-1
 764 339 l 1,38,-1
 764 210 l 1,39,-1
 634 210 l 1,36,-1
634 352 m 1,40,-1
 634 481 l 1,41,-1
 764 481 l 1,42,-1
 764 352 l 1,43,-1
 634 352 l 1,40,-1
209 919 m 1,44,-1
 209 1048 l 1,45,-1
 338 1048 l 1,46,-1
 338 919 l 1,47,-1
 209 919 l 1,44,-1
351 919 m 1,48,-1
 351 1048 l 1,49,-1
 479 1048 l 1,50,-1
 479 919 l 1,51,-1
 351 919 l 1,48,-1
492 919 m 1,52,-1
 492 1048 l 1,53,-1
 621 1048 l 1,54,-1
 621 919 l 1,55,-1
 492 919 l 1,52,-1
EndSplineSet
Validated: 1
EndChar

StartChar: four
Encoding: 52 52 23
Width: 801
Flags: W
LayerCount: 2
Fore
SplineSet
66 351 m 1,0,-1
 66 480 l 1,1,-1
 196 480 l 1,2,-1
 196 351 l 1,3,-1
 66 351 l 1,0,-1
66 493 m 1,4,-1
 66 622 l 1,5,-1
 196 622 l 1,6,-1
 196 493 l 1,7,-1
 66 493 l 1,4,-1
492 210 m 1,8,-1
 492 339 l 1,9,-1
 621 339 l 1,10,-1
 621 210 l 1,11,-1
 492 210 l 1,8,-1
209 351 m 1,12,-1
 209 480 l 1,13,-1
 338 480 l 1,14,-1
 338 351 l 1,15,-1
 209 351 l 1,12,-1
351 351 m 1,16,-1
 351 480 l 1,17,-1
 479 480 l 1,18,-1
 479 351 l 1,19,-1
 351 351 l 1,16,-1
492 351 m 1,20,-1
 492 480 l 1,21,-1
 621 480 l 1,22,-1
 621 351 l 1,23,-1
 492 351 l 1,20,-1
492 493 m 1,24,-1
 492 622 l 1,25,-1
 621 622 l 1,26,-1
 621 493 l 1,27,-1
 492 493 l 1,24,-1
209 635 m 1,28,-1
 209 764 l 1,29,-1
 338 764 l 1,30,-1
 338 635 l 1,31,-1
 209 635 l 1,28,-1
492 635 m 1,32,-1
 492 764 l 1,33,-1
 621 764 l 1,34,-1
 621 635 l 1,35,-1
 492 635 l 1,32,-1
351 777 m 1,36,-1
 351 906 l 1,37,-1
 479 906 l 1,38,-1
 479 777 l 1,39,-1
 351 777 l 1,36,-1
492 777 m 1,40,-1
 492 906 l 1,41,-1
 621 906 l 1,42,-1
 621 777 l 1,43,-1
 492 777 l 1,40,-1
492 68 m 1,44,-1
 492 196 l 1,45,-1
 621 196 l 1,46,-1
 621 68 l 1,47,-1
 492 68 l 1,44,-1
634 352 m 1,48,-1
 634 481 l 1,49,-1
 764 481 l 1,50,-1
 764 352 l 1,51,-1
 634 352 l 1,48,-1
492 919 m 1,52,-1
 492 1048 l 1,53,-1
 621 1048 l 1,54,-1
 621 919 l 1,55,-1
 492 919 l 1,52,-1
EndSplineSet
Validated: 1
EndChar

StartChar: five
Encoding: 53 53 24
Width: 801
Flags: W
LayerCount: 2
Fore
SplineSet
66 210 m 1,0,-1
 66 339 l 1,1,-1
 196 339 l 1,2,-1
 196 210 l 1,3,-1
 66 210 l 1,0,-1
66 635 m 1,4,-1
 66 764 l 1,5,-1
 196 764 l 1,6,-1
 196 635 l 1,7,-1
 66 635 l 1,4,-1
66 777 m 1,8,-1
 66 906 l 1,9,-1
 196 906 l 1,10,-1
 196 777 l 1,11,-1
 66 777 l 1,8,-1
209 635 m 1,12,-1
 209 764 l 1,13,-1
 338 764 l 1,14,-1
 338 635 l 1,15,-1
 209 635 l 1,12,-1
351 635 m 1,16,-1
 351 764 l 1,17,-1
 479 764 l 1,18,-1
 479 635 l 1,19,-1
 351 635 l 1,16,-1
492 635 m 1,20,-1
 492 764 l 1,21,-1
 621 764 l 1,22,-1
 621 635 l 1,23,-1
 492 635 l 1,20,-1
634 919 m 1,24,-1
 634 1048 l 1,25,-1
 764 1048 l 1,26,-1
 764 919 l 1,27,-1
 634 919 l 1,24,-1
66 919 m 1,28,-1
 66 1048 l 1,29,-1
 196 1048 l 1,30,-1
 196 919 l 1,31,-1
 66 919 l 1,28,-1
209 68 m 1,32,-1
 209 196 l 1,33,-1
 338 196 l 1,34,-1
 338 68 l 1,35,-1
 209 68 l 1,32,-1
351 68 m 1,36,-1
 351 196 l 1,37,-1
 479 196 l 1,38,-1
 479 68 l 1,39,-1
 351 68 l 1,36,-1
492 68 m 1,40,-1
 492 196 l 1,41,-1
 621 196 l 1,42,-1
 621 68 l 1,43,-1
 492 68 l 1,40,-1
634 210 m 1,44,-1
 634 339 l 1,45,-1
 764 339 l 1,46,-1
 764 210 l 1,47,-1
 634 210 l 1,44,-1
634 352 m 1,48,-1
 634 481 l 1,49,-1
 764 481 l 1,50,-1
 764 352 l 1,51,-1
 634 352 l 1,48,-1
634 493 m 1,52,-1
 634 622 l 1,53,-1
 764 622 l 1,54,-1
 764 493 l 1,55,-1
 634 493 l 1,52,-1
209 919 m 1,56,-1
 209 1048 l 1,57,-1
 338 1048 l 1,58,-1
 338 919 l 1,59,-1
 209 919 l 1,56,-1
351 919 m 1,60,-1
 351 1048 l 1,61,-1
 479 1048 l 1,62,-1
 479 919 l 1,63,-1
 351 919 l 1,60,-1
492 919 m 1,64,-1
 492 1048 l 1,65,-1
 621 1048 l 1,66,-1
 621 919 l 1,67,-1
 492 919 l 1,64,-1
EndSplineSet
Validated: 1
EndChar

StartChar: six
Encoding: 54 54 25
Width: 801
Flags: W
LayerCount: 2
Fore
SplineSet
66 210 m 1,0,-1
 66 339 l 1,1,-1
 196 339 l 1,2,-1
 196 210 l 1,3,-1
 66 210 l 1,0,-1
66 351 m 1,4,-1
 66 480 l 1,5,-1
 196 480 l 1,6,-1
 196 351 l 1,7,-1
 66 351 l 1,4,-1
66 493 m 1,8,-1
 66 622 l 1,9,-1
 196 622 l 1,10,-1
 196 493 l 1,11,-1
 66 493 l 1,8,-1
66 635 m 1,12,-1
 66 764 l 1,13,-1
 196 764 l 1,14,-1
 196 635 l 1,15,-1
 66 635 l 1,12,-1
209 493 m 1,16,-1
 209 622 l 1,17,-1
 338 622 l 1,18,-1
 338 493 l 1,19,-1
 209 493 l 1,16,-1
351 493 m 1,20,-1
 351 622 l 1,21,-1
 479 622 l 1,22,-1
 479 493 l 1,23,-1
 351 493 l 1,20,-1
492 493 m 1,24,-1
 492 622 l 1,25,-1
 621 622 l 1,26,-1
 621 493 l 1,27,-1
 492 493 l 1,24,-1
209 777 m 1,28,-1
 209 906 l 1,29,-1
 338 906 l 1,30,-1
 338 777 l 1,31,-1
 209 777 l 1,28,-1
209 68 m 1,32,-1
 209 196 l 1,33,-1
 338 196 l 1,34,-1
 338 68 l 1,35,-1
 209 68 l 1,32,-1
351 68 m 1,36,-1
 351 196 l 1,37,-1
 479 196 l 1,38,-1
 479 68 l 1,39,-1
 351 68 l 1,36,-1
492 68 m 1,40,-1
 492 196 l 1,41,-1
 621 196 l 1,42,-1
 621 68 l 1,43,-1
 492 68 l 1,40,-1
634 210 m 1,44,-1
 634 339 l 1,45,-1
 764 339 l 1,46,-1
 764 210 l 1,47,-1
 634 210 l 1,44,-1
634 352 m 1,48,-1
 634 481 l 1,49,-1
 764 481 l 1,50,-1
 764 352 l 1,51,-1
 634 352 l 1,48,-1
351 919 m 1,52,-1
 351 1048 l 1,53,-1
 479 1048 l 1,54,-1
 479 919 l 1,55,-1
 351 919 l 1,52,-1
492 919 m 1,56,-1
 492 1048 l 1,57,-1
 621 1048 l 1,58,-1
 621 919 l 1,59,-1
 492 919 l 1,56,-1
EndSplineSet
Validated: 1
EndChar

StartChar: seven
Encoding: 55 55 26
Width: 801
Flags: W
LayerCount: 2
Fore
SplineSet
209 210 m 1,0,-1
 209 339 l 1,1,-1
 338 339 l 1,2,-1
 338 210 l 1,3,-1
 209 210 l 1,0,-1
209 351 m 1,4,-1
 209 480 l 1,5,-1
 338 480 l 1,6,-1
 338 351 l 1,7,-1
 209 351 l 1,4,-1
351 493 m 1,8,-1
 351 622 l 1,9,-1
 479 622 l 1,10,-1
 479 493 l 1,11,-1
 351 493 l 1,8,-1
492 635 m 1,12,-1
 492 764 l 1,13,-1
 621 764 l 1,14,-1
 621 635 l 1,15,-1
 492 635 l 1,12,-1
634 919 m 1,16,-1
 634 1048 l 1,17,-1
 764 1048 l 1,18,-1
 764 919 l 1,19,-1
 634 919 l 1,16,-1
66 919 m 1,20,-1
 66 1048 l 1,21,-1
 196 1048 l 1,22,-1
 196 919 l 1,23,-1
 66 919 l 1,20,-1
209 68 m 1,24,-1
 209 196 l 1,25,-1
 338 196 l 1,26,-1
 338 68 l 1,27,-1
 209 68 l 1,24,-1
634 777 m 1,28,-1
 634 906 l 1,29,-1
 764 906 l 1,30,-1
 764 777 l 1,31,-1
 634 777 l 1,28,-1
209 919 m 1,32,-1
 209 1048 l 1,33,-1
 338 1048 l 1,34,-1
 338 919 l 1,35,-1
 209 919 l 1,32,-1
351 919 m 1,36,-1
 351 1048 l 1,37,-1
 479 1048 l 1,38,-1
 479 919 l 1,39,-1
 351 919 l 1,36,-1
492 919 m 1,40,-1
 492 1048 l 1,41,-1
 621 1048 l 1,42,-1
 621 919 l 1,43,-1
 492 919 l 1,40,-1
EndSplineSet
Validated: 1
EndChar

StartChar: eight
Encoding: 56 56 27
Width: 801
Flags: W
LayerCount: 2
Fore
SplineSet
66 210 m 1,0,-1
 66 339 l 1,1,-1
 196 339 l 1,2,-1
 196 210 l 1,3,-1
 66 210 l 1,0,-1
66 351 m 1,4,-1
 66 480 l 1,5,-1
 196 480 l 1,6,-1
 196 351 l 1,7,-1
 66 351 l 1,4,-1
66 635 m 1,8,-1
 66 764 l 1,9,-1
 196 764 l 1,10,-1
 196 635 l 1,11,-1
 66 635 l 1,8,-1
66 777 m 1,12,-1
 66 906 l 1,13,-1
 196 906 l 1,14,-1
 196 777 l 1,15,-1
 66 777 l 1,12,-1
209 493 m 1,16,-1
 209 622 l 1,17,-1
 338 622 l 1,18,-1
 338 493 l 1,19,-1
 209 493 l 1,16,-1
351 493 m 1,20,-1
 351 622 l 1,21,-1
 479 622 l 1,22,-1
 479 493 l 1,23,-1
 351 493 l 1,20,-1
492 493 m 1,24,-1
 492 622 l 1,25,-1
 621 622 l 1,26,-1
 621 493 l 1,27,-1
 492 493 l 1,24,-1
209 68 m 1,28,-1
 209 196 l 1,29,-1
 338 196 l 1,30,-1
 338 68 l 1,31,-1
 209 68 l 1,28,-1
351 68 m 1,32,-1
 351 196 l 1,33,-1
 479 196 l 1,34,-1
 479 68 l 1,35,-1
 351 68 l 1,32,-1
492 68 m 1,36,-1
 492 196 l 1,37,-1
 621 196 l 1,38,-1
 621 68 l 1,39,-1
 492 68 l 1,36,-1
634 210 m 1,40,-1
 634 339 l 1,41,-1
 764 339 l 1,42,-1
 764 210 l 1,43,-1
 634 210 l 1,40,-1
634 352 m 1,44,-1
 634 481 l 1,45,-1
 764 481 l 1,46,-1
 764 352 l 1,47,-1
 634 352 l 1,44,-1
634 635 m 1,48,-1
 634 764 l 1,49,-1
 764 764 l 1,50,-1
 764 635 l 1,51,-1
 634 635 l 1,48,-1
634 777 m 1,52,-1
 634 906 l 1,53,-1
 764 906 l 1,54,-1
 764 777 l 1,55,-1
 634 777 l 1,52,-1
209 919 m 1,56,-1
 209 1048 l 1,57,-1
 338 1048 l 1,58,-1
 338 919 l 1,59,-1
 209 919 l 1,56,-1
351 919 m 1,60,-1
 351 1048 l 1,61,-1
 479 1048 l 1,62,-1
 479 919 l 1,63,-1
 351 919 l 1,60,-1
492 919 m 1,64,-1
 492 1048 l 1,65,-1
 621 1048 l 1,66,-1
 621 919 l 1,67,-1
 492 919 l 1,64,-1
EndSplineSet
Validated: 1
EndChar

StartChar: nine
Encoding: 57 57 28
Width: 801
Flags: W
LayerCount: 2
Fore
SplineSet
66 635 m 1,0,-1
 66 764 l 1,1,-1
 196 764 l 1,2,-1
 196 635 l 1,3,-1
 66 635 l 1,0,-1
66 777 m 1,4,-1
 66 906 l 1,5,-1
 196 906 l 1,6,-1
 196 777 l 1,7,-1
 66 777 l 1,4,-1
492 210 m 1,8,-1
 492 339 l 1,9,-1
 621 339 l 1,10,-1
 621 210 l 1,11,-1
 492 210 l 1,8,-1
209 493 m 1,12,-1
 209 622 l 1,13,-1
 338 622 l 1,14,-1
 338 493 l 1,15,-1
 209 493 l 1,12,-1
351 493 m 1,16,-1
 351 622 l 1,17,-1
 479 622 l 1,18,-1
 479 493 l 1,19,-1
 351 493 l 1,16,-1
492 493 m 1,20,-1
 492 622 l 1,21,-1
 621 622 l 1,22,-1
 621 493 l 1,23,-1
 492 493 l 1,20,-1
209 68 m 1,24,-1
 209 196 l 1,25,-1
 338 196 l 1,26,-1
 338 68 l 1,27,-1
 209 68 l 1,24,-1
351 68 m 1,28,-1
 351 196 l 1,29,-1
 479 196 l 1,30,-1
 479 68 l 1,31,-1
 351 68 l 1,28,-1
634 352 m 1,32,-1
 634 481 l 1,33,-1
 764 481 l 1,34,-1
 764 352 l 1,35,-1
 634 352 l 1,32,-1
634 493 m 1,36,-1
 634 622 l 1,37,-1
 764 622 l 1,38,-1
 764 493 l 1,39,-1
 634 493 l 1,36,-1
634 635 m 1,40,-1
 634 764 l 1,41,-1
 764 764 l 1,42,-1
 764 635 l 1,43,-1
 634 635 l 1,40,-1
634 777 m 1,44,-1
 634 906 l 1,45,-1
 764 906 l 1,46,-1
 764 777 l 1,47,-1
 634 777 l 1,44,-1
209 919 m 1,48,-1
 209 1048 l 1,49,-1
 338 1048 l 1,50,-1
 338 919 l 1,51,-1
 209 919 l 1,48,-1
351 919 m 1,52,-1
 351 1048 l 1,53,-1
 479 1048 l 1,54,-1
 479 919 l 1,55,-1
 351 919 l 1,52,-1
492 919 m 1,56,-1
 492 1048 l 1,57,-1
 621 1048 l 1,58,-1
 621 919 l 1,59,-1
 492 919 l 1,56,-1
EndSplineSet
Validated: 1
EndChar

StartChar: colon
Encoding: 58 58 29
Width: 801
Flags: W
LayerCount: 2
Fore
SplineSet
209 210 m 1,0,-1
 209 339 l 1,1,-1
 338 339 l 1,2,-1
 338 210 l 1,3,-1
 209 210 l 1,0,-1
351 210 m 1,4,-1
 351 339 l 1,5,-1
 479 339 l 1,6,-1
 479 210 l 1,7,-1
 351 210 l 1,4,-1
209 351 m 1,8,-1
 209 480 l 1,9,-1
 338 480 l 1,10,-1
 338 351 l 1,11,-1
 209 351 l 1,8,-1
351 351 m 1,12,-1
 351 480 l 1,13,-1
 479 480 l 1,14,-1
 479 351 l 1,15,-1
 351 351 l 1,12,-1
209 635 m 1,16,-1
 209 764 l 1,17,-1
 338 764 l 1,18,-1
 338 635 l 1,19,-1
 209 635 l 1,16,-1
351 635 m 1,20,-1
 351 764 l 1,21,-1
 479 764 l 1,22,-1
 479 635 l 1,23,-1
 351 635 l 1,20,-1
209 777 m 1,24,-1
 209 906 l 1,25,-1
 338 906 l 1,26,-1
 338 777 l 1,27,-1
 209 777 l 1,24,-1
351 777 m 1,28,-1
 351 906 l 1,29,-1
 479 906 l 1,30,-1
 479 777 l 1,31,-1
 351 777 l 1,28,-1
EndSplineSet
Validated: 1
EndChar

StartChar: semicolon
Encoding: 59 59 30
Width: 801
Flags: W
LayerCount: 2
Fore
SplineSet
351 210 m 1,0,-1
 351 339 l 1,1,-1
 479 339 l 1,2,-1
 479 210 l 1,3,-1
 351 210 l 1,0,-1
209 351 m 1,4,-1
 209 480 l 1,5,-1
 338 480 l 1,6,-1
 338 351 l 1,7,-1
 209 351 l 1,4,-1
351 351 m 1,8,-1
 351 480 l 1,9,-1
 479 480 l 1,10,-1
 479 351 l 1,11,-1
 351 351 l 1,8,-1
209 635 m 1,12,-1
 209 764 l 1,13,-1
 338 764 l 1,14,-1
 338 635 l 1,15,-1
 209 635 l 1,12,-1
351 635 m 1,16,-1
 351 764 l 1,17,-1
 479 764 l 1,18,-1
 479 635 l 1,19,-1
 351 635 l 1,16,-1
209 777 m 1,20,-1
 209 906 l 1,21,-1
 338 906 l 1,22,-1
 338 777 l 1,23,-1
 209 777 l 1,20,-1
351 777 m 1,24,-1
 351 906 l 1,25,-1
 479 906 l 1,26,-1
 479 777 l 1,27,-1
 351 777 l 1,24,-1
209 68 m 1,28,-1
 209 196 l 1,29,-1
 338 196 l 1,30,-1
 338 68 l 1,31,-1
 209 68 l 1,28,-1
EndSplineSet
Validated: 1
EndChar

StartChar: less
Encoding: 60 60 31
Width: 801
Flags: W
LayerCount: 2
Fore
SplineSet
66 493 m 1,0,-1
 66 622 l 1,1,-1
 196 622 l 1,2,-1
 196 493 l 1,3,-1
 66 493 l 1,0,-1
351 210 m 1,4,-1
 351 339 l 1,5,-1
 479 339 l 1,6,-1
 479 210 l 1,7,-1
 351 210 l 1,4,-1
209 351 m 1,8,-1
 209 480 l 1,9,-1
 338 480 l 1,10,-1
 338 351 l 1,11,-1
 209 351 l 1,8,-1
209 635 m 1,12,-1
 209 764 l 1,13,-1
 338 764 l 1,14,-1
 338 635 l 1,15,-1
 209 635 l 1,12,-1
351 777 m 1,16,-1
 351 906 l 1,17,-1
 479 906 l 1,18,-1
 479 777 l 1,19,-1
 351 777 l 1,16,-1
492 68 m 1,20,-1
 492 196 l 1,21,-1
 621 196 l 1,22,-1
 621 68 l 1,23,-1
 492 68 l 1,20,-1
492 919 m 1,24,-1
 492 1048 l 1,25,-1
 621 1048 l 1,26,-1
 621 919 l 1,27,-1
 492 919 l 1,24,-1
EndSplineSet
Validated: 1
EndChar

StartChar: equal
Encoding: 61 61 32
Width: 801
Flags: W
LayerCount: 2
Fore
SplineSet
66 351 m 1,0,-1
 66 480 l 1,1,-1
 196 480 l 1,2,-1
 196 351 l 1,3,-1
 66 351 l 1,0,-1
66 635 m 1,4,-1
 66 764 l 1,5,-1
 196 764 l 1,6,-1
 196 635 l 1,7,-1
 66 635 l 1,4,-1
209 351 m 1,8,-1
 209 480 l 1,9,-1
 338 480 l 1,10,-1
 338 351 l 1,11,-1
 209 351 l 1,8,-1
351 351 m 1,12,-1
 351 480 l 1,13,-1
 479 480 l 1,14,-1
 479 351 l 1,15,-1
 351 351 l 1,12,-1
492 351 m 1,16,-1
 492 480 l 1,17,-1
 621 480 l 1,18,-1
 621 351 l 1,19,-1
 492 351 l 1,16,-1
209 635 m 1,20,-1
 209 764 l 1,21,-1
 338 764 l 1,22,-1
 338 635 l 1,23,-1
 209 635 l 1,20,-1
351 635 m 1,24,-1
 351 764 l 1,25,-1
 479 764 l 1,26,-1
 479 635 l 1,27,-1
 351 635 l 1,24,-1
492 635 m 1,28,-1
 492 764 l 1,29,-1
 621 764 l 1,30,-1
 621 635 l 1,31,-1
 492 635 l 1,28,-1
634 352 m 1,32,-1
 634 481 l 1,33,-1
 764 481 l 1,34,-1
 764 352 l 1,35,-1
 634 352 l 1,32,-1
634 635 m 1,36,-1
 634 764 l 1,37,-1
 764 764 l 1,38,-1
 764 635 l 1,39,-1
 634 635 l 1,36,-1
EndSplineSet
Validated: 1
EndChar

StartChar: greater
Encoding: 62 62 33
Width: 801
Flags: W
LayerCount: 2
Fore
SplineSet
351 210 m 1,0,-1
 351 339 l 1,1,-1
 479 339 l 1,2,-1
 479 210 l 1,3,-1
 351 210 l 1,0,-1
492 351 m 1,4,-1
 492 480 l 1,5,-1
 621 480 l 1,6,-1
 621 351 l 1,7,-1
 492 351 l 1,4,-1
492 635 m 1,8,-1
 492 764 l 1,9,-1
 621 764 l 1,10,-1
 621 635 l 1,11,-1
 492 635 l 1,8,-1
351 777 m 1,12,-1
 351 906 l 1,13,-1
 479 906 l 1,14,-1
 479 777 l 1,15,-1
 351 777 l 1,12,-1
209 68 m 1,16,-1
 209 196 l 1,17,-1
 338 196 l 1,18,-1
 338 68 l 1,19,-1
 209 68 l 1,16,-1
634 493 m 1,20,-1
 634 622 l 1,21,-1
 764 622 l 1,22,-1
 764 493 l 1,23,-1
 634 493 l 1,20,-1
209 919 m 1,24,-1
 209 1048 l 1,25,-1
 338 1048 l 1,26,-1
 338 919 l 1,27,-1
 209 919 l 1,24,-1
EndSplineSet
Validated: 1
EndChar

StartChar: question
Encoding: 63 63 34
Width: 801
Flags: W
LayerCount: 2
Fore
SplineSet
66 777 m 1,0,-1
 66 906 l 1,1,-1
 196 906 l 1,2,-1
 196 777 l 1,3,-1
 66 777 l 1,0,-1
351 351 m 1,4,-1
 351 480 l 1,5,-1
 479 480 l 1,6,-1
 479 351 l 1,7,-1
 351 351 l 1,4,-1
492 493 m 1,8,-1
 492 622 l 1,9,-1
 621 622 l 1,10,-1
 621 493 l 1,11,-1
 492 493 l 1,8,-1
351 68 m 1,12,-1
 351 196 l 1,13,-1
 479 196 l 1,14,-1
 479 68 l 1,15,-1
 351 68 l 1,12,-1
634 635 m 1,16,-1
 634 764 l 1,17,-1
 764 764 l 1,18,-1
 764 635 l 1,19,-1
 634 635 l 1,16,-1
634 777 m 1,20,-1
 634 906 l 1,21,-1
 764 906 l 1,22,-1
 764 777 l 1,23,-1
 634 777 l 1,20,-1
209 919 m 1,24,-1
 209 1048 l 1,25,-1
 338 1048 l 1,26,-1
 338 919 l 1,27,-1
 209 919 l 1,24,-1
351 919 m 1,28,-1
 351 1048 l 1,29,-1
 479 1048 l 1,30,-1
 479 919 l 1,31,-1
 351 919 l 1,28,-1
492 919 m 1,32,-1
 492 1048 l 1,33,-1
 621 1048 l 1,34,-1
 621 919 l 1,35,-1
 492 919 l 1,32,-1
EndSplineSet
Validated: 1
EndChar

StartChar: at
Encoding: 64 64 35
Width: 801
Flags: W
LayerCount: 2
Fore
SplineSet
66 210 m 1,0,-1
 66 339 l 1,1,-1
 196 339 l 1,2,-1
 196 210 l 1,3,-1
 66 210 l 1,0,-1
66 351 m 1,4,-1
 66 480 l 1,5,-1
 196 480 l 1,6,-1
 196 351 l 1,7,-1
 66 351 l 1,4,-1
66 777 m 1,8,-1
 66 906 l 1,9,-1
 196 906 l 1,10,-1
 196 777 l 1,11,-1
 66 777 l 1,8,-1
351 210 m 1,12,-1
 351 339 l 1,13,-1
 479 339 l 1,14,-1
 479 210 l 1,15,-1
 351 210 l 1,12,-1
351 351 m 1,16,-1
 351 480 l 1,17,-1
 479 480 l 1,18,-1
 479 351 l 1,19,-1
 351 351 l 1,16,-1
209 493 m 1,20,-1
 209 622 l 1,21,-1
 338 622 l 1,22,-1
 338 493 l 1,23,-1
 209 493 l 1,20,-1
351 493 m 1,24,-1
 351 622 l 1,25,-1
 479 622 l 1,26,-1
 479 493 l 1,27,-1
 351 493 l 1,24,-1
209 68 m 1,28,-1
 209 196 l 1,29,-1
 338 196 l 1,30,-1
 338 68 l 1,31,-1
 209 68 l 1,28,-1
351 68 m 1,32,-1
 351 196 l 1,33,-1
 479 196 l 1,34,-1
 479 68 l 1,35,-1
 351 68 l 1,32,-1
492 68 m 1,36,-1
 492 196 l 1,37,-1
 621 196 l 1,38,-1
 621 68 l 1,39,-1
 492 68 l 1,36,-1
634 210 m 1,40,-1
 634 339 l 1,41,-1
 764 339 l 1,42,-1
 764 210 l 1,43,-1
 634 210 l 1,40,-1
634 352 m 1,44,-1
 634 481 l 1,45,-1
 764 481 l 1,46,-1
 764 352 l 1,47,-1
 634 352 l 1,44,-1
634 493 m 1,48,-1
 634 622 l 1,49,-1
 764 622 l 1,50,-1
 764 493 l 1,51,-1
 634 493 l 1,48,-1
634 635 m 1,52,-1
 634 764 l 1,53,-1
 764 764 l 1,54,-1
 764 635 l 1,55,-1
 634 635 l 1,52,-1
634 777 m 1,56,-1
 634 906 l 1,57,-1
 764 906 l 1,58,-1
 764 777 l 1,59,-1
 634 777 l 1,56,-1
209 919 m 1,60,-1
 209 1048 l 1,61,-1
 338 1048 l 1,62,-1
 338 919 l 1,63,-1
 209 919 l 1,60,-1
351 919 m 1,64,-1
 351 1048 l 1,65,-1
 479 1048 l 1,66,-1
 479 919 l 1,67,-1
 351 919 l 1,64,-1
492 919 m 1,68,-1
 492 1048 l 1,69,-1
 621 1048 l 1,70,-1
 621 919 l 1,71,-1
 492 919 l 1,68,-1
EndSplineSet
Validated: 1
EndChar

StartChar: A
Encoding: 65 65 36
Width: 801
Flags: W
LayerCount: 2
Fore
SplineSet
66 210 m 1,0,-1
 66 339 l 1,1,-1
 196 339 l 1,2,-1
 196 210 l 1,3,-1
 66 210 l 1,0,-1
66 351 m 1,4,-1
 66 480 l 1,5,-1
 196 480 l 1,6,-1
 196 351 l 1,7,-1
 66 351 l 1,4,-1
66 493 m 1,8,-1
 66 622 l 1,9,-1
 196 622 l 1,10,-1
 196 493 l 1,11,-1
 66 493 l 1,8,-1
66 635 m 1,12,-1
 66 764 l 1,13,-1
 196 764 l 1,14,-1
 196 635 l 1,15,-1
 66 635 l 1,12,-1
66 777 m 1,16,-1
 66 906 l 1,17,-1
 196 906 l 1,18,-1
 196 777 l 1,19,-1
 66 777 l 1,16,-1
209 351 m 1,20,-1
 209 480 l 1,21,-1
 338 480 l 1,22,-1
 338 351 l 1,23,-1
 209 351 l 1,20,-1
351 351 m 1,24,-1
 351 480 l 1,25,-1
 479 480 l 1,26,-1
 479 351 l 1,27,-1
 351 351 l 1,24,-1
492 351 m 1,28,-1
 492 480 l 1,29,-1
 621 480 l 1,30,-1
 621 351 l 1,31,-1
 492 351 l 1,28,-1
66 68 m 1,32,-1
 66 196 l 1,33,-1
 196 196 l 1,34,-1
 196 68 l 1,35,-1
 66 68 l 1,32,-1
634 68 m 1,36,-1
 634 196 l 1,37,-1
 764 196 l 1,38,-1
 764 68 l 1,39,-1
 634 68 l 1,36,-1
634 210 m 1,40,-1
 634 339 l 1,41,-1
 764 339 l 1,42,-1
 764 210 l 1,43,-1
 634 210 l 1,40,-1
634 352 m 1,44,-1
 634 481 l 1,45,-1
 764 481 l 1,46,-1
 764 352 l 1,47,-1
 634 352 l 1,44,-1
634 493 m 1,48,-1
 634 622 l 1,49,-1
 764 622 l 1,50,-1
 764 493 l 1,51,-1
 634 493 l 1,48,-1
634 635 m 1,52,-1
 634 764 l 1,53,-1
 764 764 l 1,54,-1
 764 635 l 1,55,-1
 634 635 l 1,52,-1
634 777 m 1,56,-1
 634 906 l 1,57,-1
 764 906 l 1,58,-1
 764 777 l 1,59,-1
 634 777 l 1,56,-1
209 919 m 1,60,-1
 209 1048 l 1,61,-1
 338 1048 l 1,62,-1
 338 919 l 1,63,64
 338 919 338 919 209 919 c 1,60,-1
351 919 m 1,65,-1
 351 1048 l 1,66,-1
 479 1048 l 1,67,-1
 479 919 l 1,68,-1
 351 919 l 1,65,-1
492 919 m 1,69,-1
 492 1048 l 1,70,-1
 621 1048 l 1,71,-1
 621 919 l 1,72,-1
 492 919 l 1,69,-1
EndSplineSet
Validated: 1
EndChar

StartChar: B
Encoding: 66 66 37
Width: 801
Flags: W
LayerCount: 2
Fore
SplineSet
66 210 m 1,0,-1
 66 339 l 1,1,-1
 196 339 l 1,2,-1
 196 210 l 1,3,-1
 66 210 l 1,0,-1
66 351 m 1,4,-1
 66 480 l 1,5,-1
 196 480 l 1,6,-1
 196 351 l 1,7,-1
 66 351 l 1,4,-1
66 493 m 1,8,-1
 66 622 l 1,9,-1
 196 622 l 1,10,-1
 196 493 l 1,11,-1
 66 493 l 1,8,-1
66 635 m 1,12,-1
 66 764 l 1,13,-1
 196 764 l 1,14,-1
 196 635 l 1,15,-1
 66 635 l 1,12,-1
66 777 m 1,16,-1
 66 906 l 1,17,-1
 196 906 l 1,18,-1
 196 777 l 1,19,-1
 66 777 l 1,16,-1
209 493 m 1,20,-1
 209 622 l 1,21,-1
 338 622 l 1,22,-1
 338 493 l 1,23,-1
 209 493 l 1,20,-1
351 493 m 1,24,-1
 351 622 l 1,25,-1
 479 622 l 1,26,-1
 479 493 l 1,27,-1
 351 493 l 1,24,-1
492 493 m 1,28,-1
 492 622 l 1,29,-1
 621 622 l 1,30,-1
 621 493 l 1,31,-1
 492 493 l 1,28,-1
66 68 m 1,32,-1
 66 196 l 1,33,-1
 196 196 l 1,34,-1
 196 68 l 1,35,-1
 66 68 l 1,32,-1
66 919 m 1,36,-1
 66 1048 l 1,37,-1
 196 1048 l 1,38,-1
 196 919 l 1,39,-1
 66 919 l 1,36,-1
209 68 m 1,40,-1
 209 196 l 1,41,-1
 338 196 l 1,42,-1
 338 68 l 1,43,-1
 209 68 l 1,40,-1
351 68 m 1,44,-1
 351 196 l 1,45,-1
 479 196 l 1,46,-1
 479 68 l 1,47,-1
 351 68 l 1,44,-1
492 68 m 1,48,-1
 492 196 l 1,49,-1
 621 196 l 1,50,-1
 621 68 l 1,51,-1
 492 68 l 1,48,-1
634 210 m 1,52,-1
 634 339 l 1,53,-1
 764 339 l 1,54,-1
 764 210 l 1,55,-1
 634 210 l 1,52,-1
634 352 m 1,56,-1
 634 481 l 1,57,-1
 764 481 l 1,58,-1
 764 352 l 1,59,-1
 634 352 l 1,56,-1
634 635 m 1,60,-1
 634 764 l 1,61,-1
 764 764 l 1,62,-1
 764 635 l 1,63,-1
 634 635 l 1,60,-1
634 777 m 1,64,-1
 634 906 l 1,65,-1
 764 906 l 1,66,-1
 764 777 l 1,67,-1
 634 777 l 1,64,-1
209 919 m 1,68,-1
 209 1048 l 1,69,-1
 338 1048 l 1,70,-1
 338 919 l 1,71,-1
 209 919 l 1,68,-1
351 919 m 1,72,-1
 351 1048 l 1,73,-1
 479 1048 l 1,74,-1
 479 919 l 1,75,-1
 351 919 l 1,72,-1
492 919 m 1,76,-1
 492 1048 l 1,77,-1
 621 1048 l 1,78,-1
 621 919 l 1,79,-1
 492 919 l 1,76,-1
EndSplineSet
Validated: 1
EndChar

StartChar: C
Encoding: 67 67 38
Width: 801
Flags: W
LayerCount: 2
Fore
SplineSet
66 210 m 1,0,-1
 66 339 l 1,1,-1
 196 339 l 1,2,-1
 196 210 l 1,3,-1
 66 210 l 1,0,-1
66 351 m 1,4,-1
 66 480 l 1,5,-1
 196 480 l 1,6,-1
 196 351 l 1,7,-1
 66 351 l 1,4,-1
66 493 m 1,8,-1
 66 622 l 1,9,-1
 196 622 l 1,10,-1
 196 493 l 1,11,-1
 66 493 l 1,8,-1
66 635 m 1,12,-1
 66 764 l 1,13,-1
 196 764 l 1,14,-1
 196 635 l 1,15,-1
 66 635 l 1,12,-1
66 777 m 1,16,-1
 66 906 l 1,17,-1
 196 906 l 1,18,-1
 196 777 l 1,19,-1
 66 777 l 1,16,-1
209 68 m 1,20,-1
 209 196 l 1,21,-1
 338 196 l 1,22,-1
 338 68 l 1,23,-1
 209 68 l 1,20,-1
351 68 m 1,24,-1
 351 196 l 1,25,-1
 479 196 l 1,26,-1
 479 68 l 1,27,-1
 351 68 l 1,24,-1
492 68 m 1,28,-1
 492 196 l 1,29,-1
 621 196 l 1,30,-1
 621 68 l 1,31,-1
 492 68 l 1,28,-1
634 210 m 1,32,-1
 634 339 l 1,33,-1
 764 339 l 1,34,-1
 764 210 l 1,35,-1
 634 210 l 1,32,-1
634 777 m 1,36,-1
 634 906 l 1,37,-1
 764 906 l 1,38,-1
 764 777 l 1,39,-1
 634 777 l 1,36,-1
209 919 m 1,40,-1
 209 1048 l 1,41,-1
 338 1048 l 1,42,-1
 338 919 l 1,43,-1
 209 919 l 1,40,-1
351 919 m 1,44,-1
 351 1048 l 1,45,-1
 479 1048 l 1,46,-1
 479 919 l 1,47,-1
 351 919 l 1,44,-1
492 919 m 1,48,-1
 492 1048 l 1,49,-1
 621 1048 l 1,50,-1
 621 919 l 1,51,-1
 492 919 l 1,48,-1
EndSplineSet
Validated: 1
EndChar

StartChar: D
Encoding: 68 68 39
Width: 801
Flags: W
LayerCount: 2
Fore
SplineSet
66 210 m 1,0,-1
 66 339 l 1,1,-1
 196 339 l 1,2,-1
 196 210 l 1,3,-1
 66 210 l 1,0,-1
66 351 m 1,4,-1
 66 480 l 1,5,-1
 196 480 l 1,6,-1
 196 351 l 1,7,-1
 66 351 l 1,4,-1
66 493 m 1,8,-1
 66 622 l 1,9,-1
 196 622 l 1,10,-1
 196 493 l 1,11,-1
 66 493 l 1,8,-1
66 635 m 1,12,-1
 66 764 l 1,13,-1
 196 764 l 1,14,-1
 196 635 l 1,15,-1
 66 635 l 1,12,-1
66 777 m 1,16,-1
 66 906 l 1,17,-1
 196 906 l 1,18,-1
 196 777 l 1,19,-1
 66 777 l 1,16,-1
492 210 m 1,20,-1
 492 339 l 1,21,-1
 621 339 l 1,22,-1
 621 210 l 1,23,-1
 492 210 l 1,20,-1
492 777 m 1,24,-1
 492 906 l 1,25,-1
 621 906 l 1,26,-1
 621 777 l 1,27,-1
 492 777 l 1,24,-1
66 68 m 1,28,-1
 66 196 l 1,29,-1
 196 196 l 1,30,-1
 196 68 l 1,31,-1
 66 68 l 1,28,-1
66 919 m 1,32,-1
 66 1048 l 1,33,-1
 196 1048 l 1,34,-1
 196 919 l 1,35,-1
 66 919 l 1,32,-1
209 68 m 1,36,-1
 209 196 l 1,37,-1
 338 196 l 1,38,-1
 338 68 l 1,39,-1
 209 68 l 1,36,-1
351 68 m 1,40,-1
 351 196 l 1,41,-1
 479 196 l 1,42,-1
 479 68 l 1,43,-1
 351 68 l 1,40,-1
634 352 m 1,44,-1
 634 481 l 1,45,-1
 764 481 l 1,46,-1
 764 352 l 1,47,-1
 634 352 l 1,44,-1
634 493 m 1,48,-1
 634 622 l 1,49,-1
 764 622 l 1,50,-1
 764 493 l 1,51,-1
 634 493 l 1,48,-1
634 635 m 1,52,-1
 634 764 l 1,53,-1
 764 764 l 1,54,-1
 764 635 l 1,55,-1
 634 635 l 1,52,-1
209 919 m 1,56,-1
 209 1048 l 1,57,-1
 338 1048 l 1,58,-1
 338 919 l 1,59,-1
 209 919 l 1,56,-1
351 919 m 1,60,-1
 351 1048 l 1,61,-1
 479 1048 l 1,62,-1
 479 919 l 1,63,-1
 351 919 l 1,60,-1
EndSplineSet
Validated: 1
EndChar

StartChar: E
Encoding: 69 69 40
Width: 801
Flags: W
LayerCount: 2
Fore
SplineSet
66 210 m 1,0,-1
 66 339 l 1,1,-1
 196 339 l 1,2,-1
 196 210 l 1,3,-1
 66 210 l 1,0,-1
66 351 m 1,4,-1
 66 480 l 1,5,-1
 196 480 l 1,6,-1
 196 351 l 1,7,-1
 66 351 l 1,4,-1
66 493 m 1,8,-1
 66 622 l 1,9,-1
 196 622 l 1,10,-1
 196 493 l 1,11,-1
 66 493 l 1,8,-1
66 635 m 1,12,-1
 66 764 l 1,13,-1
 196 764 l 1,14,-1
 196 635 l 1,15,-1
 66 635 l 1,12,-1
66 777 m 1,16,-1
 66 906 l 1,17,-1
 196 906 l 1,18,-1
 196 777 l 1,19,-1
 66 777 l 1,16,-1
209 493 m 1,20,-1
 209 622 l 1,21,-1
 338 622 l 1,22,-1
 338 493 l 1,23,-1
 209 493 l 1,20,-1
351 493 m 1,24,-1
 351 622 l 1,25,-1
 479 622 l 1,26,-1
 479 493 l 1,27,-1
 351 493 l 1,24,-1
492 493 m 1,28,-1
 492 622 l 1,29,-1
 621 622 l 1,30,-1
 621 493 l 1,31,-1
 492 493 l 1,28,-1
66 68 m 1,32,-1
 66 196 l 1,33,-1
 196 196 l 1,34,-1
 196 68 l 1,35,-1
 66 68 l 1,32,-1
634 68 m 1,36,-1
 634 196 l 1,37,-1
 764 196 l 1,38,-1
 764 68 l 1,39,-1
 634 68 l 1,36,-1
634 919 m 1,40,-1
 634 1048 l 1,41,-1
 764 1048 l 1,42,-1
 764 919 l 1,43,-1
 634 919 l 1,40,-1
66 919 m 1,44,-1
 66 1048 l 1,45,-1
 196 1048 l 1,46,-1
 196 919 l 1,47,-1
 66 919 l 1,44,-1
209 68 m 1,48,-1
 209 196 l 1,49,-1
 338 196 l 1,50,-1
 338 68 l 1,51,-1
 209 68 l 1,48,-1
351 68 m 1,52,-1
 351 196 l 1,53,-1
 479 196 l 1,54,-1
 479 68 l 1,55,-1
 351 68 l 1,52,-1
492 68 m 1,56,-1
 492 196 l 1,57,-1
 621 196 l 1,58,-1
 621 68 l 1,59,-1
 492 68 l 1,56,-1
209 919 m 1,60,-1
 209 1048 l 1,61,-1
 338 1048 l 1,62,-1
 338 919 l 1,63,-1
 209 919 l 1,60,-1
351 919 m 1,64,-1
 351 1048 l 1,65,-1
 479 1048 l 1,66,-1
 479 919 l 1,67,-1
 351 919 l 1,64,-1
492 919 m 1,68,-1
 492 1048 l 1,69,-1
 621 1048 l 1,70,-1
 621 919 l 1,71,-1
 492 919 l 1,68,-1
EndSplineSet
Validated: 1
EndChar

StartChar: F
Encoding: 70 70 41
Width: 801
Flags: W
LayerCount: 2
Fore
SplineSet
66 210 m 1,0,-1
 66 339 l 1,1,-1
 196 339 l 1,2,-1
 196 210 l 1,3,-1
 66 210 l 1,0,-1
66 351 m 1,4,-1
 66 480 l 1,5,-1
 196 480 l 1,6,-1
 196 351 l 1,7,-1
 66 351 l 1,4,-1
66 493 m 1,8,-1
 66 622 l 1,9,-1
 196 622 l 1,10,-1
 196 493 l 1,11,-1
 66 493 l 1,8,-1
66 635 m 1,12,-1
 66 764 l 1,13,-1
 196 764 l 1,14,-1
 196 635 l 1,15,-1
 66 635 l 1,12,-1
66 777 m 1,16,-1
 66 906 l 1,17,-1
 196 906 l 1,18,-1
 196 777 l 1,19,-1
 66 777 l 1,16,-1
209 493 m 1,20,-1
 209 622 l 1,21,-1
 338 622 l 1,22,-1
 338 493 l 1,23,-1
 209 493 l 1,20,-1
351 493 m 1,24,-1
 351 622 l 1,25,-1
 479 622 l 1,26,-1
 479 493 l 1,27,-1
 351 493 l 1,24,-1
492 493 m 1,28,-1
 492 622 l 1,29,-1
 621 622 l 1,30,-1
 621 493 l 1,31,-1
 492 493 l 1,28,-1
66 68 m 1,32,-1
 66 196 l 1,33,-1
 196 196 l 1,34,-1
 196 68 l 1,35,-1
 66 68 l 1,32,-1
634 919 m 1,36,-1
 634 1048 l 1,37,-1
 764 1048 l 1,38,-1
 764 919 l 1,39,-1
 634 919 l 1,36,-1
66 919 m 1,40,-1
 66 1048 l 1,41,-1
 196 1048 l 1,42,-1
 196 919 l 1,43,-1
 66 919 l 1,40,-1
209 919 m 1,44,-1
 209 1048 l 1,45,-1
 338 1048 l 1,46,-1
 338 919 l 1,47,-1
 209 919 l 1,44,-1
351 919 m 1,48,-1
 351 1048 l 1,49,-1
 479 1048 l 1,50,-1
 479 919 l 1,51,-1
 351 919 l 1,48,-1
492 919 m 1,52,-1
 492 1048 l 1,53,-1
 621 1048 l 1,54,-1
 621 919 l 1,55,-1
 492 919 l 1,52,-1
EndSplineSet
Validated: 1
EndChar

StartChar: G
Encoding: 71 71 42
Width: 801
Flags: W
LayerCount: 2
Fore
SplineSet
66 210 m 1,0,-1
 66 339 l 1,1,-1
 196 339 l 1,2,-1
 196 210 l 1,3,-1
 66 210 l 1,0,-1
66 351 m 1,4,-1
 66 480 l 1,5,-1
 196 480 l 1,6,-1
 196 351 l 1,7,-1
 66 351 l 1,4,-1
66 493 m 1,8,-1
 66 622 l 1,9,-1
 196 622 l 1,10,-1
 196 493 l 1,11,-1
 66 493 l 1,8,-1
66 635 m 1,12,-1
 66 764 l 1,13,-1
 196 764 l 1,14,-1
 196 635 l 1,15,-1
 66 635 l 1,12,-1
66 777 m 1,16,-1
 66 906 l 1,17,-1
 196 906 l 1,18,-1
 196 777 l 1,19,-1
 66 777 l 1,16,-1
351 493 m 1,20,-1
 351 622 l 1,21,-1
 479 622 l 1,22,-1
 479 493 l 1,23,-1
 351 493 l 1,20,-1
492 493 m 1,24,-1
 492 622 l 1,25,-1
 621 622 l 1,26,-1
 621 493 l 1,27,-1
 492 493 l 1,24,-1
634 68 m 1,28,-1
 634 196 l 1,29,-1
 764 196 l 1,30,-1
 764 68 l 1,31,-1
 634 68 l 1,28,-1
209 68 m 1,32,-1
 209 196 l 1,33,-1
 338 196 l 1,34,-1
 338 68 l 1,35,-1
 209 68 l 1,32,-1
351 68 m 1,36,-1
 351 196 l 1,37,-1
 479 196 l 1,38,-1
 479 68 l 1,39,-1
 351 68 l 1,36,-1
492 68 m 1,40,-1
 492 196 l 1,41,-1
 621 196 l 1,42,-1
 621 68 l 1,43,-1
 492 68 l 1,40,-1
634 210 m 1,44,-1
 634 339 l 1,45,-1
 764 339 l 1,46,-1
 764 210 l 1,47,-1
 634 210 l 1,44,-1
634 352 m 1,48,-1
 634 481 l 1,49,-1
 764 481 l 1,50,-1
 764 352 l 1,51,-1
 634 352 l 1,48,-1
634 493 m 1,52,-1
 634 622 l 1,53,-1
 764 622 l 1,54,-1
 764 493 l 1,55,-1
 634 493 l 1,52,-1
634 777 m 1,56,-1
 634 906 l 1,57,-1
 764 906 l 1,58,-1
 764 777 l 1,59,-1
 634 777 l 1,56,-1
209 919 m 1,60,-1
 209 1048 l 1,61,-1
 338 1048 l 1,62,-1
 338 919 l 1,63,-1
 209 919 l 1,60,-1
351 919 m 1,64,-1
 351 1048 l 1,65,-1
 479 1048 l 1,66,-1
 479 919 l 1,67,-1
 351 919 l 1,64,-1
492 919 m 1,68,-1
 492 1048 l 1,69,-1
 621 1048 l 1,70,-1
 621 919 l 1,71,-1
 492 919 l 1,68,-1
EndSplineSet
Validated: 1
EndChar

StartChar: H
Encoding: 72 72 43
Width: 801
Flags: W
LayerCount: 2
Fore
SplineSet
66 210 m 1,0,-1
 66 339 l 1,1,-1
 196 339 l 1,2,-1
 196 210 l 1,3,-1
 66 210 l 1,0,-1
66 351 m 1,4,-1
 66 480 l 1,5,-1
 196 480 l 1,6,-1
 196 351 l 1,7,-1
 66 351 l 1,4,-1
66 493 m 1,8,-1
 66 622 l 1,9,-1
 196 622 l 1,10,-1
 196 493 l 1,11,-1
 66 493 l 1,8,-1
66 635 m 1,12,-1
 66 764 l 1,13,-1
 196 764 l 1,14,-1
 196 635 l 1,15,-1
 66 635 l 1,12,-1
66 777 m 1,16,-1
 66 906 l 1,17,-1
 196 906 l 1,18,-1
 196 777 l 1,19,-1
 66 777 l 1,16,-1
209 493 m 1,20,-1
 209 622 l 1,21,-1
 338 622 l 1,22,-1
 338 493 l 1,23,-1
 209 493 l 1,20,-1
351 493 m 1,24,-1
 351 622 l 1,25,-1
 479 622 l 1,26,-1
 479 493 l 1,27,-1
 351 493 l 1,24,-1
492 493 m 1,28,-1
 492 622 l 1,29,-1
 621 622 l 1,30,-1
 621 493 l 1,31,-1
 492 493 l 1,28,-1
66 68 m 1,32,-1
 66 196 l 1,33,-1
 196 196 l 1,34,-1
 196 68 l 1,35,-1
 66 68 l 1,32,-1
634 68 m 1,36,-1
 634 196 l 1,37,-1
 764 196 l 1,38,-1
 764 68 l 1,39,-1
 634 68 l 1,36,-1
634 919 m 1,40,-1
 634 1048 l 1,41,-1
 764 1048 l 1,42,-1
 764 919 l 1,43,-1
 634 919 l 1,40,-1
66 919 m 1,44,-1
 66 1048 l 1,45,-1
 196 1048 l 1,46,-1
 196 919 l 1,47,-1
 66 919 l 1,44,-1
634 210 m 1,48,-1
 634 339 l 1,49,-1
 764 339 l 1,50,-1
 764 210 l 1,51,-1
 634 210 l 1,48,-1
634 352 m 1,52,-1
 634 481 l 1,53,-1
 764 481 l 1,54,-1
 764 352 l 1,55,-1
 634 352 l 1,52,-1
634 493 m 1,56,-1
 634 622 l 1,57,-1
 764 622 l 1,58,-1
 764 493 l 1,59,-1
 634 493 l 1,56,-1
634 635 m 1,60,-1
 634 764 l 1,61,-1
 764 764 l 1,62,-1
 764 635 l 1,63,-1
 634 635 l 1,60,-1
634 777 m 1,64,-1
 634 906 l 1,65,-1
 764 906 l 1,66,-1
 764 777 l 1,67,-1
 634 777 l 1,64,-1
EndSplineSet
Validated: 1
EndChar

StartChar: I
Encoding: 73 73 44
Width: 801
Flags: W
LayerCount: 2
Fore
SplineSet
351 210 m 1,0,-1
 351 339 l 1,1,-1
 479 339 l 1,2,-1
 479 210 l 1,3,-1
 351 210 l 1,0,-1
351 351 m 1,4,-1
 351 480 l 1,5,-1
 479 480 l 1,6,-1
 479 351 l 1,7,-1
 351 351 l 1,4,-1
351 493 m 1,8,-1
 351 622 l 1,9,-1
 479 622 l 1,10,-1
 479 493 l 1,11,-1
 351 493 l 1,8,-1
351 635 m 1,12,-1
 351 764 l 1,13,-1
 479 764 l 1,14,-1
 479 635 l 1,15,-1
 351 635 l 1,12,-1
351 777 m 1,16,-1
 351 906 l 1,17,-1
 479 906 l 1,18,-1
 479 777 l 1,19,-1
 351 777 l 1,16,-1
209 68 m 1,20,-1
 209 196 l 1,21,-1
 338 196 l 1,22,-1
 338 68 l 1,23,-1
 209 68 l 1,20,-1
351 68 m 1,24,-1
 351 196 l 1,25,-1
 479 196 l 1,26,-1
 479 68 l 1,27,-1
 351 68 l 1,24,-1
492 68 m 1,28,-1
 492 196 l 1,29,-1
 621 196 l 1,30,-1
 621 68 l 1,31,-1
 492 68 l 1,28,-1
209 919 m 1,32,-1
 209 1048 l 1,33,-1
 338 1048 l 1,34,-1
 338 919 l 1,35,-1
 209 919 l 1,32,-1
351 919 m 1,36,-1
 351 1048 l 1,37,-1
 479 1048 l 1,38,-1
 479 919 l 1,39,-1
 351 919 l 1,36,-1
492 919 m 1,40,-1
 492 1048 l 1,41,-1
 621 1048 l 1,42,-1
 621 919 l 1,43,-1
 492 919 l 1,40,-1
EndSplineSet
Validated: 1
EndChar

StartChar: J
Encoding: 74 74 45
Width: 801
Flags: W
LayerCount: 2
Fore
SplineSet
66 210 m 1,0,-1
 66 339 l 1,1,-1
 196 339 l 1,2,-1
 196 210 l 1,3,-1
 66 210 l 1,0,-1
492 210 m 1,4,-1
 492 339 l 1,5,-1
 621 339 l 1,6,-1
 621 210 l 1,7,-1
 492 210 l 1,4,-1
492 351 m 1,8,-1
 492 480 l 1,9,-1
 621 480 l 1,10,-1
 621 351 l 1,11,-1
 492 351 l 1,8,-1
492 493 m 1,12,-1
 492 622 l 1,13,-1
 621 622 l 1,14,-1
 621 493 l 1,15,-1
 492 493 l 1,12,-1
492 635 m 1,16,-1
 492 764 l 1,17,-1
 621 764 l 1,18,-1
 621 635 l 1,19,-1
 492 635 l 1,16,-1
492 777 m 1,20,-1
 492 906 l 1,21,-1
 621 906 l 1,22,-1
 621 777 l 1,23,-1
 492 777 l 1,20,-1
634 919 m 1,24,-1
 634 1048 l 1,25,-1
 764 1048 l 1,26,-1
 764 919 l 1,27,-1
 634 919 l 1,24,-1
209 68 m 1,28,-1
 209 196 l 1,29,-1
 338 196 l 1,30,-1
 338 68 l 1,31,-1
 209 68 l 1,28,-1
351 68 m 1,32,-1
 351 196 l 1,33,-1
 479 196 l 1,34,-1
 479 68 l 1,35,-1
 351 68 l 1,32,-1
351 919 m 1,36,-1
 351 1048 l 1,37,-1
 479 1048 l 1,38,-1
 479 919 l 1,39,-1
 351 919 l 1,36,-1
492 919 m 1,40,-1
 492 1048 l 1,41,-1
 621 1048 l 1,42,-1
 621 919 l 1,43,-1
 492 919 l 1,40,-1
EndSplineSet
Validated: 1
EndChar

StartChar: K
Encoding: 75 75 46
Width: 801
Flags: W
LayerCount: 2
Fore
SplineSet
66 210 m 1,0,-1
 66 339 l 1,1,-1
 196 339 l 1,2,-1
 196 210 l 1,3,-1
 66 210 l 1,0,-1
66 351 m 1,4,-1
 66 480 l 1,5,-1
 196 480 l 1,6,-1
 196 351 l 1,7,-1
 66 351 l 1,4,-1
66 493 m 1,8,-1
 66 622 l 1,9,-1
 196 622 l 1,10,-1
 196 493 l 1,11,-1
 66 493 l 1,8,-1
66 635 m 1,12,-1
 66 764 l 1,13,-1
 196 764 l 1,14,-1
 196 635 l 1,15,-1
 66 635 l 1,12,-1
66 777 m 1,16,-1
 66 906 l 1,17,-1
 196 906 l 1,18,-1
 196 777 l 1,19,-1
 66 777 l 1,16,-1
492 210 m 1,20,-1
 492 339 l 1,21,-1
 621 339 l 1,22,-1
 621 210 l 1,23,-1
 492 210 l 1,20,-1
351 351 m 1,24,-1
 351 480 l 1,25,-1
 479 480 l 1,26,-1
 479 351 l 1,27,-1
 351 351 l 1,24,-1
209 493 m 1,28,-1
 209 622 l 1,29,-1
 338 622 l 1,30,-1
 338 493 l 1,31,-1
 209 493 l 1,28,-1
351 635 m 1,32,-1
 351 764 l 1,33,-1
 479 764 l 1,34,-1
 479 635 l 1,35,-1
 351 635 l 1,32,-1
492 777 m 1,36,-1
 492 906 l 1,37,-1
 621 906 l 1,38,-1
 621 777 l 1,39,-1
 492 777 l 1,36,-1
66 68 m 1,40,-1
 66 196 l 1,41,-1
 196 196 l 1,42,-1
 196 68 l 1,43,-1
 66 68 l 1,40,-1
634 68 m 1,44,-1
 634 196 l 1,45,-1
 764 196 l 1,46,-1
 764 68 l 1,47,-1
 634 68 l 1,44,-1
634 919 m 1,48,-1
 634 1048 l 1,49,-1
 764 1048 l 1,50,-1
 764 919 l 1,51,-1
 634 919 l 1,48,-1
66 919 m 1,52,-1
 66 1048 l 1,53,-1
 196 1048 l 1,54,-1
 196 919 l 1,55,-1
 66 919 l 1,52,-1
EndSplineSet
Validated: 1
EndChar

StartChar: L
Encoding: 76 76 47
Width: 801
Flags: W
LayerCount: 2
Fore
SplineSet
66 210 m 1,0,-1
 66 339 l 1,1,-1
 196 339 l 1,2,-1
 196 210 l 1,3,-1
 66 210 l 1,0,-1
66 351 m 1,4,-1
 66 480 l 1,5,-1
 196 480 l 1,6,-1
 196 351 l 1,7,-1
 66 351 l 1,4,-1
66 493 m 1,8,-1
 66 622 l 1,9,-1
 196 622 l 1,10,-1
 196 493 l 1,11,-1
 66 493 l 1,8,-1
66 635 m 1,12,-1
 66 764 l 1,13,-1
 196 764 l 1,14,-1
 196 635 l 1,15,-1
 66 635 l 1,12,-1
66 777 m 1,16,-1
 66 906 l 1,17,-1
 196 906 l 1,18,-1
 196 777 l 1,19,-1
 66 777 l 1,16,-1
66 68 m 1,20,-1
 66 196 l 1,21,-1
 196 196 l 1,22,-1
 196 68 l 1,23,-1
 66 68 l 1,20,-1
634 68 m 1,24,-1
 634 196 l 1,25,-1
 764 196 l 1,26,-1
 764 68 l 1,27,-1
 634 68 l 1,24,-1
66 919 m 1,28,-1
 66 1048 l 1,29,-1
 196 1048 l 1,30,-1
 196 919 l 1,31,-1
 66 919 l 1,28,-1
209 68 m 1,32,-1
 209 196 l 1,33,-1
 338 196 l 1,34,-1
 338 68 l 1,35,-1
 209 68 l 1,32,-1
351 68 m 1,36,-1
 351 196 l 1,37,-1
 479 196 l 1,38,-1
 479 68 l 1,39,-1
 351 68 l 1,36,-1
492 68 m 1,40,-1
 492 196 l 1,41,-1
 621 196 l 1,42,-1
 621 68 l 1,43,-1
 492 68 l 1,40,-1
EndSplineSet
Validated: 1
EndChar

StartChar: M
Encoding: 77 77 48
Width: 801
Flags: W
LayerCount: 2
Fore
SplineSet
66 210 m 1,0,-1
 66 339 l 1,1,-1
 196 339 l 1,2,-1
 196 210 l 1,3,-1
 66 210 l 1,0,-1
66 351 m 1,4,-1
 66 480 l 1,5,-1
 196 480 l 1,6,-1
 196 351 l 1,7,-1
 66 351 l 1,4,-1
66 493 m 1,8,-1
 66 622 l 1,9,-1
 196 622 l 1,10,-1
 196 493 l 1,11,-1
 66 493 l 1,8,-1
66 635 m 1,12,-1
 66 764 l 1,13,-1
 196 764 l 1,14,-1
 196 635 l 1,15,-1
 66 635 l 1,12,-1
66 777 m 1,16,-1
 66 906 l 1,17,-1
 196 906 l 1,18,-1
 196 777 l 1,19,-1
 66 777 l 1,16,-1
351 493 m 1,20,-1
 351 622 l 1,21,-1
 479 622 l 1,22,-1
 479 493 l 1,23,-1
 351 493 l 1,20,-1
351 635 m 1,24,-1
 351 764 l 1,25,-1
 479 764 l 1,26,-1
 479 635 l 1,27,-1
 351 635 l 1,24,-1
209 777 m 1,28,-1
 209 906 l 1,29,-1
 338 906 l 1,30,-1
 338 777 l 1,31,-1
 209 777 l 1,28,-1
492 777 m 1,32,-1
 492 906 l 1,33,-1
 621 906 l 1,34,-1
 621 777 l 1,35,-1
 492 777 l 1,32,-1
66 68 m 1,36,-1
 66 196 l 1,37,-1
 196 196 l 1,38,-1
 196 68 l 1,39,-1
 66 68 l 1,36,-1
634 68 m 1,40,-1
 634 196 l 1,41,-1
 764 196 l 1,42,-1
 764 68 l 1,43,-1
 634 68 l 1,40,-1
634 919 m 1,44,-1
 634 1048 l 1,45,-1
 764 1048 l 1,46,-1
 764 919 l 1,47,-1
 634 919 l 1,44,-1
66 919 m 1,48,-1
 66 1048 l 1,49,-1
 196 1048 l 1,50,-1
 196 919 l 1,51,-1
 66 919 l 1,48,-1
634 210 m 1,52,-1
 634 339 l 1,53,-1
 764 339 l 1,54,-1
 764 210 l 1,55,-1
 634 210 l 1,52,-1
634 352 m 1,56,-1
 634 481 l 1,57,-1
 764 481 l 1,58,-1
 764 352 l 1,59,-1
 634 352 l 1,56,-1
634 493 m 1,60,-1
 634 622 l 1,61,-1
 764 622 l 1,62,-1
 764 493 l 1,63,-1
 634 493 l 1,60,-1
634 635 m 1,64,-1
 634 764 l 1,65,-1
 764 764 l 1,66,-1
 764 635 l 1,67,-1
 634 635 l 1,64,-1
634 777 m 1,68,-1
 634 906 l 1,69,-1
 764 906 l 1,70,-1
 764 777 l 1,71,-1
 634 777 l 1,68,-1
EndSplineSet
Validated: 1
EndChar

StartChar: N
Encoding: 78 78 49
Width: 801
Flags: W
LayerCount: 2
Fore
SplineSet
66 210 m 1,0,-1
 66 339 l 1,1,-1
 196 339 l 1,2,-1
 196 210 l 1,3,-1
 66 210 l 1,0,-1
66 351 m 1,4,-1
 66 480 l 1,5,-1
 196 480 l 1,6,-1
 196 351 l 1,7,-1
 66 351 l 1,4,-1
66 493 m 1,8,-1
 66 622 l 1,9,-1
 196 622 l 1,10,-1
 196 493 l 1,11,-1
 66 493 l 1,8,-1
66 635 m 1,12,-1
 66 764 l 1,13,-1
 196 764 l 1,14,-1
 196 635 l 1,15,-1
 66 635 l 1,12,-1
66 777 m 1,16,-1
 66 906 l 1,17,-1
 196 906 l 1,18,-1
 196 777 l 1,19,-1
 66 777 l 1,16,-1
492 351 m 1,20,-1
 492 480 l 1,21,-1
 621 480 l 1,22,-1
 621 351 l 1,23,-1
 492 351 l 1,20,-1
351 493 m 1,24,-1
 351 622 l 1,25,-1
 479 622 l 1,26,-1
 479 493 l 1,27,-1
 351 493 l 1,24,-1
209 635 m 1,28,-1
 209 764 l 1,29,-1
 338 764 l 1,30,-1
 338 635 l 1,31,-1
 209 635 l 1,28,-1
66 68 m 1,32,-1
 66 196 l 1,33,-1
 196 196 l 1,34,-1
 196 68 l 1,35,-1
 66 68 l 1,32,-1
634 68 m 1,36,-1
 634 196 l 1,37,-1
 764 196 l 1,38,-1
 764 68 l 1,39,-1
 634 68 l 1,36,-1
634 919 m 1,40,-1
 634 1048 l 1,41,-1
 764 1048 l 1,42,-1
 764 919 l 1,43,-1
 634 919 l 1,40,-1
66 919 m 1,44,-1
 66 1048 l 1,45,-1
 196 1048 l 1,46,-1
 196 919 l 1,47,-1
 66 919 l 1,44,-1
634 210 m 1,48,-1
 634 339 l 1,49,-1
 764 339 l 1,50,-1
 764 210 l 1,51,-1
 634 210 l 1,48,-1
634 352 m 1,52,-1
 634 481 l 1,53,-1
 764 481 l 1,54,-1
 764 352 l 1,55,-1
 634 352 l 1,52,-1
634 493 m 1,56,-1
 634 622 l 1,57,-1
 764 622 l 1,58,-1
 764 493 l 1,59,-1
 634 493 l 1,56,-1
634 635 m 1,60,-1
 634 764 l 1,61,-1
 764 764 l 1,62,-1
 764 635 l 1,63,-1
 634 635 l 1,60,-1
634 777 m 1,64,-1
 634 906 l 1,65,-1
 764 906 l 1,66,-1
 764 777 l 1,67,-1
 634 777 l 1,64,-1
EndSplineSet
Validated: 1
EndChar

StartChar: O
Encoding: 79 79 50
Width: 801
Flags: W
LayerCount: 2
Fore
SplineSet
66 210 m 1,0,-1
 66 339 l 1,1,-1
 196 339 l 1,2,-1
 196 210 l 1,3,-1
 66 210 l 1,0,-1
66 351 m 1,4,-1
 66 480 l 1,5,-1
 196 480 l 1,6,-1
 196 351 l 1,7,-1
 66 351 l 1,4,-1
66 493 m 1,8,-1
 66 622 l 1,9,-1
 196 622 l 1,10,-1
 196 493 l 1,11,-1
 66 493 l 1,8,-1
66 635 m 1,12,-1
 66 764 l 1,13,-1
 196 764 l 1,14,-1
 196 635 l 1,15,-1
 66 635 l 1,12,-1
66 777 m 1,16,-1
 66 906 l 1,17,-1
 196 906 l 1,18,-1
 196 777 l 1,19,-1
 66 777 l 1,16,-1
209 68 m 1,20,-1
 209 196 l 1,21,-1
 338 196 l 1,22,-1
 338 68 l 1,23,-1
 209 68 l 1,20,-1
351 68 m 1,24,-1
 351 196 l 1,25,-1
 479 196 l 1,26,-1
 479 68 l 1,27,-1
 351 68 l 1,24,-1
492 68 m 1,28,-1
 492 196 l 1,29,-1
 621 196 l 1,30,-1
 621 68 l 1,31,-1
 492 68 l 1,28,-1
634 210 m 1,32,-1
 634 339 l 1,33,-1
 764 339 l 1,34,-1
 764 210 l 1,35,-1
 634 210 l 1,32,-1
634 352 m 1,36,-1
 634 481 l 1,37,-1
 764 481 l 1,38,-1
 764 352 l 1,39,-1
 634 352 l 1,36,-1
634 493 m 1,40,-1
 634 622 l 1,41,-1
 764 622 l 1,42,-1
 764 493 l 1,43,-1
 634 493 l 1,40,-1
634 635 m 1,44,-1
 634 764 l 1,45,-1
 764 764 l 1,46,-1
 764 635 l 1,47,-1
 634 635 l 1,44,-1
634 777 m 1,48,-1
 634 906 l 1,49,-1
 764 906 l 1,50,-1
 764 777 l 1,51,-1
 634 777 l 1,48,-1
209 919 m 1,52,-1
 209 1048 l 1,53,-1
 338 1048 l 1,54,-1
 338 919 l 1,55,-1
 209 919 l 1,52,-1
351 919 m 1,56,-1
 351 1048 l 1,57,-1
 479 1048 l 1,58,-1
 479 919 l 1,59,-1
 351 919 l 1,56,-1
492 919 m 1,60,-1
 492 1048 l 1,61,-1
 621 1048 l 1,62,-1
 621 919 l 1,63,-1
 492 919 l 1,60,-1
EndSplineSet
Validated: 1
EndChar

StartChar: P
Encoding: 80 80 51
Width: 801
Flags: W
LayerCount: 2
Fore
SplineSet
66 210 m 1,0,-1
 66 339 l 1,1,-1
 196 339 l 1,2,-1
 196 210 l 1,3,-1
 66 210 l 1,0,-1
66 351 m 1,4,-1
 66 480 l 1,5,-1
 196 480 l 1,6,-1
 196 351 l 1,7,-1
 66 351 l 1,4,-1
66 493 m 1,8,-1
 66 622 l 1,9,-1
 196 622 l 1,10,-1
 196 493 l 1,11,-1
 66 493 l 1,8,-1
66 635 m 1,12,-1
 66 764 l 1,13,-1
 196 764 l 1,14,-1
 196 635 l 1,15,-1
 66 635 l 1,12,-1
66 777 m 1,16,-1
 66 906 l 1,17,-1
 196 906 l 1,18,-1
 196 777 l 1,19,-1
 66 777 l 1,16,-1
209 493 m 1,20,-1
 209 622 l 1,21,-1
 338 622 l 1,22,-1
 338 493 l 1,23,-1
 209 493 l 1,20,-1
351 493 m 1,24,-1
 351 622 l 1,25,-1
 479 622 l 1,26,-1
 479 493 l 1,27,-1
 351 493 l 1,24,-1
492 493 m 1,28,-1
 492 622 l 1,29,-1
 621 622 l 1,30,-1
 621 493 l 1,31,-1
 492 493 l 1,28,-1
66 68 m 1,32,-1
 66 196 l 1,33,-1
 196 196 l 1,34,-1
 196 68 l 1,35,-1
 66 68 l 1,32,-1
66 919 m 1,36,-1
 66 1048 l 1,37,-1
 196 1048 l 1,38,-1
 196 919 l 1,39,-1
 66 919 l 1,36,-1
634 635 m 1,40,-1
 634 764 l 1,41,-1
 764 764 l 1,42,-1
 764 635 l 1,43,-1
 634 635 l 1,40,-1
634 777 m 1,44,-1
 634 906 l 1,45,-1
 764 906 l 1,46,-1
 764 777 l 1,47,-1
 634 777 l 1,44,-1
209 919 m 1,48,-1
 209 1048 l 1,49,-1
 338 1048 l 1,50,-1
 338 919 l 1,51,-1
 209 919 l 1,48,-1
351 919 m 1,52,-1
 351 1048 l 1,53,-1
 479 1048 l 1,54,-1
 479 919 l 1,55,-1
 351 919 l 1,52,-1
492 919 m 1,56,-1
 492 1048 l 1,57,-1
 621 1048 l 1,58,-1
 621 919 l 1,59,-1
 492 919 l 1,56,-1
EndSplineSet
Validated: 1
EndChar

StartChar: Q
Encoding: 81 81 52
Width: 801
Flags: W
LayerCount: 2
Fore
SplineSet
66 210 m 1,0,-1
 66 339 l 1,1,-1
 196 339 l 1,2,-1
 196 210 l 1,3,-1
 66 210 l 1,0,-1
66 351 m 1,4,-1
 66 480 l 1,5,-1
 196 480 l 1,6,-1
 196 351 l 1,7,-1
 66 351 l 1,4,-1
66 493 m 1,8,-1
 66 622 l 1,9,-1
 196 622 l 1,10,-1
 196 493 l 1,11,-1
 66 493 l 1,8,-1
66 635 m 1,12,-1
 66 764 l 1,13,-1
 196 764 l 1,14,-1
 196 635 l 1,15,-1
 66 635 l 1,12,-1
66 777 m 1,16,-1
 66 906 l 1,17,-1
 196 906 l 1,18,-1
 196 777 l 1,19,-1
 66 777 l 1,16,-1
492 210 m 1,20,-1
 492 339 l 1,21,-1
 621 339 l 1,22,-1
 621 210 l 1,23,-1
 492 210 l 1,20,-1
351 351 m 1,24,-1
 351 480 l 1,25,-1
 479 480 l 1,26,-1
 479 351 l 1,27,-1
 351 351 l 1,24,-1
634 68 m 1,28,-1
 634 196 l 1,29,-1
 764 196 l 1,30,-1
 764 68 l 1,31,-1
 634 68 l 1,28,-1
209 68 m 1,32,-1
 209 196 l 1,33,-1
 338 196 l 1,34,-1
 338 68 l 1,35,-1
 209 68 l 1,32,-1
351 68 m 1,36,-1
 351 196 l 1,37,-1
 479 196 l 1,38,-1
 479 68 l 1,39,-1
 351 68 l 1,36,-1
634 352 m 1,40,-1
 634 481 l 1,41,-1
 764 481 l 1,42,-1
 764 352 l 1,43,-1
 634 352 l 1,40,-1
634 493 m 1,44,-1
 634 622 l 1,45,-1
 764 622 l 1,46,-1
 764 493 l 1,47,-1
 634 493 l 1,44,-1
634 635 m 1,48,-1
 634 764 l 1,49,-1
 764 764 l 1,50,-1
 764 635 l 1,51,-1
 634 635 l 1,48,-1
634 777 m 1,52,-1
 634 906 l 1,53,-1
 764 906 l 1,54,-1
 764 777 l 1,55,-1
 634 777 l 1,52,-1
209 919 m 1,56,-1
 209 1048 l 1,57,-1
 338 1048 l 1,58,-1
 338 919 l 1,59,-1
 209 919 l 1,56,-1
351 919 m 1,60,-1
 351 1048 l 1,61,-1
 479 1048 l 1,62,-1
 479 919 l 1,63,-1
 351 919 l 1,60,-1
492 919 m 1,64,-1
 492 1048 l 1,65,-1
 621 1048 l 1,66,-1
 621 919 l 1,67,-1
 492 919 l 1,64,-1
EndSplineSet
Validated: 1
EndChar

StartChar: R
Encoding: 82 82 53
Width: 801
Flags: W
LayerCount: 2
Fore
SplineSet
66 210 m 1,0,-1
 66 339 l 1,1,-1
 196 339 l 1,2,-1
 196 210 l 1,3,-1
 66 210 l 1,0,-1
66 351 m 1,4,-1
 66 480 l 1,5,-1
 196 480 l 1,6,-1
 196 351 l 1,7,-1
 66 351 l 1,4,-1
66 493 m 1,8,-1
 66 622 l 1,9,-1
 196 622 l 1,10,-1
 196 493 l 1,11,-1
 66 493 l 1,8,-1
66 635 m 1,12,-1
 66 764 l 1,13,-1
 196 764 l 1,14,-1
 196 635 l 1,15,-1
 66 635 l 1,12,-1
66 777 m 1,16,-1
 66 906 l 1,17,-1
 196 906 l 1,18,-1
 196 777 l 1,19,-1
 66 777 l 1,16,-1
492 210 m 1,20,-1
 492 339 l 1,21,-1
 621 339 l 1,22,-1
 621 210 l 1,23,-1
 492 210 l 1,20,-1
351 351 m 1,24,-1
 351 480 l 1,25,-1
 479 480 l 1,26,-1
 479 351 l 1,27,-1
 351 351 l 1,24,-1
209 493 m 1,28,-1
 209 622 l 1,29,-1
 338 622 l 1,30,-1
 338 493 l 1,31,-1
 209 493 l 1,28,-1
351 493 m 1,32,-1
 351 622 l 1,33,-1
 479 622 l 1,34,-1
 479 493 l 1,35,-1
 351 493 l 1,32,-1
492 493 m 1,36,-1
 492 622 l 1,37,-1
 621 622 l 1,38,-1
 621 493 l 1,39,-1
 492 493 l 1,36,-1
66 68 m 1,40,-1
 66 196 l 1,41,-1
 196 196 l 1,42,-1
 196 68 l 1,43,-1
 66 68 l 1,40,-1
634 68 m 1,44,-1
 634 196 l 1,45,-1
 764 196 l 1,46,-1
 764 68 l 1,47,-1
 634 68 l 1,44,-1
66 919 m 1,48,-1
 66 1048 l 1,49,-1
 196 1048 l 1,50,-1
 196 919 l 1,51,-1
 66 919 l 1,48,-1
634 635 m 1,52,-1
 634 764 l 1,53,-1
 764 764 l 1,54,-1
 764 635 l 1,55,-1
 634 635 l 1,52,-1
634 777 m 1,56,-1
 634 906 l 1,57,-1
 764 906 l 1,58,-1
 764 777 l 1,59,-1
 634 777 l 1,56,-1
209 919 m 1,60,-1
 209 1048 l 1,61,-1
 338 1048 l 1,62,-1
 338 919 l 1,63,-1
 209 919 l 1,60,-1
351 919 m 1,64,-1
 351 1048 l 1,65,-1
 479 1048 l 1,66,-1
 479 919 l 1,67,-1
 351 919 l 1,64,-1
492 919 m 1,68,-1
 492 1048 l 1,69,-1
 621 1048 l 1,70,-1
 621 919 l 1,71,-1
 492 919 l 1,68,-1
EndSplineSet
Validated: 1
EndChar

StartChar: S
Encoding: 83 83 54
Width: 801
Flags: W
LayerCount: 2
Fore
SplineSet
66 635 m 1,0,-1
 66 764 l 1,1,-1
 196 764 l 1,2,-1
 196 635 l 1,3,-1
 66 635 l 1,0,-1
66 777 m 1,4,-1
 66 906 l 1,5,-1
 196 906 l 1,6,-1
 196 777 l 1,7,-1
 66 777 l 1,4,-1
209 493 m 1,8,-1
 209 622 l 1,9,-1
 338 622 l 1,10,-1
 338 493 l 1,11,-1
 209 493 l 1,8,-1
351 493 m 1,12,-1
 351 622 l 1,13,-1
 479 622 l 1,14,-1
 479 493 l 1,15,-1
 351 493 l 1,12,-1
492 493 m 1,16,-1
 492 622 l 1,17,-1
 621 622 l 1,18,-1
 621 493 l 1,19,-1
 492 493 l 1,16,-1
66 68 m 1,20,-1
 66 196 l 1,21,-1
 196 196 l 1,22,-1
 196 68 l 1,23,-1
 66 68 l 1,20,-1
634 919 m 1,24,-1
 634 1048 l 1,25,-1
 764 1048 l 1,26,-1
 764 919 l 1,27,-1
 634 919 l 1,24,-1
209 68 m 1,28,-1
 209 196 l 1,29,-1
 338 196 l 1,30,-1
 338 68 l 1,31,-1
 209 68 l 1,28,-1
351 68 m 1,32,-1
 351 196 l 1,33,-1
 479 196 l 1,34,-1
 479 68 l 1,35,-1
 351 68 l 1,32,-1
492 68 m 1,36,-1
 492 196 l 1,37,-1
 621 196 l 1,38,-1
 621 68 l 1,39,-1
 492 68 l 1,36,-1
634 210 m 1,40,-1
 634 339 l 1,41,-1
 764 339 l 1,42,-1
 764 210 l 1,43,-1
 634 210 l 1,40,-1
634 352 m 1,44,-1
 634 481 l 1,45,-1
 764 481 l 1,46,-1
 764 352 l 1,47,-1
 634 352 l 1,44,-1
209 919 m 1,48,-1
 209 1048 l 1,49,-1
 338 1048 l 1,50,-1
 338 919 l 1,51,-1
 209 919 l 1,48,-1
351 919 m 1,52,-1
 351 1048 l 1,53,-1
 479 1048 l 1,54,-1
 479 919 l 1,55,-1
 351 919 l 1,52,-1
492 919 m 1,56,-1
 492 1048 l 1,57,-1
 621 1048 l 1,58,-1
 621 919 l 1,59,-1
 492 919 l 1,56,-1
EndSplineSet
Validated: 1
EndChar

StartChar: T
Encoding: 84 84 55
Width: 801
Flags: W
LayerCount: 2
Fore
SplineSet
351 210 m 1,0,-1
 351 339 l 1,1,-1
 479 339 l 1,2,-1
 479 210 l 1,3,-1
 351 210 l 1,0,-1
351 351 m 1,4,-1
 351 480 l 1,5,-1
 479 480 l 1,6,-1
 479 351 l 1,7,-1
 351 351 l 1,4,-1
351 493 m 1,8,-1
 351 622 l 1,9,-1
 479 622 l 1,10,-1
 479 493 l 1,11,-1
 351 493 l 1,8,-1
351 635 m 1,12,-1
 351 764 l 1,13,-1
 479 764 l 1,14,-1
 479 635 l 1,15,-1
 351 635 l 1,12,-1
351 777 m 1,16,-1
 351 906 l 1,17,-1
 479 906 l 1,18,-1
 479 777 l 1,19,-1
 351 777 l 1,16,-1
634 919 m 1,20,-1
 634 1048 l 1,21,-1
 764 1048 l 1,22,-1
 764 919 l 1,23,-1
 634 919 l 1,20,-1
66 919 m 1,24,-1
 66 1048 l 1,25,-1
 196 1048 l 1,26,-1
 196 919 l 1,27,-1
 66 919 l 1,24,-1
351 68 m 1,28,-1
 351 196 l 1,29,-1
 479 196 l 1,30,-1
 479 68 l 1,31,-1
 351 68 l 1,28,-1
209 919 m 1,32,-1
 209 1048 l 1,33,-1
 338 1048 l 1,34,-1
 338 919 l 1,35,-1
 209 919 l 1,32,-1
351 919 m 1,36,-1
 351 1048 l 1,37,-1
 479 1048 l 1,38,-1
 479 919 l 1,39,-1
 351 919 l 1,36,-1
492 919 m 1,40,-1
 492 1048 l 1,41,-1
 621 1048 l 1,42,-1
 621 919 l 1,43,-1
 492 919 l 1,40,-1
EndSplineSet
Validated: 1
EndChar

StartChar: U
Encoding: 85 85 56
Width: 801
Flags: W
LayerCount: 2
Fore
SplineSet
66 210 m 1,0,-1
 66 339 l 1,1,-1
 196 339 l 1,2,-1
 196 210 l 1,3,-1
 66 210 l 1,0,-1
66 351 m 1,4,-1
 66 480 l 1,5,-1
 196 480 l 1,6,-1
 196 351 l 1,7,-1
 66 351 l 1,4,-1
66 493 m 1,8,-1
 66 622 l 1,9,-1
 196 622 l 1,10,-1
 196 493 l 1,11,-1
 66 493 l 1,8,-1
66 635 m 1,12,-1
 66 764 l 1,13,-1
 196 764 l 1,14,-1
 196 635 l 1,15,-1
 66 635 l 1,12,-1
66 777 m 1,16,-1
 66 906 l 1,17,-1
 196 906 l 1,18,-1
 196 777 l 1,19,-1
 66 777 l 1,16,-1
634 919 m 1,20,-1
 634 1048 l 1,21,-1
 764 1048 l 1,22,-1
 764 919 l 1,23,-1
 634 919 l 1,20,-1
66 919 m 1,24,-1
 66 1048 l 1,25,-1
 196 1048 l 1,26,-1
 196 919 l 1,27,-1
 66 919 l 1,24,-1
209 68 m 1,28,-1
 209 196 l 1,29,-1
 338 196 l 1,30,-1
 338 68 l 1,31,-1
 209 68 l 1,28,-1
351 68 m 1,32,-1
 351 196 l 1,33,-1
 479 196 l 1,34,-1
 479 68 l 1,35,-1
 351 68 l 1,32,-1
492 68 m 1,36,-1
 492 196 l 1,37,-1
 621 196 l 1,38,-1
 621 68 l 1,39,-1
 492 68 l 1,36,-1
634 210 m 1,40,-1
 634 339 l 1,41,-1
 764 339 l 1,42,-1
 764 210 l 1,43,-1
 634 210 l 1,40,-1
634 352 m 1,44,-1
 634 481 l 1,45,-1
 764 481 l 1,46,-1
 764 352 l 1,47,-1
 634 352 l 1,44,-1
634 493 m 1,48,-1
 634 622 l 1,49,-1
 764 622 l 1,50,-1
 764 493 l 1,51,-1
 634 493 l 1,48,-1
634 635 m 1,52,-1
 634 764 l 1,53,-1
 764 764 l 1,54,-1
 764 635 l 1,55,-1
 634 635 l 1,52,-1
634 777 m 1,56,-1
 634 906 l 1,57,-1
 764 906 l 1,58,-1
 764 777 l 1,59,-1
 634 777 l 1,56,-1
EndSplineSet
Validated: 1
EndChar

StartChar: V
Encoding: 86 86 57
Width: 801
Flags: W
LayerCount: 2
Fore
SplineSet
66 351 m 1,0,-1
 66 480 l 1,1,-1
 196 480 l 1,2,-1
 196 351 l 1,3,-1
 66 351 l 1,0,-1
66 493 m 1,4,-1
 66 622 l 1,5,-1
 196 622 l 1,6,-1
 196 493 l 1,7,-1
 66 493 l 1,4,-1
66 635 m 1,8,-1
 66 764 l 1,9,-1
 196 764 l 1,10,-1
 196 635 l 1,11,-1
 66 635 l 1,8,-1
66 777 m 1,12,-1
 66 906 l 1,13,-1
 196 906 l 1,14,-1
 196 777 l 1,15,-1
 66 777 l 1,12,-1
209 210 m 1,16,-1
 209 339 l 1,17,-1
 338 339 l 1,18,-1
 338 210 l 1,19,-1
 209 210 l 1,16,-1
492 210 m 1,20,-1
 492 339 l 1,21,-1
 621 339 l 1,22,-1
 621 210 l 1,23,-1
 492 210 l 1,20,-1
634 919 m 1,24,-1
 634 1048 l 1,25,-1
 764 1048 l 1,26,-1
 764 919 l 1,27,-1
 634 919 l 1,24,-1
66 919 m 1,28,-1
 66 1048 l 1,29,-1
 196 1048 l 1,30,-1
 196 919 l 1,31,-1
 66 919 l 1,28,-1
351 68 m 1,32,-1
 351 196 l 1,33,-1
 479 196 l 1,34,-1
 479 68 l 1,35,-1
 351 68 l 1,32,-1
634 352 m 1,36,-1
 634 481 l 1,37,-1
 764 481 l 1,38,-1
 764 352 l 1,39,-1
 634 352 l 1,36,-1
634 493 m 1,40,-1
 634 622 l 1,41,-1
 764 622 l 1,42,-1
 764 493 l 1,43,-1
 634 493 l 1,40,-1
634 635 m 1,44,-1
 634 764 l 1,45,-1
 764 764 l 1,46,-1
 764 635 l 1,47,-1
 634 635 l 1,44,-1
634 777 m 1,48,-1
 634 906 l 1,49,-1
 764 906 l 1,50,-1
 764 777 l 1,51,-1
 634 777 l 1,48,-1
EndSplineSet
Validated: 1
EndChar

StartChar: W
Encoding: 87 87 58
Width: 801
Flags: W
LayerCount: 2
Fore
SplineSet
66 210 m 1,0,-1
 66 339 l 1,1,-1
 196 339 l 1,2,-1
 196 210 l 1,3,-1
 66 210 l 1,0,-1
66 351 m 1,4,-1
 66 480 l 1,5,-1
 196 480 l 1,6,-1
 196 351 l 1,7,-1
 66 351 l 1,4,-1
66 493 m 1,8,-1
 66 622 l 1,9,-1
 196 622 l 1,10,-1
 196 493 l 1,11,-1
 66 493 l 1,8,-1
66 635 m 1,12,-1
 66 764 l 1,13,-1
 196 764 l 1,14,-1
 196 635 l 1,15,-1
 66 635 l 1,12,-1
66 777 m 1,16,-1
 66 906 l 1,17,-1
 196 906 l 1,18,-1
 196 777 l 1,19,-1
 66 777 l 1,16,-1
351 210 m 1,20,-1
 351 339 l 1,21,-1
 479 339 l 1,22,-1
 479 210 l 1,23,-1
 351 210 l 1,20,-1
351 351 m 1,24,-1
 351 480 l 1,25,-1
 479 480 l 1,26,-1
 479 351 l 1,27,-1
 351 351 l 1,24,-1
351 493 m 1,28,-1
 351 622 l 1,29,-1
 479 622 l 1,30,-1
 479 493 l 1,31,-1
 351 493 l 1,28,-1
634 919 m 1,32,-1
 634 1048 l 1,33,-1
 764 1048 l 1,34,-1
 764 919 l 1,35,-1
 634 919 l 1,32,-1
66 919 m 1,36,-1
 66 1048 l 1,37,-1
 196 1048 l 1,38,-1
 196 919 l 1,39,-1
 66 919 l 1,36,-1
209 68 m 1,40,-1
 209 196 l 1,41,-1
 338 196 l 1,42,-1
 338 68 l 1,43,-1
 209 68 l 1,40,-1
492 68 m 1,44,-1
 492 196 l 1,45,-1
 621 196 l 1,46,-1
 621 68 l 1,47,-1
 492 68 l 1,44,-1
634 210 m 1,48,-1
 634 339 l 1,49,-1
 764 339 l 1,50,-1
 764 210 l 1,51,-1
 634 210 l 1,48,-1
634 352 m 1,52,-1
 634 481 l 1,53,-1
 764 481 l 1,54,-1
 764 352 l 1,55,-1
 634 352 l 1,52,-1
634 493 m 1,56,-1
 634 622 l 1,57,-1
 764 622 l 1,58,-1
 764 493 l 1,59,-1
 634 493 l 1,56,-1
634 635 m 1,60,-1
 634 764 l 1,61,-1
 764 764 l 1,62,-1
 764 635 l 1,63,-1
 634 635 l 1,60,-1
634 777 m 1,64,-1
 634 906 l 1,65,-1
 764 906 l 1,66,-1
 764 777 l 1,67,-1
 634 777 l 1,64,-1
EndSplineSet
Validated: 1
EndChar

StartChar: X
Encoding: 88 88 59
Width: 801
Flags: W
LayerCount: 2
Fore
SplineSet
66 210 m 1,0,-1
 66 339 l 1,1,-1
 196 339 l 1,2,-1
 196 210 l 1,3,-1
 66 210 l 1,0,-1
66 777 m 1,4,-1
 66 906 l 1,5,-1
 196 906 l 1,6,-1
 196 777 l 1,7,-1
 66 777 l 1,4,-1
209 351 m 1,8,-1
 209 480 l 1,9,-1
 338 480 l 1,10,-1
 338 351 l 1,11,-1
 209 351 l 1,8,-1
492 351 m 1,12,-1
 492 480 l 1,13,-1
 621 480 l 1,14,-1
 621 351 l 1,15,-1
 492 351 l 1,12,-1
351 493 m 1,16,-1
 351 622 l 1,17,-1
 479 622 l 1,18,-1
 479 493 l 1,19,-1
 351 493 l 1,16,-1
209 635 m 1,20,-1
 209 764 l 1,21,-1
 338 764 l 1,22,-1
 338 635 l 1,23,-1
 209 635 l 1,20,-1
492 635 m 1,24,-1
 492 764 l 1,25,-1
 621 764 l 1,26,-1
 621 635 l 1,27,-1
 492 635 l 1,24,-1
66 68 m 1,28,-1
 66 196 l 1,29,-1
 196 196 l 1,30,-1
 196 68 l 1,31,-1
 66 68 l 1,28,-1
634 68 m 1,32,-1
 634 196 l 1,33,-1
 764 196 l 1,34,-1
 764 68 l 1,35,-1
 634 68 l 1,32,-1
634 919 m 1,36,-1
 634 1048 l 1,37,-1
 764 1048 l 1,38,-1
 764 919 l 1,39,-1
 634 919 l 1,36,-1
66 919 m 1,40,-1
 66 1048 l 1,41,-1
 196 1048 l 1,42,-1
 196 919 l 1,43,-1
 66 919 l 1,40,-1
634 210 m 1,44,-1
 634 339 l 1,45,-1
 764 339 l 1,46,-1
 764 210 l 1,47,-1
 634 210 l 1,44,-1
634 777 m 1,48,-1
 634 906 l 1,49,-1
 764 906 l 1,50,-1
 764 777 l 1,51,-1
 634 777 l 1,48,-1
EndSplineSet
Validated: 1
EndChar

StartChar: Y
Encoding: 89 89 60
Width: 801
Flags: W
LayerCount: 2
Fore
SplineSet
66 635 m 1,0,-1
 66 764 l 1,1,-1
 196 764 l 1,2,-1
 196 635 l 1,3,-1
 66 635 l 1,0,-1
66 777 m 1,4,-1
 66 906 l 1,5,-1
 196 906 l 1,6,-1
 196 777 l 1,7,-1
 66 777 l 1,4,-1
351 210 m 1,8,-1
 351 339 l 1,9,-1
 479 339 l 1,10,-1
 479 210 l 1,11,-1
 351 210 l 1,8,-1
351 351 m 1,12,-1
 351 480 l 1,13,-1
 479 480 l 1,14,-1
 479 351 l 1,15,-1
 351 351 l 1,12,-1
209 493 m 1,16,-1
 209 622 l 1,17,-1
 338 622 l 1,18,-1
 338 493 l 1,19,-1
 209 493 l 1,16,-1
492 493 m 1,20,-1
 492 622 l 1,21,-1
 621 622 l 1,22,-1
 621 493 l 1,23,-1
 492 493 l 1,20,-1
634 919 m 1,24,-1
 634 1048 l 1,25,-1
 764 1048 l 1,26,-1
 764 919 l 1,27,-1
 634 919 l 1,24,-1
66 919 m 1,28,-1
 66 1048 l 1,29,-1
 196 1048 l 1,30,-1
 196 919 l 1,31,-1
 66 919 l 1,28,-1
351 68 m 1,32,-1
 351 196 l 1,33,-1
 479 196 l 1,34,-1
 479 68 l 1,35,-1
 351 68 l 1,32,-1
634 635 m 1,36,-1
 634 764 l 1,37,-1
 764 764 l 1,38,-1
 764 635 l 1,39,-1
 634 635 l 1,36,-1
634 777 m 1,40,-1
 634 906 l 1,41,-1
 764 906 l 1,42,-1
 764 777 l 1,43,-1
 634 777 l 1,40,-1
EndSplineSet
Validated: 1
EndChar

StartChar: Z
Encoding: 90 90 61
Width: 801
Flags: W
LayerCount: 2
Fore
SplineSet
66 210 m 1,0,-1
 66 339 l 1,1,-1
 196 339 l 1,2,-1
 196 210 l 1,3,-1
 66 210 l 1,0,-1
209 351 m 1,4,-1
 209 480 l 1,5,-1
 338 480 l 1,6,-1
 338 351 l 1,7,-1
 209 351 l 1,4,-1
351 493 m 1,8,-1
 351 622 l 1,9,-1
 479 622 l 1,10,-1
 479 493 l 1,11,-1
 351 493 l 1,8,-1
492 635 m 1,12,-1
 492 764 l 1,13,-1
 621 764 l 1,14,-1
 621 635 l 1,15,-1
 492 635 l 1,12,-1
66 68 m 1,16,-1
 66 196 l 1,17,-1
 196 196 l 1,18,-1
 196 68 l 1,19,-1
 66 68 l 1,16,-1
634 68 m 1,20,-1
 634 196 l 1,21,-1
 764 196 l 1,22,-1
 764 68 l 1,23,-1
 634 68 l 1,20,-1
634 919 m 1,24,-1
 634 1048 l 1,25,-1
 764 1048 l 1,26,-1
 764 919 l 1,27,-1
 634 919 l 1,24,-1
66 919 m 1,28,-1
 66 1048 l 1,29,-1
 196 1048 l 1,30,-1
 196 919 l 1,31,-1
 66 919 l 1,28,-1
209 68 m 1,32,-1
 209 196 l 1,33,-1
 338 196 l 1,34,-1
 338 68 l 1,35,-1
 209 68 l 1,32,-1
351 68 m 1,36,-1
 351 196 l 1,37,-1
 479 196 l 1,38,-1
 479 68 l 1,39,-1
 351 68 l 1,36,-1
492 68 m 1,40,-1
 492 196 l 1,41,-1
 621 196 l 1,42,-1
 621 68 l 1,43,-1
 492 68 l 1,40,-1
634 777 m 1,44,-1
 634 906 l 1,45,-1
 764 906 l 1,46,-1
 764 777 l 1,47,-1
 634 777 l 1,44,-1
209 919 m 1,48,-1
 209 1048 l 1,49,-1
 338 1048 l 1,50,-1
 338 919 l 1,51,-1
 209 919 l 1,48,-1
351 919 m 1,52,-1
 351 1048 l 1,53,-1
 479 1048 l 1,54,-1
 479 919 l 1,55,-1
 351 919 l 1,52,-1
492 919 m 1,56,-1
 492 1048 l 1,57,-1
 621 1048 l 1,58,-1
 621 919 l 1,59,-1
 492 919 l 1,56,-1
EndSplineSet
Validated: 1
EndChar

StartChar: bracketleft
Encoding: 91 91 62
Width: 801
Flags: W
LayerCount: 2
Fore
SplineSet
209 210 m 1,0,-1
 209 339 l 1,1,-1
 338 339 l 1,2,-1
 338 210 l 1,3,-1
 209 210 l 1,0,-1
209 351 m 1,4,-1
 209 480 l 1,5,-1
 338 480 l 1,6,-1
 338 351 l 1,7,-1
 209 351 l 1,4,-1
209 493 m 1,8,-1
 209 622 l 1,9,-1
 338 622 l 1,10,-1
 338 493 l 1,11,-1
 209 493 l 1,8,-1
209 635 m 1,12,-1
 209 764 l 1,13,-1
 338 764 l 1,14,-1
 338 635 l 1,15,-1
 209 635 l 1,12,-1
209 777 m 1,16,-1
 209 906 l 1,17,-1
 338 906 l 1,18,-1
 338 777 l 1,19,-1
 209 777 l 1,16,-1
209 68 m 1,20,-1
 209 196 l 1,21,-1
 338 196 l 1,22,-1
 338 68 l 1,23,-1
 209 68 l 1,20,-1
351 68 m 1,24,-1
 351 196 l 1,25,-1
 479 196 l 1,26,-1
 479 68 l 1,27,-1
 351 68 l 1,24,-1
492 68 m 1,28,-1
 492 196 l 1,29,-1
 621 196 l 1,30,-1
 621 68 l 1,31,-1
 492 68 l 1,28,-1
209 919 m 1,32,-1
 209 1048 l 1,33,-1
 338 1048 l 1,34,-1
 338 919 l 1,35,-1
 209 919 l 1,32,-1
351 919 m 1,36,-1
 351 1048 l 1,37,-1
 479 1048 l 1,38,-1
 479 919 l 1,39,-1
 351 919 l 1,36,-1
492 919 m 1,40,-1
 492 1048 l 1,41,-1
 621 1048 l 1,42,-1
 621 919 l 1,43,-1
 492 919 l 1,40,-1
EndSplineSet
Validated: 1
EndChar

StartChar: bracketright
Encoding: 93 93 64
Width: 801
Flags: W
LayerCount: 2
Fore
SplineSet
492 210 m 1,0,-1
 492 339 l 1,1,-1
 621 339 l 1,2,-1
 621 210 l 1,3,-1
 492 210 l 1,0,-1
492 351 m 1,4,-1
 492 480 l 1,5,-1
 621 480 l 1,6,-1
 621 351 l 1,7,-1
 492 351 l 1,4,-1
492 493 m 1,8,-1
 492 622 l 1,9,-1
 621 622 l 1,10,-1
 621 493 l 1,11,-1
 492 493 l 1,8,-1
492 635 m 1,12,-1
 492 764 l 1,13,-1
 621 764 l 1,14,-1
 621 635 l 1,15,-1
 492 635 l 1,12,-1
492 777 m 1,16,-1
 492 906 l 1,17,-1
 621 906 l 1,18,-1
 621 777 l 1,19,-1
 492 777 l 1,16,-1
209 68 m 1,20,-1
 209 196 l 1,21,-1
 338 196 l 1,22,-1
 338 68 l 1,23,-1
 209 68 l 1,20,-1
351 68 m 1,24,-1
 351 196 l 1,25,-1
 479 196 l 1,26,-1
 479 68 l 1,27,-1
 351 68 l 1,24,-1
492 68 m 1,28,-1
 492 196 l 1,29,-1
 621 196 l 1,30,-1
 621 68 l 1,31,-1
 492 68 l 1,28,-1
209 919 m 1,32,-1
 209 1048 l 1,33,-1
 338 1048 l 1,34,-1
 338 919 l 1,35,-1
 209 919 l 1,32,-1
351 919 m 1,36,-1
 351 1048 l 1,37,-1
 479 1048 l 1,38,-1
 479 919 l 1,39,-1
 351 919 l 1,36,-1
492 919 m 1,40,-1
 492 1048 l 1,41,-1
 621 1048 l 1,42,-1
 621 919 l 1,43,-1
 492 919 l 1,40,-1
EndSplineSet
Validated: 1
EndChar

StartChar: asciicircum
Encoding: 94 94 65
Width: 801
Flags: W
LayerCount: 2
Fore
SplineSet
66 635 m 1,0,-1
 66 764 l 1,1,-1
 196 764 l 1,2,-1
 196 635 l 1,3,-1
 66 635 l 1,0,-1
209 777 m 1,4,-1
 209 906 l 1,5,-1
 338 906 l 1,6,-1
 338 777 l 1,7,-1
 209 777 l 1,4,-1
492 777 m 1,8,-1
 492 906 l 1,9,-1
 621 906 l 1,10,-1
 621 777 l 1,11,-1
 492 777 l 1,8,-1
634 635 m 1,12,-1
 634 764 l 1,13,-1
 764 764 l 1,14,-1
 764 635 l 1,15,-1
 634 635 l 1,12,-1
351 919 m 1,16,-1
 351 1048 l 1,17,-1
 479 1048 l 1,18,-1
 479 919 l 1,19,-1
 351 919 l 1,16,-1
EndSplineSet
Validated: 1
EndChar

StartChar: underscore
Encoding: 95 95 66
Width: 801
Flags: W
LayerCount: 2
Fore
SplineSet
66 68 m 1,0,-1
 66 196 l 1,1,-1
 196 196 l 1,2,-1
 196 68 l 1,3,-1
 66 68 l 1,0,-1
634 68 m 1,4,-1
 634 196 l 1,5,-1
 764 196 l 1,6,-1
 764 68 l 1,7,-1
 634 68 l 1,4,-1
209 68 m 1,8,-1
 209 196 l 1,9,-1
 338 196 l 1,10,-1
 338 68 l 1,11,-1
 209 68 l 1,8,-1
351 68 m 1,12,-1
 351 196 l 1,13,-1
 479 196 l 1,14,-1
 479 68 l 1,15,-1
 351 68 l 1,12,-1
492 68 m 1,16,-1
 492 196 l 1,17,-1
 621 196 l 1,18,-1
 621 68 l 1,19,-1
 492 68 l 1,16,-1
EndSplineSet
Validated: 1
EndChar

StartChar: grave
Encoding: 96 96 67
Width: 801
Flags: W
LayerCount: 2
Fore
SplineSet
492 635 m 1,0,-1
 492 764 l 1,1,-1
 621 764 l 1,2,-1
 621 635 l 1,3,-1
 492 635 l 1,0,-1
351 777 m 1,4,-1
 351 906 l 1,5,-1
 479 906 l 1,6,-1
 479 777 l 1,7,-1
 351 777 l 1,4,-1
209 919 m 1,8,-1
 209 1048 l 1,9,-1
 338 1048 l 1,10,-1
 338 919 l 1,11,-1
 209 919 l 1,8,-1
EndSplineSet
Validated: 1
EndChar

StartChar: a
Encoding: 97 97 68
Width: 801
Flags: W
LayerCount: 2
Fore
SplineSet
66 210 m 1,0,-1
 66 339 l 1,1,-1
 196 339 l 1,2,-1
 196 210 l 1,3,-1
 66 210 l 1,0,-1
209 351 m 1,4,-1
 209 480 l 1,5,-1
 338 480 l 1,6,-1
 338 351 l 1,7,-1
 209 351 l 1,4,-1
351 351 m 1,8,-1
 351 480 l 1,9,-1
 479 480 l 1,10,-1
 479 351 l 1,11,-1
 351 351 l 1,8,-1
492 351 m 1,12,-1
 492 480 l 1,13,-1
 621 480 l 1,14,-1
 621 351 l 1,15,-1
 492 351 l 1,12,-1
209 635 m 1,16,-1
 209 764 l 1,17,-1
 338 764 l 1,18,-1
 338 635 l 1,19,-1
 209 635 l 1,16,-1
351 635 m 1,20,-1
 351 764 l 1,21,-1
 479 764 l 1,22,-1
 479 635 l 1,23,-1
 351 635 l 1,20,-1
492 635 m 1,24,-1
 492 764 l 1,25,-1
 621 764 l 1,26,-1
 621 635 l 1,27,-1
 492 635 l 1,24,-1
634 68 m 1,28,-1
 634 196 l 1,29,-1
 764 196 l 1,30,-1
 764 68 l 1,31,-1
 634 68 l 1,28,-1
209 68 m 1,32,-1
 209 196 l 1,33,-1
 338 196 l 1,34,-1
 338 68 l 1,35,-1
 209 68 l 1,32,-1
351 68 m 1,36,-1
 351 196 l 1,37,-1
 479 196 l 1,38,-1
 479 68 l 1,39,-1
 351 68 l 1,36,-1
492 68 m 1,40,-1
 492 196 l 1,41,-1
 621 196 l 1,42,-1
 621 68 l 1,43,-1
 492 68 l 1,40,-1
634 210 m 1,44,-1
 634 339 l 1,45,-1
 764 339 l 1,46,-1
 764 210 l 1,47,-1
 634 210 l 1,44,-1
634 352 m 1,48,-1
 634 481 l 1,49,-1
 764 481 l 1,50,-1
 764 352 l 1,51,-1
 634 352 l 1,48,-1
634 493 m 1,52,-1
 634 622 l 1,53,-1
 764 622 l 1,54,-1
 764 493 l 1,55,-1
 634 493 l 1,52,-1
EndSplineSet
Validated: 1
EndChar

StartChar: b
Encoding: 98 98 69
Width: 801
Flags: W
LayerCount: 2
Fore
SplineSet
66 210 m 1,0,-1
 66 339 l 1,1,-1
 196 339 l 1,2,-1
 196 210 l 1,3,-1
 66 210 l 1,0,-1
66 351 m 1,4,-1
 66 480 l 1,5,-1
 196 480 l 1,6,-1
 196 351 l 1,7,-1
 66 351 l 1,4,-1
66 493 m 1,8,-1
 66 622 l 1,9,-1
 196 622 l 1,10,-1
 196 493 l 1,11,-1
 66 493 l 1,8,-1
66 635 m 1,12,-1
 66 764 l 1,13,-1
 196 764 l 1,14,-1
 196 635 l 1,15,-1
 66 635 l 1,12,-1
66 777 m 1,16,-1
 66 906 l 1,17,-1
 196 906 l 1,18,-1
 196 777 l 1,19,-1
 66 777 l 1,16,-1
209 493 m 1,20,-1
 209 622 l 1,21,-1
 338 622 l 1,22,-1
 338 493 l 1,23,-1
 209 493 l 1,20,-1
351 635 m 1,24,-1
 351 764 l 1,25,-1
 479 764 l 1,26,-1
 479 635 l 1,27,-1
 351 635 l 1,24,-1
492 635 m 1,28,-1
 492 764 l 1,29,-1
 621 764 l 1,30,-1
 621 635 l 1,31,-1
 492 635 l 1,28,-1
66 68 m 1,32,-1
 66 196 l 1,33,-1
 196 196 l 1,34,-1
 196 68 l 1,35,-1
 66 68 l 1,32,-1
66 919 m 1,36,-1
 66 1048 l 1,37,-1
 196 1048 l 1,38,-1
 196 919 l 1,39,-1
 66 919 l 1,36,-1
209 68 m 1,40,-1
 209 196 l 1,41,-1
 338 196 l 1,42,-1
 338 68 l 1,43,-1
 209 68 l 1,40,-1
351 68 m 1,44,-1
 351 196 l 1,45,-1
 479 196 l 1,46,-1
 479 68 l 1,47,-1
 351 68 l 1,44,-1
492 68 m 1,48,-1
 492 196 l 1,49,-1
 621 196 l 1,50,-1
 621 68 l 1,51,-1
 492 68 l 1,48,-1
634 210 m 1,52,-1
 634 339 l 1,53,-1
 764 339 l 1,54,-1
 764 210 l 1,55,-1
 634 210 l 1,52,-1
634 352 m 1,56,-1
 634 481 l 1,57,-1
 764 481 l 1,58,-1
 764 352 l 1,59,-1
 634 352 l 1,56,-1
634 493 m 1,60,-1
 634 622 l 1,61,-1
 764 622 l 1,62,-1
 764 493 l 1,63,-1
 634 493 l 1,60,-1
EndSplineSet
Validated: 1
EndChar

StartChar: c
Encoding: 99 99 70
Width: 801
Flags: W
LayerCount: 2
Fore
SplineSet
66 210 m 1,0,-1
 66 339 l 1,1,-1
 196 339 l 1,2,-1
 196 210 l 1,3,-1
 66 210 l 1,0,-1
66 351 m 1,4,-1
 66 480 l 1,5,-1
 196 480 l 1,6,-1
 196 351 l 1,7,-1
 66 351 l 1,4,-1
66 493 m 1,8,-1
 66 622 l 1,9,-1
 196 622 l 1,10,-1
 196 493 l 1,11,-1
 66 493 l 1,8,-1
209 635 m 1,12,-1
 209 764 l 1,13,-1
 338 764 l 1,14,-1
 338 635 l 1,15,-1
 209 635 l 1,12,-1
351 635 m 1,16,-1
 351 764 l 1,17,-1
 479 764 l 1,18,-1
 479 635 l 1,19,-1
 351 635 l 1,16,-1
492 635 m 1,20,-1
 492 764 l 1,21,-1
 621 764 l 1,22,-1
 621 635 l 1,23,-1
 492 635 l 1,20,-1
209 68 m 1,24,-1
 209 196 l 1,25,-1
 338 196 l 1,26,-1
 338 68 l 1,27,-1
 209 68 l 1,24,-1
351 68 m 1,28,-1
 351 196 l 1,29,-1
 479 196 l 1,30,-1
 479 68 l 1,31,-1
 351 68 l 1,28,-1
492 68 m 1,32,-1
 492 196 l 1,33,-1
 621 196 l 1,34,-1
 621 68 l 1,35,-1
 492 68 l 1,32,-1
634 210 m 1,36,-1
 634 339 l 1,37,-1
 764 339 l 1,38,-1
 764 210 l 1,39,-1
 634 210 l 1,36,-1
EndSplineSet
Validated: 1
EndChar

StartChar: d
Encoding: 100 100 71
Width: 801
Flags: W
LayerCount: 2
Fore
SplineSet
66 210 m 1,0,-1
 66 339 l 1,1,-1
 196 339 l 1,2,-1
 196 210 l 1,3,-1
 66 210 l 1,0,-1
66 351 m 1,4,-1
 66 480 l 1,5,-1
 196 480 l 1,6,-1
 196 351 l 1,7,-1
 66 351 l 1,4,-1
66 493 m 1,8,-1
 66 622 l 1,9,-1
 196 622 l 1,10,-1
 196 493 l 1,11,-1
 66 493 l 1,8,-1
492 493 m 1,12,-1
 492 622 l 1,13,-1
 621 622 l 1,14,-1
 621 493 l 1,15,-1
 492 493 l 1,12,-1
209 635 m 1,16,-1
 209 764 l 1,17,-1
 338 764 l 1,18,-1
 338 635 l 1,19,-1
 209 635 l 1,16,-1
351 635 m 1,20,-1
 351 764 l 1,21,-1
 479 764 l 1,22,-1
 479 635 l 1,23,-1
 351 635 l 1,20,-1
634 68 m 1,24,-1
 634 196 l 1,25,-1
 764 196 l 1,26,-1
 764 68 l 1,27,-1
 634 68 l 1,24,-1
634 919 m 1,28,-1
 634 1048 l 1,29,-1
 764 1048 l 1,30,-1
 764 919 l 1,31,-1
 634 919 l 1,28,-1
209 68 m 1,32,-1
 209 196 l 1,33,-1
 338 196 l 1,34,-1
 338 68 l 1,35,-1
 209 68 l 1,32,-1
351 68 m 1,36,-1
 351 196 l 1,37,-1
 479 196 l 1,38,-1
 479 68 l 1,39,-1
 351 68 l 1,36,-1
492 68 m 1,40,-1
 492 196 l 1,41,-1
 621 196 l 1,42,-1
 621 68 l 1,43,-1
 492 68 l 1,40,-1
634 210 m 1,44,-1
 634 339 l 1,45,-1
 764 339 l 1,46,-1
 764 210 l 1,47,-1
 634 210 l 1,44,-1
634 352 m 1,48,-1
 634 481 l 1,49,-1
 764 481 l 1,50,-1
 764 352 l 1,51,-1
 634 352 l 1,48,-1
634 493 m 1,52,-1
 634 622 l 1,53,-1
 764 622 l 1,54,-1
 764 493 l 1,55,-1
 634 493 l 1,52,-1
634 635 m 1,56,-1
 634 764 l 1,57,-1
 764 764 l 1,58,-1
 764 635 l 1,59,-1
 634 635 l 1,56,-1
634 777 m 1,60,-1
 634 906 l 1,61,-1
 764 906 l 1,62,-1
 764 777 l 1,63,-1
 634 777 l 1,60,-1
EndSplineSet
Validated: 1
EndChar

StartChar: e
Encoding: 101 101 72
Width: 801
Flags: W
LayerCount: 2
Fore
SplineSet
66 210 m 1,0,-1
 66 339 l 1,1,-1
 196 339 l 1,2,-1
 196 210 l 1,3,-1
 66 210 l 1,0,-1
66 351 m 1,4,-1
 66 480 l 1,5,-1
 196 480 l 1,6,-1
 196 351 l 1,7,-1
 66 351 l 1,4,-1
66 493 m 1,8,-1
 66 622 l 1,9,-1
 196 622 l 1,10,-1
 196 493 l 1,11,-1
 66 493 l 1,8,-1
209 351 m 1,12,-1
 209 480 l 1,13,-1
 338 480 l 1,14,-1
 338 351 l 1,15,-1
 209 351 l 1,12,-1
351 351 m 1,16,-1
 351 480 l 1,17,-1
 479 480 l 1,18,-1
 479 351 l 1,19,-1
 351 351 l 1,16,-1
492 351 m 1,20,-1
 492 480 l 1,21,-1
 621 480 l 1,22,-1
 621 351 l 1,23,-1
 492 351 l 1,20,-1
209 635 m 1,24,-1
 209 764 l 1,25,-1
 338 764 l 1,26,-1
 338 635 l 1,27,-1
 209 635 l 1,24,-1
351 635 m 1,28,-1
 351 764 l 1,29,-1
 479 764 l 1,30,-1
 479 635 l 1,31,-1
 351 635 l 1,28,-1
492 635 m 1,32,-1
 492 764 l 1,33,-1
 621 764 l 1,34,-1
 621 635 l 1,35,-1
 492 635 l 1,32,-1
209 68 m 1,36,-1
 209 196 l 1,37,-1
 338 196 l 1,38,-1
 338 68 l 1,39,-1
 209 68 l 1,36,-1
351 68 m 1,40,-1
 351 196 l 1,41,-1
 479 196 l 1,42,-1
 479 68 l 1,43,-1
 351 68 l 1,40,-1
492 68 m 1,44,-1
 492 196 l 1,45,-1
 621 196 l 1,46,-1
 621 68 l 1,47,-1
 492 68 l 1,44,-1
634 352 m 1,48,-1
 634 481 l 1,49,-1
 764 481 l 1,50,-1
 764 352 l 1,51,-1
 634 352 l 1,48,-1
634 493 m 1,52,-1
 634 622 l 1,53,-1
 764 622 l 1,54,-1
 764 493 l 1,55,-1
 634 493 l 1,52,-1
EndSplineSet
Validated: 1
EndChar

StartChar: f
Encoding: 102 102 73
Width: 801
Flags: W
LayerCount: 2
Fore
SplineSet
66 493 m 1,0,-1
 66 622 l 1,1,-1
 196 622 l 1,2,-1
 196 493 l 1,3,-1
 66 493 l 1,0,-1
209 210 m 1,4,-1
 209 339 l 1,5,-1
 338 339 l 1,6,-1
 338 210 l 1,7,-1
 209 210 l 1,4,-1
209 351 m 1,8,-1
 209 480 l 1,9,-1
 338 480 l 1,10,-1
 338 351 l 1,11,-1
 209 351 l 1,8,-1
209 493 m 1,12,-1
 209 622 l 1,13,-1
 338 622 l 1,14,-1
 338 493 l 1,15,-1
 209 493 l 1,12,-1
351 493 m 1,16,-1
 351 622 l 1,17,-1
 479 622 l 1,18,-1
 479 493 l 1,19,-1
 351 493 l 1,16,-1
209 635 m 1,20,-1
 209 764 l 1,21,-1
 338 764 l 1,22,-1
 338 635 l 1,23,-1
 209 635 l 1,20,-1
209 777 m 1,24,-1
 209 906 l 1,25,-1
 338 906 l 1,26,-1
 338 777 l 1,27,-1
 209 777 l 1,24,-1
209 68 m 1,28,-1
 209 196 l 1,29,-1
 338 196 l 1,30,-1
 338 68 l 1,31,-1
 209 68 l 1,28,-1
634 777 m 1,32,-1
 634 906 l 1,33,-1
 764 906 l 1,34,-1
 764 777 l 1,35,-1
 634 777 l 1,32,-1
351 919 m 1,36,-1
 351 1048 l 1,37,-1
 479 1048 l 1,38,-1
 479 919 l 1,39,-1
 351 919 l 1,36,-1
492 919 m 1,40,-1
 492 1048 l 1,41,-1
 621 1048 l 1,42,-1
 621 919 l 1,43,-1
 492 919 l 1,40,-1
EndSplineSet
Validated: 1
EndChar

StartChar: g
Encoding: 103 103 74
Width: 801
Flags: W
LayerCount: 2
Fore
SplineSet
66 493 m 1,0,-1
 66 622 l 1,1,-1
 196 622 l 1,2,-1
 196 493 l 1,3,-1
 66 493 l 1,0,-1
66 635 m 1,4,-1
 66 764 l 1,5,-1
 196 764 l 1,6,-1
 196 635 l 1,7,-1
 66 635 l 1,4,-1
209 351 m 1,8,-1
 209 480 l 1,9,-1
 338 480 l 1,10,-1
 338 351 l 1,11,-1
 209 351 l 1,8,-1
351 351 m 1,12,-1
 351 480 l 1,13,-1
 479 480 l 1,14,-1
 479 351 l 1,15,-1
 351 351 l 1,12,-1
492 351 m 1,16,-1
 492 480 l 1,17,-1
 621 480 l 1,18,-1
 621 351 l 1,19,-1
 492 351 l 1,16,-1
209 777 m 1,20,-1
 209 906 l 1,21,-1
 338 906 l 1,22,-1
 338 777 l 1,23,-1
 209 777 l 1,20,-1
351 777 m 1,24,-1
 351 906 l 1,25,-1
 479 906 l 1,26,-1
 479 777 l 1,27,-1
 351 777 l 1,24,-1
492 777 m 1,28,-1
 492 906 l 1,29,-1
 621 906 l 1,30,-1
 621 777 l 1,31,-1
 492 777 l 1,28,-1
209 68 m 1,32,-1
 209 196 l 1,33,-1
 338 196 l 1,34,-1
 338 68 l 1,35,-1
 209 68 l 1,32,-1
351 68 m 1,36,-1
 351 196 l 1,37,-1
 479 196 l 1,38,-1
 479 68 l 1,39,-1
 351 68 l 1,36,-1
492 68 m 1,40,-1
 492 196 l 1,41,-1
 621 196 l 1,42,-1
 621 68 l 1,43,-1
 492 68 l 1,40,-1
634 210 m 1,44,-1
 634 339 l 1,45,-1
 764 339 l 1,46,-1
 764 210 l 1,47,-1
 634 210 l 1,44,-1
634 352 m 1,48,-1
 634 481 l 1,49,-1
 764 481 l 1,50,-1
 764 352 l 1,51,-1
 634 352 l 1,48,-1
634 493 m 1,52,-1
 634 622 l 1,53,-1
 764 622 l 1,54,-1
 764 493 l 1,55,-1
 634 493 l 1,52,-1
634 635 m 1,56,-1
 634 764 l 1,57,-1
 764 764 l 1,58,-1
 764 635 l 1,59,-1
 634 635 l 1,56,-1
634 777 m 1,60,-1
 634 906 l 1,61,-1
 764 906 l 1,62,-1
 764 777 l 1,63,-1
 634 777 l 1,60,-1
EndSplineSet
Validated: 1
EndChar

StartChar: h
Encoding: 104 104 75
Width: 801
Flags: W
LayerCount: 2
Fore
SplineSet
66 210 m 1,0,-1
 66 339 l 1,1,-1
 196 339 l 1,2,-1
 196 210 l 1,3,-1
 66 210 l 1,0,-1
66 351 m 1,4,-1
 66 480 l 1,5,-1
 196 480 l 1,6,-1
 196 351 l 1,7,-1
 66 351 l 1,4,-1
66 493 m 1,8,-1
 66 622 l 1,9,-1
 196 622 l 1,10,-1
 196 493 l 1,11,-1
 66 493 l 1,8,-1
66 635 m 1,12,-1
 66 764 l 1,13,-1
 196 764 l 1,14,-1
 196 635 l 1,15,-1
 66 635 l 1,12,-1
66 777 m 1,16,-1
 66 906 l 1,17,-1
 196 906 l 1,18,-1
 196 777 l 1,19,-1
 66 777 l 1,16,-1
209 493 m 1,20,-1
 209 622 l 1,21,-1
 338 622 l 1,22,-1
 338 493 l 1,23,-1
 209 493 l 1,20,-1
351 635 m 1,24,-1
 351 764 l 1,25,-1
 479 764 l 1,26,-1
 479 635 l 1,27,-1
 351 635 l 1,24,-1
492 635 m 1,28,-1
 492 764 l 1,29,-1
 621 764 l 1,30,-1
 621 635 l 1,31,-1
 492 635 l 1,28,-1
66 68 m 1,32,-1
 66 196 l 1,33,-1
 196 196 l 1,34,-1
 196 68 l 1,35,-1
 66 68 l 1,32,-1
634 68 m 1,36,-1
 634 196 l 1,37,-1
 764 196 l 1,38,-1
 764 68 l 1,39,-1
 634 68 l 1,36,-1
66 919 m 1,40,-1
 66 1048 l 1,41,-1
 196 1048 l 1,42,-1
 196 919 l 1,43,-1
 66 919 l 1,40,-1
634 210 m 1,44,-1
 634 339 l 1,45,-1
 764 339 l 1,46,-1
 764 210 l 1,47,-1
 634 210 l 1,44,-1
634 352 m 1,48,-1
 634 481 l 1,49,-1
 764 481 l 1,50,-1
 764 352 l 1,51,-1
 634 352 l 1,48,-1
634 493 m 1,52,-1
 634 622 l 1,53,-1
 764 622 l 1,54,-1
 764 493 l 1,55,-1
 634 493 l 1,52,-1
EndSplineSet
Validated: 1
EndChar

StartChar: i
Encoding: 105 105 76
Width: 801
Flags: W
LayerCount: 2
Fore
SplineSet
351 210 m 1,0,-1
 351 339 l 1,1,-1
 479 339 l 1,2,-1
 479 210 l 1,3,-1
 351 210 l 1,0,-1
351 351 m 1,4,-1
 351 480 l 1,5,-1
 479 480 l 1,6,-1
 479 351 l 1,7,-1
 351 351 l 1,4,-1
351 493 m 1,8,-1
 351 622 l 1,9,-1
 479 622 l 1,10,-1
 479 493 l 1,11,-1
 351 493 l 1,8,-1
209 635 m 1,12,-1
 209 764 l 1,13,-1
 338 764 l 1,14,-1
 338 635 l 1,15,-1
 209 635 l 1,12,-1
351 635 m 1,16,-1
 351 764 l 1,17,-1
 479 764 l 1,18,-1
 479 635 l 1,19,-1
 351 635 l 1,16,-1
209 68 m 1,20,-1
 209 196 l 1,21,-1
 338 196 l 1,22,-1
 338 68 l 1,23,-1
 209 68 l 1,20,-1
351 68 m 1,24,-1
 351 196 l 1,25,-1
 479 196 l 1,26,-1
 479 68 l 1,27,-1
 351 68 l 1,24,-1
492 68 m 1,28,-1
 492 196 l 1,29,-1
 621 196 l 1,30,-1
 621 68 l 1,31,-1
 492 68 l 1,28,-1
351 919 m 1,32,-1
 351 1048 l 1,33,-1
 479 1048 l 1,34,-1
 479 919 l 1,35,-1
 351 919 l 1,32,-1
EndSplineSet
Validated: 1
EndChar

StartChar: j
Encoding: 106 106 77
Width: 801
Flags: W
LayerCount: 2
Fore
SplineSet
66 210 m 1,0,-1
 66 339 l 1,1,-1
 196 339 l 1,2,-1
 196 210 l 1,3,-1
 66 210 l 1,0,-1
492 210 m 1,4,-1
 492 339 l 1,5,-1
 621 339 l 1,6,-1
 621 210 l 1,7,-1
 492 210 l 1,4,-1
492 351 m 1,8,-1
 492 480 l 1,9,-1
 621 480 l 1,10,-1
 621 351 l 1,11,-1
 492 351 l 1,8,-1
492 493 m 1,12,-1
 492 622 l 1,13,-1
 621 622 l 1,14,-1
 621 493 l 1,15,-1
 492 493 l 1,12,-1
351 635 m 1,16,-1
 351 764 l 1,17,-1
 479 764 l 1,18,-1
 479 635 l 1,19,-1
 351 635 l 1,16,-1
492 635 m 1,20,-1
 492 764 l 1,21,-1
 621 764 l 1,22,-1
 621 635 l 1,23,-1
 492 635 l 1,20,-1
209 68 m 1,24,-1
 209 196 l 1,25,-1
 338 196 l 1,26,-1
 338 68 l 1,27,-1
 209 68 l 1,24,-1
351 68 m 1,28,-1
 351 196 l 1,29,-1
 479 196 l 1,30,-1
 479 68 l 1,31,-1
 351 68 l 1,28,-1
492 919 m 1,32,-1
 492 1048 l 1,33,-1
 621 1048 l 1,34,-1
 621 919 l 1,35,-1
 492 919 l 1,32,-1
EndSplineSet
Validated: 1
EndChar

StartChar: k
Encoding: 107 107 78
Width: 801
Flags: W
LayerCount: 2
Fore
SplineSet
66 210 m 1,0,-1
 66 339 l 1,1,-1
 196 339 l 1,2,-1
 196 210 l 1,3,-1
 66 210 l 1,0,-1
66 351 m 1,4,-1
 66 480 l 1,5,-1
 196 480 l 1,6,-1
 196 351 l 1,7,-1
 66 351 l 1,4,-1
66 493 m 1,8,-1
 66 622 l 1,9,-1
 196 622 l 1,10,-1
 196 493 l 1,11,-1
 66 493 l 1,8,-1
66 635 m 1,12,-1
 66 764 l 1,13,-1
 196 764 l 1,14,-1
 196 635 l 1,15,-1
 66 635 l 1,12,-1
66 777 m 1,16,-1
 66 906 l 1,17,-1
 196 906 l 1,18,-1
 196 777 l 1,19,-1
 66 777 l 1,16,-1
351 210 m 1,20,-1
 351 339 l 1,21,-1
 479 339 l 1,22,-1
 479 210 l 1,23,-1
 351 210 l 1,20,-1
209 351 m 1,24,-1
 209 480 l 1,25,-1
 338 480 l 1,26,-1
 338 351 l 1,27,-1
 209 351 l 1,24,-1
351 493 m 1,28,-1
 351 622 l 1,29,-1
 479 622 l 1,30,-1
 479 493 l 1,31,-1
 351 493 l 1,28,-1
492 635 m 1,32,-1
 492 764 l 1,33,-1
 621 764 l 1,34,-1
 621 635 l 1,35,-1
 492 635 l 1,32,-1
66 68 m 1,36,-1
 66 196 l 1,37,-1
 196 196 l 1,38,-1
 196 68 l 1,39,-1
 66 68 l 1,36,-1
66 919 m 1,40,-1
 66 1048 l 1,41,-1
 196 1048 l 1,42,-1
 196 919 l 1,43,-1
 66 919 l 1,40,-1
492 68 m 1,44,-1
 492 196 l 1,45,-1
 621 196 l 1,46,-1
 621 68 l 1,47,-1
 492 68 l 1,44,-1
EndSplineSet
Validated: 1
EndChar

StartChar: l
Encoding: 108 108 79
Width: 801
Flags: W
LayerCount: 2
Fore
SplineSet
351 210 m 1,0,-1
 351 339 l 1,1,-1
 479 339 l 1,2,-1
 479 210 l 1,3,-1
 351 210 l 1,0,-1
351 351 m 1,4,-1
 351 480 l 1,5,-1
 479 480 l 1,6,-1
 479 351 l 1,7,-1
 351 351 l 1,4,-1
351 493 m 1,8,-1
 351 622 l 1,9,-1
 479 622 l 1,10,-1
 479 493 l 1,11,-1
 351 493 l 1,8,-1
351 635 m 1,12,-1
 351 764 l 1,13,-1
 479 764 l 1,14,-1
 479 635 l 1,15,-1
 351 635 l 1,12,-1
351 777 m 1,16,-1
 351 906 l 1,17,-1
 479 906 l 1,18,-1
 479 777 l 1,19,-1
 351 777 l 1,16,-1
209 68 m 1,20,-1
 209 196 l 1,21,-1
 338 196 l 1,22,-1
 338 68 l 1,23,-1
 209 68 l 1,20,-1
351 68 m 1,24,-1
 351 196 l 1,25,-1
 479 196 l 1,26,-1
 479 68 l 1,27,-1
 351 68 l 1,24,-1
492 68 m 1,28,-1
 492 196 l 1,29,-1
 621 196 l 1,30,-1
 621 68 l 1,31,-1
 492 68 l 1,28,-1
209 919 m 1,32,-1
 209 1048 l 1,33,-1
 338 1048 l 1,34,-1
 338 919 l 1,35,-1
 209 919 l 1,32,-1
351 919 m 1,36,-1
 351 1048 l 1,37,-1
 479 1048 l 1,38,-1
 479 919 l 1,39,-1
 351 919 l 1,36,-1
EndSplineSet
Validated: 1
EndChar

StartChar: m
Encoding: 109 109 80
Width: 801
Flags: W
LayerCount: 2
Fore
SplineSet
66 210 m 1,0,-1
 66 339 l 1,1,-1
 196 339 l 1,2,-1
 196 210 l 1,3,-1
 66 210 l 1,0,-1
66 351 m 1,4,-1
 66 480 l 1,5,-1
 196 480 l 1,6,-1
 196 351 l 1,7,-1
 66 351 l 1,4,-1
66 493 m 1,8,-1
 66 622 l 1,9,-1
 196 622 l 1,10,-1
 196 493 l 1,11,-1
 66 493 l 1,8,-1
66 635 m 1,12,-1
 66 764 l 1,13,-1
 196 764 l 1,14,-1
 196 635 l 1,15,-1
 66 635 l 1,12,-1
351 351 m 1,16,-1
 351 480 l 1,17,-1
 479 480 l 1,18,-1
 479 351 l 1,19,-1
 351 351 l 1,16,-1
351 493 m 1,20,-1
 351 622 l 1,21,-1
 479 622 l 1,22,-1
 479 493 l 1,23,-1
 351 493 l 1,20,-1
209 635 m 1,24,-1
 209 764 l 1,25,-1
 338 764 l 1,26,-1
 338 635 l 1,27,-1
 209 635 l 1,24,-1
492 635 m 1,28,-1
 492 764 l 1,29,-1
 621 764 l 1,30,-1
 621 635 l 1,31,-1
 492 635 l 1,28,-1
66 68 m 1,32,-1
 66 196 l 1,33,-1
 196 196 l 1,34,-1
 196 68 l 1,35,-1
 66 68 l 1,32,-1
634 68 m 1,36,-1
 634 196 l 1,37,-1
 764 196 l 1,38,-1
 764 68 l 1,39,-1
 634 68 l 1,36,-1
634 210 m 1,40,-1
 634 339 l 1,41,-1
 764 339 l 1,42,-1
 764 210 l 1,43,-1
 634 210 l 1,40,-1
634 352 m 1,44,-1
 634 481 l 1,45,-1
 764 481 l 1,46,-1
 764 352 l 1,47,-1
 634 352 l 1,44,-1
634 493 m 1,48,-1
 634 622 l 1,49,-1
 764 622 l 1,50,-1
 764 493 l 1,51,-1
 634 493 l 1,48,-1
EndSplineSet
Validated: 1
EndChar

StartChar: n
Encoding: 110 110 81
Width: 801
Flags: W
LayerCount: 2
Fore
SplineSet
66 210 m 1,0,-1
 66 339 l 1,1,-1
 196 339 l 1,2,-1
 196 210 l 1,3,-1
 66 210 l 1,0,-1
66 351 m 1,4,-1
 66 480 l 1,5,-1
 196 480 l 1,6,-1
 196 351 l 1,7,-1
 66 351 l 1,4,-1
66 493 m 1,8,-1
 66 622 l 1,9,-1
 196 622 l 1,10,-1
 196 493 l 1,11,-1
 66 493 l 1,8,-1
66 635 m 1,12,-1
 66 764 l 1,13,-1
 196 764 l 1,14,-1
 196 635 l 1,15,-1
 66 635 l 1,12,-1
209 493 m 1,16,-1
 209 622 l 1,17,-1
 338 622 l 1,18,-1
 338 493 l 1,19,-1
 209 493 l 1,16,-1
351 635 m 1,20,-1
 351 764 l 1,21,-1
 479 764 l 1,22,-1
 479 635 l 1,23,-1
 351 635 l 1,20,-1
492 635 m 1,24,-1
 492 764 l 1,25,-1
 621 764 l 1,26,-1
 621 635 l 1,27,-1
 492 635 l 1,24,-1
66 68 m 1,28,-1
 66 196 l 1,29,-1
 196 196 l 1,30,-1
 196 68 l 1,31,-1
 66 68 l 1,28,-1
634 68 m 1,32,-1
 634 196 l 1,33,-1
 764 196 l 1,34,-1
 764 68 l 1,35,-1
 634 68 l 1,32,-1
634 210 m 1,36,-1
 634 339 l 1,37,-1
 764 339 l 1,38,-1
 764 210 l 1,39,-1
 634 210 l 1,36,-1
634 352 m 1,40,-1
 634 481 l 1,41,-1
 764 481 l 1,42,-1
 764 352 l 1,43,-1
 634 352 l 1,40,-1
634 493 m 1,44,-1
 634 622 l 1,45,-1
 764 622 l 1,46,-1
 764 493 l 1,47,-1
 634 493 l 1,44,-1
EndSplineSet
Validated: 1
EndChar

StartChar: o
Encoding: 111 111 82
Width: 801
Flags: W
LayerCount: 2
Fore
SplineSet
66 210 m 1,0,-1
 66 339 l 1,1,-1
 196 339 l 1,2,-1
 196 210 l 1,3,-1
 66 210 l 1,0,-1
66 351 m 1,4,-1
 66 480 l 1,5,-1
 196 480 l 1,6,-1
 196 351 l 1,7,-1
 66 351 l 1,4,-1
66 493 m 1,8,-1
 66 622 l 1,9,-1
 196 622 l 1,10,-1
 196 493 l 1,11,-1
 66 493 l 1,8,-1
209 635 m 1,12,-1
 209 764 l 1,13,-1
 338 764 l 1,14,-1
 338 635 l 1,15,-1
 209 635 l 1,12,-1
351 635 m 1,16,-1
 351 764 l 1,17,-1
 479 764 l 1,18,-1
 479 635 l 1,19,-1
 351 635 l 1,16,-1
492 635 m 1,20,-1
 492 764 l 1,21,-1
 621 764 l 1,22,-1
 621 635 l 1,23,-1
 492 635 l 1,20,-1
209 68 m 1,24,-1
 209 196 l 1,25,-1
 338 196 l 1,26,-1
 338 68 l 1,27,-1
 209 68 l 1,24,-1
351 68 m 1,28,-1
 351 196 l 1,29,-1
 479 196 l 1,30,-1
 479 68 l 1,31,-1
 351 68 l 1,28,-1
492 68 m 1,32,-1
 492 196 l 1,33,-1
 621 196 l 1,34,-1
 621 68 l 1,35,-1
 492 68 l 1,32,-1
634 210 m 1,36,-1
 634 339 l 1,37,-1
 764 339 l 1,38,-1
 764 210 l 1,39,-1
 634 210 l 1,36,-1
634 352 m 1,40,-1
 634 481 l 1,41,-1
 764 481 l 1,42,-1
 764 352 l 1,43,-1
 634 352 l 1,40,-1
634 493 m 1,44,-1
 634 622 l 1,45,-1
 764 622 l 1,46,-1
 764 493 l 1,47,-1
 634 493 l 1,44,-1
EndSplineSet
Validated: 1
EndChar

StartChar: p
Encoding: 112 112 83
Width: 801
Flags: W
LayerCount: 2
Fore
SplineSet
66 210 m 1,0,-1
 66 339 l 1,1,-1
 196 339 l 1,2,-1
 196 210 l 1,3,-1
 66 210 l 1,0,-1
66 351 m 1,4,-1
 66 480 l 1,5,-1
 196 480 l 1,6,-1
 196 351 l 1,7,-1
 66 351 l 1,4,-1
66 493 m 1,8,-1
 66 622 l 1,9,-1
 196 622 l 1,10,-1
 196 493 l 1,11,-1
 66 493 l 1,8,-1
66 635 m 1,12,-1
 66 764 l 1,13,-1
 196 764 l 1,14,-1
 196 635 l 1,15,-1
 66 635 l 1,12,-1
209 351 m 1,16,-1
 209 480 l 1,17,-1
 338 480 l 1,18,-1
 338 351 l 1,19,-1
 209 351 l 1,16,-1
351 351 m 1,20,-1
 351 480 l 1,21,-1
 479 480 l 1,22,-1
 479 351 l 1,23,-1
 351 351 l 1,20,-1
492 351 m 1,24,-1
 492 480 l 1,25,-1
 621 480 l 1,26,-1
 621 351 l 1,27,-1
 492 351 l 1,24,-1
209 635 m 1,28,-1
 209 764 l 1,29,-1
 338 764 l 1,30,-1
 338 635 l 1,31,-1
 209 635 l 1,28,-1
351 635 m 1,32,-1
 351 764 l 1,33,-1
 479 764 l 1,34,-1
 479 635 l 1,35,-1
 351 635 l 1,32,-1
492 635 m 1,36,-1
 492 764 l 1,37,-1
 621 764 l 1,38,-1
 621 635 l 1,39,-1
 492 635 l 1,36,-1
66 68 m 1,40,-1
 66 196 l 1,41,-1
 196 196 l 1,42,-1
 196 68 l 1,43,-1
 66 68 l 1,40,-1
634 493 m 1,44,-1
 634 622 l 1,45,-1
 764 622 l 1,46,-1
 764 493 l 1,47,-1
 634 493 l 1,44,-1
EndSplineSet
Validated: 1
EndChar

StartChar: q
Encoding: 113 113 84
Width: 801
Flags: W
LayerCount: 2
Fore
SplineSet
66 493 m 1,0,-1
 66 622 l 1,1,-1
 196 622 l 1,2,-1
 196 493 l 1,3,-1
 66 493 l 1,0,-1
209 351 m 1,4,-1
 209 480 l 1,5,-1
 338 480 l 1,6,-1
 338 351 l 1,7,-1
 209 351 l 1,4,-1
351 351 m 1,8,-1
 351 480 l 1,9,-1
 479 480 l 1,10,-1
 479 351 l 1,11,-1
 351 351 l 1,8,-1
492 351 m 1,12,-1
 492 480 l 1,13,-1
 621 480 l 1,14,-1
 621 351 l 1,15,-1
 492 351 l 1,12,-1
492 493 m 1,16,-1
 492 622 l 1,17,-1
 621 622 l 1,18,-1
 621 493 l 1,19,-1
 492 493 l 1,16,-1
209 635 m 1,20,-1
 209 764 l 1,21,-1
 338 764 l 1,22,-1
 338 635 l 1,23,-1
 209 635 l 1,20,-1
351 635 m 1,24,-1
 351 764 l 1,25,-1
 479 764 l 1,26,-1
 479 635 l 1,27,-1
 351 635 l 1,24,-1
634 68 m 1,28,-1
 634 196 l 1,29,-1
 764 196 l 1,30,-1
 764 68 l 1,31,-1
 634 68 l 1,28,-1
634 210 m 1,32,-1
 634 339 l 1,33,-1
 764 339 l 1,34,-1
 764 210 l 1,35,-1
 634 210 l 1,32,-1
634 352 m 1,36,-1
 634 481 l 1,37,-1
 764 481 l 1,38,-1
 764 352 l 1,39,-1
 634 352 l 1,36,-1
634 493 m 1,40,-1
 634 622 l 1,41,-1
 764 622 l 1,42,-1
 764 493 l 1,43,-1
 634 493 l 1,40,-1
634 635 m 1,44,-1
 634 764 l 1,45,-1
 764 764 l 1,46,-1
 764 635 l 1,47,-1
 634 635 l 1,44,-1
EndSplineSet
Validated: 1
EndChar

StartChar: r
Encoding: 114 114 85
Width: 801
Flags: W
LayerCount: 2
Fore
SplineSet
66 210 m 1,0,-1
 66 339 l 1,1,-1
 196 339 l 1,2,-1
 196 210 l 1,3,-1
 66 210 l 1,0,-1
66 351 m 1,4,-1
 66 480 l 1,5,-1
 196 480 l 1,6,-1
 196 351 l 1,7,-1
 66 351 l 1,4,-1
66 493 m 1,8,-1
 66 622 l 1,9,-1
 196 622 l 1,10,-1
 196 493 l 1,11,-1
 66 493 l 1,8,-1
66 635 m 1,12,-1
 66 764 l 1,13,-1
 196 764 l 1,14,-1
 196 635 l 1,15,-1
 66 635 l 1,12,-1
209 493 m 1,16,-1
 209 622 l 1,17,-1
 338 622 l 1,18,-1
 338 493 l 1,19,-1
 209 493 l 1,16,-1
351 635 m 1,20,-1
 351 764 l 1,21,-1
 479 764 l 1,22,-1
 479 635 l 1,23,-1
 351 635 l 1,20,-1
492 635 m 1,24,-1
 492 764 l 1,25,-1
 621 764 l 1,26,-1
 621 635 l 1,27,-1
 492 635 l 1,24,-1
66 68 m 1,28,-1
 66 196 l 1,29,-1
 196 196 l 1,30,-1
 196 68 l 1,31,-1
 66 68 l 1,28,-1
634 493 m 1,32,-1
 634 622 l 1,33,-1
 764 622 l 1,34,-1
 764 493 l 1,35,-1
 634 493 l 1,32,-1
EndSplineSet
Validated: 1
EndChar

StartChar: s
Encoding: 115 115 86
Width: 801
Flags: W
LayerCount: 2
Fore
SplineSet
66 493 m 1,0,-1
 66 622 l 1,1,-1
 196 622 l 1,2,-1
 196 493 l 1,3,-1
 66 493 l 1,0,-1
209 351 m 1,4,-1
 209 480 l 1,5,-1
 338 480 l 1,6,-1
 338 351 l 1,7,-1
 209 351 l 1,4,-1
351 351 m 1,8,-1
 351 480 l 1,9,-1
 479 480 l 1,10,-1
 479 351 l 1,11,-1
 351 351 l 1,8,-1
492 351 m 1,12,-1
 492 480 l 1,13,-1
 621 480 l 1,14,-1
 621 351 l 1,15,-1
 492 351 l 1,12,-1
209 635 m 1,16,-1
 209 764 l 1,17,-1
 338 764 l 1,18,-1
 338 635 l 1,19,-1
 209 635 l 1,16,-1
351 635 m 1,20,-1
 351 764 l 1,21,-1
 479 764 l 1,22,-1
 479 635 l 1,23,-1
 351 635 l 1,20,-1
492 635 m 1,24,-1
 492 764 l 1,25,-1
 621 764 l 1,26,-1
 621 635 l 1,27,-1
 492 635 l 1,24,-1
66 68 m 1,28,-1
 66 196 l 1,29,-1
 196 196 l 1,30,-1
 196 68 l 1,31,-1
 66 68 l 1,28,-1
209 68 m 1,32,-1
 209 196 l 1,33,-1
 338 196 l 1,34,-1
 338 68 l 1,35,-1
 209 68 l 1,32,-1
351 68 m 1,36,-1
 351 196 l 1,37,-1
 479 196 l 1,38,-1
 479 68 l 1,39,-1
 351 68 l 1,36,-1
492 68 m 1,40,-1
 492 196 l 1,41,-1
 621 196 l 1,42,-1
 621 68 l 1,43,-1
 492 68 l 1,40,-1
634 210 m 1,44,-1
 634 339 l 1,45,-1
 764 339 l 1,46,-1
 764 210 l 1,47,-1
 634 210 l 1,44,-1
EndSplineSet
Validated: 1
EndChar

StartChar: t
Encoding: 116 116 87
Width: 801
Flags: W
LayerCount: 2
Fore
SplineSet
66 635 m 1,0,-1
 66 764 l 1,1,-1
 196 764 l 1,2,-1
 196 635 l 1,3,-1
 66 635 l 1,0,-1
209 210 m 1,4,-1
 209 339 l 1,5,-1
 338 339 l 1,6,-1
 338 210 l 1,7,-1
 209 210 l 1,4,-1
209 351 m 1,8,-1
 209 480 l 1,9,-1
 338 480 l 1,10,-1
 338 351 l 1,11,-1
 209 351 l 1,8,-1
209 493 m 1,12,-1
 209 622 l 1,13,-1
 338 622 l 1,14,-1
 338 493 l 1,15,-1
 209 493 l 1,12,-1
209 635 m 1,16,-1
 209 764 l 1,17,-1
 338 764 l 1,18,-1
 338 635 l 1,19,-1
 209 635 l 1,16,-1
351 635 m 1,20,-1
 351 764 l 1,21,-1
 479 764 l 1,22,-1
 479 635 l 1,23,-1
 351 635 l 1,20,-1
209 777 m 1,24,-1
 209 906 l 1,25,-1
 338 906 l 1,26,-1
 338 777 l 1,27,-1
 209 777 l 1,24,-1
351 68 m 1,28,-1
 351 196 l 1,29,-1
 479 196 l 1,30,-1
 479 68 l 1,31,-1
 351 68 l 1,28,-1
492 68 m 1,32,-1
 492 196 l 1,33,-1
 621 196 l 1,34,-1
 621 68 l 1,35,-1
 492 68 l 1,32,-1
634 210 m 1,36,-1
 634 339 l 1,37,-1
 764 339 l 1,38,-1
 764 210 l 1,39,-1
 634 210 l 1,36,-1
209 919 m 1,40,-1
 209 1048 l 1,41,-1
 338 1048 l 1,42,-1
 338 919 l 1,43,-1
 209 919 l 1,40,-1
EndSplineSet
Validated: 1
EndChar

StartChar: u
Encoding: 117 117 88
Width: 801
Flags: W
LayerCount: 2
Fore
SplineSet
66 210 m 1,0,-1
 66 339 l 1,1,-1
 196 339 l 1,2,-1
 196 210 l 1,3,-1
 66 210 l 1,0,-1
66 351 m 1,4,-1
 66 480 l 1,5,-1
 196 480 l 1,6,-1
 196 351 l 1,7,-1
 66 351 l 1,4,-1
66 493 m 1,8,-1
 66 622 l 1,9,-1
 196 622 l 1,10,-1
 196 493 l 1,11,-1
 66 493 l 1,8,-1
66 635 m 1,12,-1
 66 764 l 1,13,-1
 196 764 l 1,14,-1
 196 635 l 1,15,-1
 66 635 l 1,12,-1
492 210 m 1,16,-1
 492 339 l 1,17,-1
 621 339 l 1,18,-1
 621 210 l 1,19,-1
 492 210 l 1,16,-1
634 68 m 1,20,-1
 634 196 l 1,21,-1
 764 196 l 1,22,-1
 764 68 l 1,23,-1
 634 68 l 1,20,-1
209 68 m 1,24,-1
 209 196 l 1,25,-1
 338 196 l 1,26,-1
 338 68 l 1,27,-1
 209 68 l 1,24,-1
351 68 m 1,28,-1
 351 196 l 1,29,-1
 479 196 l 1,30,-1
 479 68 l 1,31,-1
 351 68 l 1,28,-1
634 210 m 1,32,-1
 634 339 l 1,33,-1
 764 339 l 1,34,-1
 764 210 l 1,35,-1
 634 210 l 1,32,-1
634 352 m 1,36,-1
 634 481 l 1,37,-1
 764 481 l 1,38,-1
 764 352 l 1,39,-1
 634 352 l 1,36,-1
634 493 m 1,40,-1
 634 622 l 1,41,-1
 764 622 l 1,42,-1
 764 493 l 1,43,-1
 634 493 l 1,40,-1
634 635 m 1,44,-1
 634 764 l 1,45,-1
 764 764 l 1,46,-1
 764 635 l 1,47,-1
 634 635 l 1,44,-1
EndSplineSet
Validated: 1
EndChar

StartChar: v
Encoding: 118 118 89
Width: 801
Flags: W
LayerCount: 2
Fore
SplineSet
66 351 m 1,0,-1
 66 480 l 1,1,-1
 196 480 l 1,2,-1
 196 351 l 1,3,-1
 66 351 l 1,0,-1
66 493 m 1,4,-1
 66 622 l 1,5,-1
 196 622 l 1,6,-1
 196 493 l 1,7,-1
 66 493 l 1,4,-1
66 635 m 1,8,-1
 66 764 l 1,9,-1
 196 764 l 1,10,-1
 196 635 l 1,11,-1
 66 635 l 1,8,-1
209 210 m 1,12,-1
 209 339 l 1,13,-1
 338 339 l 1,14,-1
 338 210 l 1,15,-1
 209 210 l 1,12,-1
492 210 m 1,16,-1
 492 339 l 1,17,-1
 621 339 l 1,18,-1
 621 210 l 1,19,-1
 492 210 l 1,16,-1
351 68 m 1,20,-1
 351 196 l 1,21,-1
 479 196 l 1,22,-1
 479 68 l 1,23,-1
 351 68 l 1,20,-1
634 352 m 1,24,-1
 634 481 l 1,25,-1
 764 481 l 1,26,-1
 764 352 l 1,27,-1
 634 352 l 1,24,-1
634 493 m 1,28,-1
 634 622 l 1,29,-1
 764 622 l 1,30,-1
 764 493 l 1,31,-1
 634 493 l 1,28,-1
634 635 m 1,32,-1
 634 764 l 1,33,-1
 764 764 l 1,34,-1
 764 635 l 1,35,-1
 634 635 l 1,32,-1
EndSplineSet
Validated: 1
EndChar

StartChar: w
Encoding: 119 119 90
Width: 801
Flags: W
LayerCount: 2
Fore
SplineSet
66 210 m 1,0,-1
 66 339 l 1,1,-1
 196 339 l 1,2,-1
 196 210 l 1,3,-1
 66 210 l 1,0,-1
66 351 m 1,4,-1
 66 480 l 1,5,-1
 196 480 l 1,6,-1
 196 351 l 1,7,-1
 66 351 l 1,4,-1
66 493 m 1,8,-1
 66 622 l 1,9,-1
 196 622 l 1,10,-1
 196 493 l 1,11,-1
 66 493 l 1,8,-1
66 635 m 1,12,-1
 66 764 l 1,13,-1
 196 764 l 1,14,-1
 196 635 l 1,15,-1
 66 635 l 1,12,-1
351 210 m 1,16,-1
 351 339 l 1,17,-1
 479 339 l 1,18,-1
 479 210 l 1,19,-1
 351 210 l 1,16,-1
351 351 m 1,20,-1
 351 480 l 1,21,-1
 479 480 l 1,22,-1
 479 351 l 1,23,-1
 351 351 l 1,20,-1
209 68 m 1,24,-1
 209 196 l 1,25,-1
 338 196 l 1,26,-1
 338 68 l 1,27,-1
 209 68 l 1,24,-1
492 68 m 1,28,-1
 492 196 l 1,29,-1
 621 196 l 1,30,-1
 621 68 l 1,31,-1
 492 68 l 1,28,-1
634 210 m 1,32,-1
 634 339 l 1,33,-1
 764 339 l 1,34,-1
 764 210 l 1,35,-1
 634 210 l 1,32,-1
634 352 m 1,36,-1
 634 481 l 1,37,-1
 764 481 l 1,38,-1
 764 352 l 1,39,-1
 634 352 l 1,36,-1
634 493 m 1,40,-1
 634 622 l 1,41,-1
 764 622 l 1,42,-1
 764 493 l 1,43,-1
 634 493 l 1,40,-1
634 635 m 1,44,-1
 634 764 l 1,45,-1
 764 764 l 1,46,-1
 764 635 l 1,47,-1
 634 635 l 1,44,-1
EndSplineSet
Validated: 1
EndChar

StartChar: x
Encoding: 120 120 91
Width: 801
Flags: W
LayerCount: 2
Fore
SplineSet
66 635 m 1,0,-1
 66 764 l 1,1,-1
 196 764 l 1,2,-1
 196 635 l 1,3,-1
 66 635 l 1,0,-1
209 210 m 1,4,-1
 209 339 l 1,5,-1
 338 339 l 1,6,-1
 338 210 l 1,7,-1
 209 210 l 1,4,-1
492 210 m 1,8,-1
 492 339 l 1,9,-1
 621 339 l 1,10,-1
 621 210 l 1,11,-1
 492 210 l 1,8,-1
351 351 m 1,12,-1
 351 480 l 1,13,-1
 479 480 l 1,14,-1
 479 351 l 1,15,-1
 351 351 l 1,12,-1
209 493 m 1,16,-1
 209 622 l 1,17,-1
 338 622 l 1,18,-1
 338 493 l 1,19,-1
 209 493 l 1,16,-1
492 493 m 1,20,-1
 492 622 l 1,21,-1
 621 622 l 1,22,-1
 621 493 l 1,23,-1
 492 493 l 1,20,-1
66 68 m 1,24,-1
 66 196 l 1,25,-1
 196 196 l 1,26,-1
 196 68 l 1,27,-1
 66 68 l 1,24,-1
634 68 m 1,28,-1
 634 196 l 1,29,-1
 764 196 l 1,30,-1
 764 68 l 1,31,-1
 634 68 l 1,28,-1
634 635 m 1,32,-1
 634 764 l 1,33,-1
 764 764 l 1,34,-1
 764 635 l 1,35,-1
 634 635 l 1,32,-1
EndSplineSet
Validated: 1
EndChar

StartChar: y
Encoding: 121 121 92
Width: 801
Flags: W
LayerCount: 2
Fore
SplineSet
66 493 m 1,0,-1
 66 622 l 1,1,-1
 196 622 l 1,2,-1
 196 493 l 1,3,-1
 66 493 l 1,0,-1
66 635 m 1,4,-1
 66 764 l 1,5,-1
 196 764 l 1,6,-1
 196 635 l 1,7,-1
 66 635 l 1,4,-1
209 351 m 1,8,-1
 209 480 l 1,9,-1
 338 480 l 1,10,-1
 338 351 l 1,11,-1
 209 351 l 1,8,-1
351 351 m 1,12,-1
 351 480 l 1,13,-1
 479 480 l 1,14,-1
 479 351 l 1,15,-1
 351 351 l 1,12,-1
492 351 m 1,16,-1
 492 480 l 1,17,-1
 621 480 l 1,18,-1
 621 351 l 1,19,-1
 492 351 l 1,16,-1
209 68 m 1,20,-1
 209 196 l 1,21,-1
 338 196 l 1,22,-1
 338 68 l 1,23,-1
 209 68 l 1,20,-1
351 68 m 1,24,-1
 351 196 l 1,25,-1
 479 196 l 1,26,-1
 479 68 l 1,27,-1
 351 68 l 1,24,-1
492 68 m 1,28,-1
 492 196 l 1,29,-1
 621 196 l 1,30,-1
 621 68 l 1,31,-1
 492 68 l 1,28,-1
634 210 m 1,32,-1
 634 339 l 1,33,-1
 764 339 l 1,34,-1
 764 210 l 1,35,-1
 634 210 l 1,32,-1
634 352 m 1,36,-1
 634 481 l 1,37,-1
 764 481 l 1,38,-1
 764 352 l 1,39,-1
 634 352 l 1,36,-1
634 493 m 1,40,-1
 634 622 l 1,41,-1
 764 622 l 1,42,-1
 764 493 l 1,43,-1
 634 493 l 1,40,-1
634 635 m 1,44,-1
 634 764 l 1,45,-1
 764 764 l 1,46,-1
 764 635 l 1,47,-1
 634 635 l 1,44,-1
EndSplineSet
Validated: 1
EndChar

StartChar: z
Encoding: 122 122 93
Width: 801
Flags: W
LayerCount: 2
Fore
SplineSet
66 635 m 1,0,-1
 66 764 l 1,1,-1
 196 764 l 1,2,-1
 196 635 l 1,3,-1
 66 635 l 1,0,-1
209 210 m 1,4,-1
 209 339 l 1,5,-1
 338 339 l 1,6,-1
 338 210 l 1,7,-1
 209 210 l 1,4,-1
351 351 m 1,8,-1
 351 480 l 1,9,-1
 479 480 l 1,10,-1
 479 351 l 1,11,-1
 351 351 l 1,8,-1
492 493 m 1,12,-1
 492 622 l 1,13,-1
 621 622 l 1,14,-1
 621 493 l 1,15,-1
 492 493 l 1,12,-1
209 635 m 1,16,-1
 209 764 l 1,17,-1
 338 764 l 1,18,-1
 338 635 l 1,19,-1
 209 635 l 1,16,-1
351 635 m 1,20,-1
 351 764 l 1,21,-1
 479 764 l 1,22,-1
 479 635 l 1,23,-1
 351 635 l 1,20,-1
492 635 m 1,24,-1
 492 764 l 1,25,-1
 621 764 l 1,26,-1
 621 635 l 1,27,-1
 492 635 l 1,24,-1
66 68 m 1,28,-1
 66 196 l 1,29,-1
 196 196 l 1,30,-1
 196 68 l 1,31,-1
 66 68 l 1,28,-1
634 68 m 1,32,-1
 634 196 l 1,33,-1
 764 196 l 1,34,-1
 764 68 l 1,35,-1
 634 68 l 1,32,-1
209 68 m 1,36,-1
 209 196 l 1,37,-1
 338 196 l 1,38,-1
 338 68 l 1,39,-1
 209 68 l 1,36,-1
351 68 m 1,40,-1
 351 196 l 1,41,-1
 479 196 l 1,42,-1
 479 68 l 1,43,-1
 351 68 l 1,40,-1
492 68 m 1,44,-1
 492 196 l 1,45,-1
 621 196 l 1,46,-1
 621 68 l 1,47,-1
 492 68 l 1,44,-1
634 635 m 1,48,-1
 634 764 l 1,49,-1
 764 764 l 1,50,-1
 764 635 l 1,51,-1
 634 635 l 1,48,-1
EndSplineSet
Validated: 1
EndChar

StartChar: braceleft
Encoding: 123 123 94
Width: 801
Flags: W
LayerCount: 2
Fore
SplineSet
351 210 m 1,0,-1
 351 339 l 1,1,-1
 479 339 l 1,2,-1
 479 210 l 1,3,-1
 351 210 l 1,0,-1
351 351 m 1,4,-1
 351 480 l 1,5,-1
 479 480 l 1,6,-1
 479 351 l 1,7,-1
 351 351 l 1,4,-1
209 493 m 1,8,-1
 209 622 l 1,9,-1
 338 622 l 1,10,-1
 338 493 l 1,11,-1
 209 493 l 1,8,-1
351 635 m 1,12,-1
 351 764 l 1,13,-1
 479 764 l 1,14,-1
 479 635 l 1,15,-1
 351 635 l 1,12,-1
351 777 m 1,16,-1
 351 906 l 1,17,-1
 479 906 l 1,18,-1
 479 777 l 1,19,-1
 351 777 l 1,16,-1
492 68 m 1,20,-1
 492 196 l 1,21,-1
 621 196 l 1,22,-1
 621 68 l 1,23,-1
 492 68 l 1,20,-1
492 919 m 1,24,-1
 492 1048 l 1,25,-1
 621 1048 l 1,26,-1
 621 919 l 1,27,-1
 492 919 l 1,24,-1
EndSplineSet
Validated: 1
EndChar

StartChar: bar
Encoding: 124 124 95
Width: 801
Flags: W
LayerCount: 2
Fore
SplineSet
351 210 m 1,0,-1
 351 339 l 1,1,-1
 479 339 l 1,2,-1
 479 210 l 1,3,-1
 351 210 l 1,0,-1
351 351 m 1,4,-1
 351 480 l 1,5,-1
 479 480 l 1,6,-1
 479 351 l 1,7,-1
 351 351 l 1,4,-1
351 493 m 1,8,-1
 351 622 l 1,9,-1
 479 622 l 1,10,-1
 479 493 l 1,11,-1
 351 493 l 1,8,-1
351 635 m 1,12,-1
 351 764 l 1,13,-1
 479 764 l 1,14,-1
 479 635 l 1,15,-1
 351 635 l 1,12,-1
351 777 m 1,16,-1
 351 906 l 1,17,-1
 479 906 l 1,18,-1
 479 777 l 1,19,-1
 351 777 l 1,16,-1
351 68 m 1,20,-1
 351 196 l 1,21,-1
 479 196 l 1,22,-1
 479 68 l 1,23,-1
 351 68 l 1,20,-1
351 919 m 1,24,-1
 351 1048 l 1,25,-1
 479 1048 l 1,26,-1
 479 919 l 1,27,-1
 351 919 l 1,24,-1
EndSplineSet
Validated: 1
EndChar

StartChar: braceright
Encoding: 125 125 96
Width: 801
Flags: W
LayerCount: 2
Fore
SplineSet
351 210 m 1,0,-1
 351 339 l 1,1,-1
 479 339 l 1,2,-1
 479 210 l 1,3,-1
 351 210 l 1,0,-1
351 351 m 1,4,-1
 351 480 l 1,5,-1
 479 480 l 1,6,-1
 479 351 l 1,7,-1
 351 351 l 1,4,-1
492 493 m 1,8,-1
 492 622 l 1,9,-1
 621 622 l 1,10,-1
 621 493 l 1,11,-1
 492 493 l 1,8,-1
351 635 m 1,12,-1
 351 764 l 1,13,-1
 479 764 l 1,14,-1
 479 635 l 1,15,-1
 351 635 l 1,12,-1
351 777 m 1,16,-1
 351 906 l 1,17,-1
 479 906 l 1,18,-1
 479 777 l 1,19,-1
 351 777 l 1,16,-1
209 68 m 1,20,-1
 209 196 l 1,21,-1
 338 196 l 1,22,-1
 338 68 l 1,23,-1
 209 68 l 1,20,-1
209 919 m 1,24,-1
 209 1048 l 1,25,-1
 338 1048 l 1,26,-1
 338 919 l 1,27,-1
 209 919 l 1,24,-1
EndSplineSet
Validated: 1
EndChar

StartChar: asciitilde
Encoding: 126 126 97
Width: 801
Flags: W
LayerCount: 2
Fore
SplineSet
66 493 m 1,0,-1
 66 622 l 1,1,-1
 196 622 l 1,2,-1
 196 493 l 1,3,-1
 66 493 l 1,0,-1
351 210 m 1,4,-1
 351 339 l 1,5,-1
 479 339 l 1,6,-1
 479 210 l 1,7,-1
 351 210 l 1,4,-1
492 351 m 1,8,-1
 492 480 l 1,9,-1
 621 480 l 1,10,-1
 621 351 l 1,11,-1
 492 351 l 1,8,-1
209 493 m 1,12,-1
 209 622 l 1,13,-1
 338 622 l 1,14,-1
 338 493 l 1,15,-1
 209 493 l 1,12,-1
351 493 m 1,16,-1
 351 622 l 1,17,-1
 479 622 l 1,18,-1
 479 493 l 1,19,-1
 351 493 l 1,16,-1
492 493 m 1,20,-1
 492 622 l 1,21,-1
 621 622 l 1,22,-1
 621 493 l 1,23,-1
 492 493 l 1,20,-1
492 635 m 1,24,-1
 492 764 l 1,25,-1
 621 764 l 1,26,-1
 621 635 l 1,27,-1
 492 635 l 1,24,-1
351 777 m 1,28,-1
 351 906 l 1,29,-1
 479 906 l 1,30,-1
 479 777 l 1,31,-1
 351 777 l 1,28,-1
634 493 m 1,32,-1
 634 622 l 1,33,-1
 764 622 l 1,34,-1
 764 493 l 1,35,-1
 634 493 l 1,32,-1
EndSplineSet
Validated: 1
EndChar

StartChar: uni007F
Encoding: 127 127 98
Width: 801
Flags: W
LayerCount: 2
Fore
SplineSet
66 493 m 1,0,-1
 66 622 l 1,1,-1
 196 622 l 1,2,-1
 196 493 l 1,3,-1
 66 493 l 1,0,-1
351 210 m 1,4,-1
 351 339 l 1,5,-1
 479 339 l 1,6,-1
 479 210 l 1,7,-1
 351 210 l 1,4,-1
209 351 m 1,8,-1
 209 480 l 1,9,-1
 338 480 l 1,10,-1
 338 351 l 1,11,-1
 209 351 l 1,8,-1
209 493 m 1,12,-1
 209 622 l 1,13,-1
 338 622 l 1,14,-1
 338 493 l 1,15,-1
 209 493 l 1,12,-1
351 493 m 1,16,-1
 351 622 l 1,17,-1
 479 622 l 1,18,-1
 479 493 l 1,19,-1
 351 493 l 1,16,-1
492 493 m 1,20,-1
 492 622 l 1,21,-1
 621 622 l 1,22,-1
 621 493 l 1,23,-1
 492 493 l 1,20,-1
209 635 m 1,24,-1
 209 764 l 1,25,-1
 338 764 l 1,26,-1
 338 635 l 1,27,-1
 209 635 l 1,24,-1
351 777 m 1,28,-1
 351 906 l 1,29,-1
 479 906 l 1,30,-1
 479 777 l 1,31,-1
 351 777 l 1,28,-1
634 493 m 1,32,-1
 634 622 l 1,33,-1
 764 622 l 1,34,-1
 764 493 l 1,35,-1
 634 493 l 1,32,-1
EndSplineSet
Validated: 1
EndChar

StartChar: uni0080
Encoding: 128 128 99
Width: 801
Flags: W
LayerCount: 2
Fore
SplineSet
66 351 m 1,0,-1
 66 480 l 1,1,-1
 196 480 l 1,2,-1
 196 351 l 1,3,-1
 66 351 l 1,0,-1
209 351 m 1,4,-1
 209 480 l 1,5,-1
 338 480 l 1,6,-1
 338 351 l 1,7,-1
 209 351 l 1,4,-1
351 351 m 1,8,-1
 351 480 l 1,9,-1
 479 480 l 1,10,-1
 479 351 l 1,11,-1
 351 351 l 1,8,-1
492 351 m 1,12,-1
 492 480 l 1,13,-1
 621 480 l 1,14,-1
 621 351 l 1,15,-1
 492 351 l 1,12,-1
209 493 m 1,16,-1
 209 622 l 1,17,-1
 338 622 l 1,18,-1
 338 493 l 1,19,-1
 209 493 l 1,16,-1
351 493 m 1,20,-1
 351 622 l 1,21,-1
 479 622 l 1,22,-1
 479 493 l 1,23,-1
 351 493 l 1,20,-1
492 493 m 1,24,-1
 492 622 l 1,25,-1
 621 622 l 1,26,-1
 621 493 l 1,27,-1
 492 493 l 1,24,-1
209 635 m 1,28,-1
 209 764 l 1,29,-1
 338 764 l 1,30,-1
 338 635 l 1,31,-1
 209 635 l 1,28,-1
351 635 m 1,32,-1
 351 764 l 1,33,-1
 479 764 l 1,34,-1
 479 635 l 1,35,-1
 351 635 l 1,32,-1
492 635 m 1,36,-1
 492 764 l 1,37,-1
 621 764 l 1,38,-1
 621 635 l 1,39,-1
 492 635 l 1,36,-1
209 777 m 1,40,-1
 209 906 l 1,41,-1
 338 906 l 1,42,-1
 338 777 l 1,43,-1
 209 777 l 1,40,-1
351 777 m 1,44,-1
 351 906 l 1,45,-1
 479 906 l 1,46,-1
 479 777 l 1,47,-1
 351 777 l 1,44,-1
492 777 m 1,48,-1
 492 906 l 1,49,-1
 621 906 l 1,50,-1
 621 777 l 1,51,-1
 492 777 l 1,48,-1
351 68 m 1,52,-1
 351 196 l 1,53,-1
 479 196 l 1,54,-1
 479 68 l 1,55,-1
 351 68 l 1,52,-1
634 352 m 1,56,-1
 634 481 l 1,57,-1
 764 481 l 1,58,-1
 764 352 l 1,59,-1
 634 352 l 1,56,-1
351 919 m 1,60,-1
 351 1048 l 1,61,-1
 479 1048 l 1,62,-1
 479 919 l 1,63,-1
 351 919 l 1,60,-1
EndSplineSet
Validated: 1
EndChar

StartChar: uni0081
Encoding: 129 129 100
Width: 801
Flags: W
LayerCount: 2
Fore
SplineSet
66 351 m 1,0,-1
 66 480 l 1,1,-1
 196 480 l 1,2,-1
 196 351 l 1,3,-1
 66 351 l 1,0,-1
66 493 m 1,4,-1
 66 622 l 1,5,-1
 196 622 l 1,6,-1
 196 493 l 1,7,-1
 66 493 l 1,4,-1
66 635 m 1,8,-1
 66 764 l 1,9,-1
 196 764 l 1,10,-1
 196 635 l 1,11,-1
 66 635 l 1,8,-1
492 351 m 1,12,-1
 492 480 l 1,13,-1
 621 480 l 1,14,-1
 621 351 l 1,15,-1
 492 351 l 1,12,-1
209 493 m 1,16,-1
 209 622 l 1,17,-1
 338 622 l 1,18,-1
 338 493 l 1,19,-1
 209 493 l 1,16,-1
351 493 m 1,20,-1
 351 622 l 1,21,-1
 479 622 l 1,22,-1
 479 493 l 1,23,-1
 351 493 l 1,20,-1
492 493 m 1,24,-1
 492 622 l 1,25,-1
 621 622 l 1,26,-1
 621 493 l 1,27,-1
 492 493 l 1,24,-1
492 635 m 1,28,-1
 492 764 l 1,29,-1
 621 764 l 1,30,-1
 621 635 l 1,31,-1
 492 635 l 1,28,-1
634 210 m 1,32,-1
 634 339 l 1,33,-1
 764 339 l 1,34,-1
 764 210 l 1,35,-1
 634 210 l 1,32,-1
634 352 m 1,36,-1
 634 481 l 1,37,-1
 764 481 l 1,38,-1
 764 352 l 1,39,-1
 634 352 l 1,36,-1
634 493 m 1,40,-1
 634 622 l 1,41,-1
 764 622 l 1,42,-1
 764 493 l 1,43,-1
 634 493 l 1,40,-1
634 635 m 1,44,-1
 634 764 l 1,45,-1
 764 764 l 1,46,-1
 764 635 l 1,47,-1
 634 635 l 1,44,-1
634 777 m 1,48,-1
 634 906 l 1,49,-1
 764 906 l 1,50,-1
 764 777 l 1,51,-1
 634 777 l 1,48,-1
EndSplineSet
Validated: 1
EndChar

StartChar: uni0082
Encoding: 130 130 101
Width: 801
Flags: W
LayerCount: 2
Fore
SplineSet
66 -73 m 1,0,-1
 66 55 l 1,1,-1
 196 55 l 1,2,-1
 196 -73 l 1,3,-1
 66 -73 l 1,0,-1
634 -73 m 1,4,-1
 634 55 l 1,5,-1
 764 55 l 1,6,-1
 764 -73 l 1,7,-1
 634 -73 l 1,4,-1
209 -73 m 1,8,-1
 209 55 l 1,9,-1
 338 55 l 1,10,-1
 338 -73 l 1,11,-1
 209 -73 l 1,8,-1
351 -73 m 1,12,-1
 351 55 l 1,13,-1
 479 55 l 1,14,-1
 479 -73 l 1,15,-1
 351 -73 l 1,12,-1
492 -73 m 1,16,-1
 492 55 l 1,17,-1
 621 55 l 1,18,-1
 621 -73 l 1,19,-1
 492 -73 l 1,16,-1
66 210 m 1,20,-1
 66 339 l 1,21,-1
 196 339 l 1,22,-1
 196 210 l 1,23,-1
 66 210 l 1,20,-1
66 351 m 1,24,-1
 66 480 l 1,25,-1
 196 480 l 1,26,-1
 196 351 l 1,27,-1
 66 351 l 1,24,-1
66 493 m 1,28,-1
 66 622 l 1,29,-1
 196 622 l 1,30,-1
 196 493 l 1,31,-1
 66 493 l 1,28,-1
66 635 m 1,32,-1
 66 764 l 1,33,-1
 196 764 l 1,34,-1
 196 635 l 1,35,-1
 66 635 l 1,32,-1
66 777 m 1,36,-1
 66 906 l 1,37,-1
 196 906 l 1,38,-1
 196 777 l 1,39,-1
 66 777 l 1,36,-1
66 68 m 1,40,-1
 66 196 l 1,41,-1
 196 196 l 1,42,-1
 196 68 l 1,43,-1
 66 68 l 1,40,-1
634 68 m 1,44,-1
 634 196 l 1,45,-1
 764 196 l 1,46,-1
 764 68 l 1,47,-1
 634 68 l 1,44,-1
634 919 m 1,48,-1
 634 1048 l 1,49,-1
 764 1048 l 1,50,-1
 764 919 l 1,51,-1
 634 919 l 1,48,-1
66 919 m 1,52,-1
 66 1048 l 1,53,-1
 196 1048 l 1,54,-1
 196 919 l 1,55,-1
 66 919 l 1,52,-1
634 210 m 1,56,-1
 634 339 l 1,57,-1
 764 339 l 1,58,-1
 764 210 l 1,59,-1
 634 210 l 1,56,-1
634 352 m 1,60,-1
 634 481 l 1,61,-1
 764 481 l 1,62,-1
 764 352 l 1,63,-1
 634 352 l 1,60,-1
634 493 m 1,64,-1
 634 622 l 1,65,-1
 764 622 l 1,66,-1
 764 493 l 1,67,-1
 634 493 l 1,64,-1
634 635 m 1,68,-1
 634 764 l 1,69,-1
 764 764 l 1,70,-1
 764 635 l 1,71,-1
 634 635 l 1,68,-1
634 777 m 1,72,-1
 634 906 l 1,73,-1
 764 906 l 1,74,-1
 764 777 l 1,75,-1
 634 777 l 1,72,-1
EndSplineSet
Validated: 1
EndChar

StartChar: uni0083
Encoding: 131 131 102
Width: 801
Flags: W
LayerCount: 2
Fore
SplineSet
66 -73 m 1,0,-1
 66 55 l 1,1,-1
 196 55 l 1,2,-1
 196 -73 l 1,3,-1
 66 -73 l 1,0,-1
634 -73 m 1,4,-1
 634 55 l 1,5,-1
 764 55 l 1,6,-1
 764 -73 l 1,7,-1
 634 -73 l 1,4,-1
209 -73 m 1,8,-1
 209 55 l 1,9,-1
 338 55 l 1,10,-1
 338 -73 l 1,11,-1
 209 -73 l 1,8,-1
351 -73 m 1,12,-1
 351 55 l 1,13,-1
 479 55 l 1,14,-1
 479 -73 l 1,15,-1
 351 -73 l 1,12,-1
492 -73 m 1,16,-1
 492 55 l 1,17,-1
 621 55 l 1,18,-1
 621 -73 l 1,19,-1
 492 -73 l 1,16,-1
66 210 m 1,20,-1
 66 339 l 1,21,-1
 196 339 l 1,22,-1
 196 210 l 1,23,-1
 66 210 l 1,20,-1
66 351 m 1,24,-1
 66 480 l 1,25,-1
 196 480 l 1,26,-1
 196 351 l 1,27,-1
 66 351 l 1,24,-1
66 493 m 1,28,-1
 66 622 l 1,29,-1
 196 622 l 1,30,-1
 196 493 l 1,31,-1
 66 493 l 1,28,-1
66 635 m 1,32,-1
 66 764 l 1,33,-1
 196 764 l 1,34,-1
 196 635 l 1,35,-1
 66 635 l 1,32,-1
66 777 m 1,36,-1
 66 906 l 1,37,-1
 196 906 l 1,38,-1
 196 777 l 1,39,-1
 66 777 l 1,36,-1
209 210 m 1,40,-1
 209 339 l 1,41,-1
 338 339 l 1,42,-1
 338 210 l 1,43,-1
 209 210 l 1,40,-1
351 210 m 1,44,-1
 351 339 l 1,45,-1
 479 339 l 1,46,-1
 479 210 l 1,47,-1
 351 210 l 1,44,-1
492 210 m 1,48,-1
 492 339 l 1,49,-1
 621 339 l 1,50,-1
 621 210 l 1,51,-1
 492 210 l 1,48,-1
209 351 m 1,52,-1
 209 480 l 1,53,-1
 338 480 l 1,54,-1
 338 351 l 1,55,-1
 209 351 l 1,52,-1
351 351 m 1,56,-1
 351 480 l 1,57,-1
 479 480 l 1,58,-1
 479 351 l 1,59,-1
 351 351 l 1,56,-1
492 351 m 1,60,-1
 492 480 l 1,61,-1
 621 480 l 1,62,-1
 621 351 l 1,63,-1
 492 351 l 1,60,-1
209 493 m 1,64,-1
 209 622 l 1,65,-1
 338 622 l 1,66,-1
 338 493 l 1,67,-1
 209 493 l 1,64,-1
351 493 m 1,68,-1
 351 622 l 1,69,-1
 479 622 l 1,70,-1
 479 493 l 1,71,-1
 351 493 l 1,68,-1
492 493 m 1,72,-1
 492 622 l 1,73,-1
 621 622 l 1,74,-1
 621 493 l 1,75,-1
 492 493 l 1,72,-1
66 68 m 1,76,-1
 66 196 l 1,77,-1
 196 196 l 1,78,-1
 196 68 l 1,79,-1
 66 68 l 1,76,-1
634 68 m 1,80,-1
 634 196 l 1,81,-1
 764 196 l 1,82,-1
 764 68 l 1,83,-1
 634 68 l 1,80,-1
634 919 m 1,84,-1
 634 1048 l 1,85,-1
 764 1048 l 1,86,-1
 764 919 l 1,87,-1
 634 919 l 1,84,-1
66 919 m 1,88,-1
 66 1048 l 1,89,-1
 196 1048 l 1,90,-1
 196 919 l 1,91,-1
 66 919 l 1,88,-1
209 68 m 1,92,-1
 209 196 l 1,93,-1
 338 196 l 1,94,-1
 338 68 l 1,95,-1
 209 68 l 1,92,-1
351 68 m 1,96,-1
 351 196 l 1,97,-1
 479 196 l 1,98,-1
 479 68 l 1,99,-1
 351 68 l 1,96,-1
492 68 m 1,100,-1
 492 196 l 1,101,-1
 621 196 l 1,102,-1
 621 68 l 1,103,-1
 492 68 l 1,100,-1
634 210 m 1,104,-1
 634 339 l 1,105,-1
 764 339 l 1,106,-1
 764 210 l 1,107,-1
 634 210 l 1,104,-1
634 352 m 1,108,-1
 634 481 l 1,109,-1
 764 481 l 1,110,-1
 764 352 l 1,111,-1
 634 352 l 1,108,-1
634 493 m 1,112,-1
 634 622 l 1,113,-1
 764 622 l 1,114,-1
 764 493 l 1,115,-1
 634 493 l 1,112,-1
634 635 m 1,116,-1
 634 764 l 1,117,-1
 764 764 l 1,118,-1
 764 635 l 1,119,-1
 634 635 l 1,116,-1
634 777 m 1,120,-1
 634 906 l 1,121,-1
 764 906 l 1,122,-1
 764 777 l 1,123,-1
 634 777 l 1,120,-1
EndSplineSet
Validated: 1
EndChar

StartChar: uni0084
Encoding: 132 132 103
Width: 801
Flags: W
LayerCount: 2
Fore
SplineSet
66 -73 m 1,0,-1
 66 55 l 1,1,-1
 196 55 l 1,2,-1
 196 -73 l 1,3,-1
 66 -73 l 1,0,-1
634 -73 m 1,4,-1
 634 55 l 1,5,-1
 764 55 l 1,6,-1
 764 -73 l 1,7,-1
 634 -73 l 1,4,-1
66 210 m 1,8,-1
 66 339 l 1,9,-1
 196 339 l 1,10,-1
 196 210 l 1,11,-1
 66 210 l 1,8,-1
66 351 m 1,12,-1
 66 480 l 1,13,-1
 196 480 l 1,14,-1
 196 351 l 1,15,-1
 66 351 l 1,12,-1
66 493 m 1,16,-1
 66 622 l 1,17,-1
 196 622 l 1,18,-1
 196 493 l 1,19,-1
 66 493 l 1,16,-1
66 635 m 1,20,-1
 66 764 l 1,21,-1
 196 764 l 1,22,-1
 196 635 l 1,23,-1
 66 635 l 1,20,-1
66 777 m 1,24,-1
 66 906 l 1,25,-1
 196 906 l 1,26,-1
 196 777 l 1,27,-1
 66 777 l 1,24,-1
66 68 m 1,28,-1
 66 196 l 1,29,-1
 196 196 l 1,30,-1
 196 68 l 1,31,-1
 66 68 l 1,28,-1
634 68 m 1,32,-1
 634 196 l 1,33,-1
 764 196 l 1,34,-1
 764 68 l 1,35,-1
 634 68 l 1,32,-1
634 919 m 1,36,-1
 634 1048 l 1,37,-1
 764 1048 l 1,38,-1
 764 919 l 1,39,-1
 634 919 l 1,36,-1
66 919 m 1,40,-1
 66 1048 l 1,41,-1
 196 1048 l 1,42,-1
 196 919 l 1,43,-1
 66 919 l 1,40,-1
634 210 m 1,44,-1
 634 339 l 1,45,-1
 764 339 l 1,46,-1
 764 210 l 1,47,-1
 634 210 l 1,44,-1
634 352 m 1,48,-1
 634 481 l 1,49,-1
 764 481 l 1,50,-1
 764 352 l 1,51,-1
 634 352 l 1,48,-1
634 493 m 1,52,-1
 634 622 l 1,53,-1
 764 622 l 1,54,-1
 764 493 l 1,55,-1
 634 493 l 1,52,-1
634 635 m 1,56,-1
 634 764 l 1,57,-1
 764 764 l 1,58,-1
 764 635 l 1,59,-1
 634 635 l 1,56,-1
634 777 m 1,60,-1
 634 906 l 1,61,-1
 764 906 l 1,62,-1
 764 777 l 1,63,-1
 634 777 l 1,60,-1
209 919 m 1,64,-1
 209 1048 l 1,65,-1
 338 1048 l 1,66,-1
 338 919 l 1,67,-1
 209 919 l 1,64,-1
351 919 m 1,68,-1
 351 1048 l 1,69,-1
 479 1048 l 1,70,-1
 479 919 l 1,71,-1
 351 919 l 1,68,-1
492 919 m 1,72,-1
 492 1048 l 1,73,-1
 621 1048 l 1,74,-1
 621 919 l 1,75,-1
 492 919 l 1,72,-1
EndSplineSet
Validated: 1
EndChar

StartChar: uni0085
Encoding: 133 133 104
Width: 801
Flags: W
LayerCount: 2
Fore
SplineSet
66 -73 m 1,0,-1
 66 55 l 1,1,-1
 196 55 l 1,2,-1
 196 -73 l 1,3,-1
 66 -73 l 1,0,-1
634 -73 m 1,4,-1
 634 55 l 1,5,-1
 764 55 l 1,6,-1
 764 -73 l 1,7,-1
 634 -73 l 1,4,-1
209 -73 m 1,8,-1
 209 55 l 1,9,-1
 338 55 l 1,10,-1
 338 -73 l 1,11,-1
 209 -73 l 1,8,-1
351 -73 m 1,12,-1
 351 55 l 1,13,-1
 479 55 l 1,14,-1
 479 -73 l 1,15,-1
 351 -73 l 1,12,-1
492 -73 m 1,16,-1
 492 55 l 1,17,-1
 621 55 l 1,18,-1
 621 -73 l 1,19,-1
 492 -73 l 1,16,-1
66 210 m 1,20,-1
 66 339 l 1,21,-1
 196 339 l 1,22,-1
 196 210 l 1,23,-1
 66 210 l 1,20,-1
66 351 m 1,24,-1
 66 480 l 1,25,-1
 196 480 l 1,26,-1
 196 351 l 1,27,-1
 66 351 l 1,24,-1
66 493 m 1,28,-1
 66 622 l 1,29,-1
 196 622 l 1,30,-1
 196 493 l 1,31,-1
 66 493 l 1,28,-1
66 635 m 1,32,-1
 66 764 l 1,33,-1
 196 764 l 1,34,-1
 196 635 l 1,35,-1
 66 635 l 1,32,-1
66 777 m 1,36,-1
 66 906 l 1,37,-1
 196 906 l 1,38,-1
 196 777 l 1,39,-1
 66 777 l 1,36,-1
209 210 m 1,40,-1
 209 339 l 1,41,-1
 338 339 l 1,42,-1
 338 210 l 1,43,-1
 209 210 l 1,40,-1
351 210 m 1,44,-1
 351 339 l 1,45,-1
 479 339 l 1,46,-1
 479 210 l 1,47,-1
 351 210 l 1,44,-1
492 210 m 1,48,-1
 492 339 l 1,49,-1
 621 339 l 1,50,-1
 621 210 l 1,51,-1
 492 210 l 1,48,-1
66 68 m 1,52,-1
 66 196 l 1,53,-1
 196 196 l 1,54,-1
 196 68 l 1,55,-1
 66 68 l 1,52,-1
634 68 m 1,56,-1
 634 196 l 1,57,-1
 764 196 l 1,58,-1
 764 68 l 1,59,-1
 634 68 l 1,56,-1
634 919 m 1,60,-1
 634 1048 l 1,61,-1
 764 1048 l 1,62,-1
 764 919 l 1,63,-1
 634 919 l 1,60,-1
66 919 m 1,64,-1
 66 1048 l 1,65,-1
 196 1048 l 1,66,-1
 196 919 l 1,67,-1
 66 919 l 1,64,-1
209 68 m 1,68,-1
 209 196 l 1,69,-1
 338 196 l 1,70,-1
 338 68 l 1,71,-1
 209 68 l 1,68,-1
351 68 m 1,72,-1
 351 196 l 1,73,-1
 479 196 l 1,74,-1
 479 68 l 1,75,-1
 351 68 l 1,72,-1
492 68 m 1,76,-1
 492 196 l 1,77,-1
 621 196 l 1,78,-1
 621 68 l 1,79,-1
 492 68 l 1,76,-1
634 210 m 1,80,-1
 634 339 l 1,81,-1
 764 339 l 1,82,-1
 764 210 l 1,83,-1
 634 210 l 1,80,-1
634 352 m 1,84,-1
 634 481 l 1,85,-1
 764 481 l 1,86,-1
 764 352 l 1,87,-1
 634 352 l 1,84,-1
634 493 m 1,88,-1
 634 622 l 1,89,-1
 764 622 l 1,90,-1
 764 493 l 1,91,-1
 634 493 l 1,88,-1
634 635 m 1,92,-1
 634 764 l 1,93,-1
 764 764 l 1,94,-1
 764 635 l 1,95,-1
 634 635 l 1,92,-1
634 777 m 1,96,-1
 634 906 l 1,97,-1
 764 906 l 1,98,-1
 764 777 l 1,99,-1
 634 777 l 1,96,-1
209 919 m 1,100,-1
 209 1048 l 1,101,-1
 338 1048 l 1,102,-1
 338 919 l 1,103,-1
 209 919 l 1,100,-1
351 919 m 1,104,-1
 351 1048 l 1,105,-1
 479 1048 l 1,106,-1
 479 919 l 1,107,-1
 351 919 l 1,104,-1
492 919 m 1,108,-1
 492 1048 l 1,109,-1
 621 1048 l 1,110,-1
 621 919 l 1,111,-1
 492 919 l 1,108,-1
EndSplineSet
Validated: 1
EndChar

StartChar: uni0086
Encoding: 134 134 105
Width: 801
Flags: W
LayerCount: 2
Fore
SplineSet
66 -73 m 1,0,-1
 66 55 l 1,1,-1
 196 55 l 1,2,-1
 196 -73 l 1,3,-1
 66 -73 l 1,0,-1
634 -73 m 1,4,-1
 634 55 l 1,5,-1
 764 55 l 1,6,-1
 764 -73 l 1,7,-1
 634 -73 l 1,4,-1
209 -73 m 1,8,-1
 209 55 l 1,9,-1
 338 55 l 1,10,-1
 338 -73 l 1,11,-1
 209 -73 l 1,8,-1
351 -73 m 1,12,-1
 351 55 l 1,13,-1
 479 55 l 1,14,-1
 479 -73 l 1,15,-1
 351 -73 l 1,12,-1
492 -73 m 1,16,-1
 492 55 l 1,17,-1
 621 55 l 1,18,-1
 621 -73 l 1,19,-1
 492 -73 l 1,16,-1
66 210 m 1,20,-1
 66 339 l 1,21,-1
 196 339 l 1,22,-1
 196 210 l 1,23,-1
 66 210 l 1,20,-1
66 351 m 1,24,-1
 66 480 l 1,25,-1
 196 480 l 1,26,-1
 196 351 l 1,27,-1
 66 351 l 1,24,-1
66 493 m 1,28,-1
 66 622 l 1,29,-1
 196 622 l 1,30,-1
 196 493 l 1,31,-1
 66 493 l 1,28,-1
66 635 m 1,32,-1
 66 764 l 1,33,-1
 196 764 l 1,34,-1
 196 635 l 1,35,-1
 66 635 l 1,32,-1
66 777 m 1,36,-1
 66 906 l 1,37,-1
 196 906 l 1,38,-1
 196 777 l 1,39,-1
 66 777 l 1,36,-1
209 210 m 1,40,-1
 209 339 l 1,41,-1
 338 339 l 1,42,-1
 338 210 l 1,43,-1
 209 210 l 1,40,-1
351 210 m 1,44,-1
 351 339 l 1,45,-1
 479 339 l 1,46,-1
 479 210 l 1,47,-1
 351 210 l 1,44,-1
492 210 m 1,48,-1
 492 339 l 1,49,-1
 621 339 l 1,50,-1
 621 210 l 1,51,-1
 492 210 l 1,48,-1
209 351 m 1,52,-1
 209 480 l 1,53,-1
 338 480 l 1,54,-1
 338 351 l 1,55,-1
 209 351 l 1,52,-1
351 351 m 1,56,-1
 351 480 l 1,57,-1
 479 480 l 1,58,-1
 479 351 l 1,59,-1
 351 351 l 1,56,-1
492 351 m 1,60,-1
 492 480 l 1,61,-1
 621 480 l 1,62,-1
 621 351 l 1,63,-1
 492 351 l 1,60,-1
209 493 m 1,64,-1
 209 622 l 1,65,-1
 338 622 l 1,66,-1
 338 493 l 1,67,-1
 209 493 l 1,64,-1
351 493 m 1,68,-1
 351 622 l 1,69,-1
 479 622 l 1,70,-1
 479 493 l 1,71,-1
 351 493 l 1,68,-1
492 493 m 1,72,-1
 492 622 l 1,73,-1
 621 622 l 1,74,-1
 621 493 l 1,75,-1
 492 493 l 1,72,-1
209 635 m 1,76,-1
 209 764 l 1,77,-1
 338 764 l 1,78,-1
 338 635 l 1,79,-1
 209 635 l 1,76,-1
351 635 m 1,80,-1
 351 764 l 1,81,-1
 479 764 l 1,82,-1
 479 635 l 1,83,-1
 351 635 l 1,80,-1
492 635 m 1,84,-1
 492 764 l 1,85,-1
 621 764 l 1,86,-1
 621 635 l 1,87,-1
 492 635 l 1,84,-1
209 777 m 1,88,-1
 209 906 l 1,89,-1
 338 906 l 1,90,-1
 338 777 l 1,91,-1
 209 777 l 1,88,-1
351 777 m 1,92,-1
 351 906 l 1,93,-1
 479 906 l 1,94,-1
 479 777 l 1,95,-1
 351 777 l 1,92,-1
492 777 m 1,96,-1
 492 906 l 1,97,-1
 621 906 l 1,98,-1
 621 777 l 1,99,-1
 492 777 l 1,96,-1
66 68 m 1,100,-1
 66 196 l 1,101,-1
 196 196 l 1,102,-1
 196 68 l 1,103,-1
 66 68 l 1,100,-1
634 68 m 1,104,-1
 634 196 l 1,105,-1
 764 196 l 1,106,-1
 764 68 l 1,107,-1
 634 68 l 1,104,-1
634 919 m 1,108,-1
 634 1048 l 1,109,-1
 764 1048 l 1,110,-1
 764 919 l 1,111,-1
 634 919 l 1,108,-1
66 919 m 1,112,-1
 66 1048 l 1,113,-1
 196 1048 l 1,114,-1
 196 919 l 1,115,-1
 66 919 l 1,112,-1
209 68 m 1,116,-1
 209 196 l 1,117,-1
 338 196 l 1,118,-1
 338 68 l 1,119,-1
 209 68 l 1,116,-1
351 68 m 1,120,-1
 351 196 l 1,121,-1
 479 196 l 1,122,-1
 479 68 l 1,123,-1
 351 68 l 1,120,-1
492 68 m 1,124,-1
 492 196 l 1,125,-1
 621 196 l 1,126,-1
 621 68 l 1,127,-1
 492 68 l 1,124,-1
634 210 m 1,128,-1
 634 339 l 1,129,-1
 764 339 l 1,130,-1
 764 210 l 1,131,-1
 634 210 l 1,128,-1
634 352 m 1,132,-1
 634 481 l 1,133,-1
 764 481 l 1,134,-1
 764 352 l 1,135,-1
 634 352 l 1,132,-1
634 493 m 1,136,-1
 634 622 l 1,137,-1
 764 622 l 1,138,-1
 764 493 l 1,139,-1
 634 493 l 1,136,-1
634 635 m 1,140,-1
 634 764 l 1,141,-1
 764 764 l 1,142,-1
 764 635 l 1,143,-1
 634 635 l 1,140,-1
634 777 m 1,144,-1
 634 906 l 1,145,-1
 764 906 l 1,146,-1
 764 777 l 1,147,-1
 634 777 l 1,144,-1
209 919 m 1,148,-1
 209 1048 l 1,149,-1
 338 1048 l 1,150,-1
 338 919 l 1,151,-1
 209 919 l 1,148,-1
351 919 m 1,152,-1
 351 1048 l 1,153,-1
 479 1048 l 1,154,-1
 479 919 l 1,155,-1
 351 919 l 1,152,-1
492 919 m 1,156,-1
 492 1048 l 1,157,-1
 621 1048 l 1,158,-1
 621 919 l 1,159,-1
 492 919 l 1,156,-1
EndSplineSet
Validated: 1
EndChar

StartChar: uni0087
Encoding: 135 135 106
Width: 801
Flags: W
LayerCount: 2
Fore
SplineSet
66 210 m 1,0,-1
 66 339 l 1,1,-1
 196 339 l 1,2,-1
 196 210 l 1,3,-1
 66 210 l 1,0,-1
66 351 m 1,4,-1
 66 480 l 1,5,-1
 196 480 l 1,6,-1
 196 351 l 1,7,-1
 66 351 l 1,4,-1
66 493 m 1,8,-1
 66 622 l 1,9,-1
 196 622 l 1,10,-1
 196 493 l 1,11,-1
 66 493 l 1,8,-1
66 635 m 1,12,-1
 66 764 l 1,13,-1
 196 764 l 1,14,-1
 196 635 l 1,15,-1
 66 635 l 1,12,-1
66 777 m 1,16,-1
 66 906 l 1,17,-1
 196 906 l 1,18,-1
 196 777 l 1,19,-1
 66 777 l 1,16,-1
209 210 m 1,20,-1
 209 339 l 1,21,-1
 338 339 l 1,22,-1
 338 210 l 1,23,-1
 209 210 l 1,20,-1
351 210 m 1,24,-1
 351 339 l 1,25,-1
 479 339 l 1,26,-1
 479 210 l 1,27,-1
 351 210 l 1,24,-1
492 210 m 1,28,-1
 492 339 l 1,29,-1
 621 339 l 1,30,-1
 621 210 l 1,31,-1
 492 210 l 1,28,-1
209 351 m 1,32,-1
 209 480 l 1,33,-1
 338 480 l 1,34,-1
 338 351 l 1,35,-1
 209 351 l 1,32,-1
351 351 m 1,36,-1
 351 480 l 1,37,-1
 479 480 l 1,38,-1
 479 351 l 1,39,-1
 351 351 l 1,36,-1
492 351 m 1,40,-1
 492 480 l 1,41,-1
 621 480 l 1,42,-1
 621 351 l 1,43,-1
 492 351 l 1,40,-1
209 493 m 1,44,-1
 209 622 l 1,45,-1
 338 622 l 1,46,-1
 338 493 l 1,47,-1
 209 493 l 1,44,-1
351 493 m 1,48,-1
 351 622 l 1,49,-1
 479 622 l 1,50,-1
 479 493 l 1,51,-1
 351 493 l 1,48,-1
492 493 m 1,52,-1
 492 622 l 1,53,-1
 621 622 l 1,54,-1
 621 493 l 1,55,-1
 492 493 l 1,52,-1
209 635 m 1,56,-1
 209 764 l 1,57,-1
 338 764 l 1,58,-1
 338 635 l 1,59,-1
 209 635 l 1,56,-1
351 635 m 1,60,-1
 351 764 l 1,61,-1
 479 764 l 1,62,-1
 479 635 l 1,63,-1
 351 635 l 1,60,-1
492 635 m 1,64,-1
 492 764 l 1,65,-1
 621 764 l 1,66,-1
 621 635 l 1,67,-1
 492 635 l 1,64,-1
209 777 m 1,68,-1
 209 906 l 1,69,-1
 338 906 l 1,70,-1
 338 777 l 1,71,-1
 209 777 l 1,68,-1
351 777 m 1,72,-1
 351 906 l 1,73,-1
 479 906 l 1,74,-1
 479 777 l 1,75,-1
 351 777 l 1,72,-1
492 777 m 1,76,-1
 492 906 l 1,77,-1
 621 906 l 1,78,-1
 621 777 l 1,79,-1
 492 777 l 1,76,-1
66 68 m 1,80,-1
 66 196 l 1,81,-1
 196 196 l 1,82,-1
 196 68 l 1,83,-1
 66 68 l 1,80,-1
634 68 m 1,84,-1
 634 196 l 1,85,-1
 764 196 l 1,86,-1
 764 68 l 1,87,-1
 634 68 l 1,84,-1
209 68 m 1,88,-1
 209 196 l 1,89,-1
 338 196 l 1,90,-1
 338 68 l 1,91,-1
 209 68 l 1,88,-1
351 68 m 1,92,-1
 351 196 l 1,93,-1
 479 196 l 1,94,-1
 479 68 l 1,95,-1
 351 68 l 1,92,-1
492 68 m 1,96,-1
 492 196 l 1,97,-1
 621 196 l 1,98,-1
 621 68 l 1,99,-1
 492 68 l 1,96,-1
634 210 m 1,100,-1
 634 339 l 1,101,-1
 764 339 l 1,102,-1
 764 210 l 1,103,-1
 634 210 l 1,100,-1
634 352 m 1,104,-1
 634 481 l 1,105,-1
 764 481 l 1,106,-1
 764 352 l 1,107,-1
 634 352 l 1,104,-1
634 493 m 1,108,-1
 634 622 l 1,109,-1
 764 622 l 1,110,-1
 764 493 l 1,111,-1
 634 493 l 1,108,-1
634 635 m 1,112,-1
 634 764 l 1,113,-1
 764 764 l 1,114,-1
 764 635 l 1,115,-1
 634 635 l 1,112,-1
634 777 m 1,116,-1
 634 906 l 1,117,-1
 764 906 l 1,118,-1
 764 777 l 1,119,-1
 634 777 l 1,116,-1
209 919 m 1,120,-1
 209 1048 l 1,121,-1
 338 1048 l 1,122,-1
 338 919 l 1,123,-1
 209 919 l 1,120,-1
351 919 m 1,124,-1
 351 1048 l 1,125,-1
 479 1048 l 1,126,-1
 479 919 l 1,127,-1
 351 919 l 1,124,-1
492 919 m 1,128,-1
 492 1048 l 1,129,-1
 621 1048 l 1,130,-1
 621 919 l 1,131,-1
 492 919 l 1,128,-1
EndSplineSet
Validated: 1
EndChar

StartChar: uni0088
Encoding: 136 136 107
Width: 801
Flags: W
LayerCount: 2
Fore
SplineSet
66 210 m 1,0,-1
 66 339 l 1,1,-1
 196 339 l 1,2,-1
 196 210 l 1,3,-1
 66 210 l 1,0,-1
66 351 m 1,4,-1
 66 480 l 1,5,-1
 196 480 l 1,6,-1
 196 351 l 1,7,-1
 66 351 l 1,4,-1
66 493 m 1,8,-1
 66 622 l 1,9,-1
 196 622 l 1,10,-1
 196 493 l 1,11,-1
 66 493 l 1,8,-1
66 635 m 1,12,-1
 66 764 l 1,13,-1
 196 764 l 1,14,-1
 196 635 l 1,15,-1
 66 635 l 1,12,-1
66 777 m 1,16,-1
 66 906 l 1,17,-1
 196 906 l 1,18,-1
 196 777 l 1,19,-1
 66 777 l 1,16,-1
209 210 m 1,20,-1
 209 339 l 1,21,-1
 338 339 l 1,22,-1
 338 210 l 1,23,-1
 209 210 l 1,20,-1
351 210 m 1,24,-1
 351 339 l 1,25,-1
 479 339 l 1,26,-1
 479 210 l 1,27,-1
 351 210 l 1,24,-1
492 210 m 1,28,-1
 492 339 l 1,29,-1
 621 339 l 1,30,-1
 621 210 l 1,31,-1
 492 210 l 1,28,-1
209 351 m 1,32,-1
 209 480 l 1,33,-1
 338 480 l 1,34,-1
 338 351 l 1,35,-1
 209 351 l 1,32,-1
351 351 m 1,36,-1
 351 480 l 1,37,-1
 479 480 l 1,38,-1
 479 351 l 1,39,-1
 351 351 l 1,36,-1
492 351 m 1,40,-1
 492 480 l 1,41,-1
 621 480 l 1,42,-1
 621 351 l 1,43,-1
 492 351 l 1,40,-1
209 777 m 1,44,-1
 209 906 l 1,45,-1
 338 906 l 1,46,-1
 338 777 l 1,47,-1
 209 777 l 1,44,-1
492 777 m 1,48,-1
 492 906 l 1,49,-1
 621 906 l 1,50,-1
 621 777 l 1,51,-1
 492 777 l 1,48,-1
66 68 m 1,52,-1
 66 196 l 1,53,-1
 196 196 l 1,54,-1
 196 68 l 1,55,-1
 66 68 l 1,52,-1
634 68 m 1,56,-1
 634 196 l 1,57,-1
 764 196 l 1,58,-1
 764 68 l 1,59,-1
 634 68 l 1,56,-1
209 68 m 1,60,-1
 209 196 l 1,61,-1
 338 196 l 1,62,-1
 338 68 l 1,63,-1
 209 68 l 1,60,-1
351 68 m 1,64,-1
 351 196 l 1,65,-1
 479 196 l 1,66,-1
 479 68 l 1,67,-1
 351 68 l 1,64,-1
492 68 m 1,68,-1
 492 196 l 1,69,-1
 621 196 l 1,70,-1
 621 68 l 1,71,-1
 492 68 l 1,68,-1
634 210 m 1,72,-1
 634 339 l 1,73,-1
 764 339 l 1,74,-1
 764 210 l 1,75,-1
 634 210 l 1,72,-1
634 352 m 1,76,-1
 634 481 l 1,77,-1
 764 481 l 1,78,-1
 764 352 l 1,79,-1
 634 352 l 1,76,-1
634 493 m 1,80,-1
 634 622 l 1,81,-1
 764 622 l 1,82,-1
 764 493 l 1,83,-1
 634 493 l 1,80,-1
634 635 m 1,84,-1
 634 764 l 1,85,-1
 764 764 l 1,86,-1
 764 635 l 1,87,-1
 634 635 l 1,84,-1
634 777 m 1,88,-1
 634 906 l 1,89,-1
 764 906 l 1,90,-1
 764 777 l 1,91,-1
 634 777 l 1,88,-1
209 919 m 1,92,-1
 209 1048 l 1,93,-1
 338 1048 l 1,94,-1
 338 919 l 1,95,-1
 209 919 l 1,92,-1
351 919 m 1,96,-1
 351 1048 l 1,97,-1
 479 1048 l 1,98,-1
 479 919 l 1,99,-1
 351 919 l 1,96,-1
492 919 m 1,100,-1
 492 1048 l 1,101,-1
 621 1048 l 1,102,-1
 621 919 l 1,103,-1
 492 919 l 1,100,-1
EndSplineSet
Validated: 1
EndChar

StartChar: uni0089
Encoding: 137 137 108
Width: 801
Flags: W
LayerCount: 2
Fore
SplineSet
66 210 m 1,0,-1
 66 339 l 1,1,-1
 196 339 l 1,2,-1
 196 210 l 1,3,-1
 66 210 l 1,0,-1
66 351 m 1,4,-1
 66 480 l 1,5,-1
 196 480 l 1,6,-1
 196 351 l 1,7,-1
 66 351 l 1,4,-1
66 493 m 1,8,-1
 66 622 l 1,9,-1
 196 622 l 1,10,-1
 196 493 l 1,11,-1
 66 493 l 1,8,-1
66 635 m 1,12,-1
 66 764 l 1,13,-1
 196 764 l 1,14,-1
 196 635 l 1,15,-1
 66 635 l 1,12,-1
66 777 m 1,16,-1
 66 906 l 1,17,-1
 196 906 l 1,18,-1
 196 777 l 1,19,-1
 66 777 l 1,16,-1
209 777 m 1,20,-1
 209 906 l 1,21,-1
 338 906 l 1,22,-1
 338 777 l 1,23,-1
 209 777 l 1,20,-1
492 777 m 1,24,-1
 492 906 l 1,25,-1
 621 906 l 1,26,-1
 621 777 l 1,27,-1
 492 777 l 1,24,-1
66 68 m 1,28,-1
 66 196 l 1,29,-1
 196 196 l 1,30,-1
 196 68 l 1,31,-1
 66 68 l 1,28,-1
634 68 m 1,32,-1
 634 196 l 1,33,-1
 764 196 l 1,34,-1
 764 68 l 1,35,-1
 634 68 l 1,32,-1
209 68 m 1,36,-1
 209 196 l 1,37,-1
 338 196 l 1,38,-1
 338 68 l 1,39,-1
 209 68 l 1,36,-1
351 68 m 1,40,-1
 351 196 l 1,41,-1
 479 196 l 1,42,-1
 479 68 l 1,43,-1
 351 68 l 1,40,-1
492 68 m 1,44,-1
 492 196 l 1,45,-1
 621 196 l 1,46,-1
 621 68 l 1,47,-1
 492 68 l 1,44,-1
634 210 m 1,48,-1
 634 339 l 1,49,-1
 764 339 l 1,50,-1
 764 210 l 1,51,-1
 634 210 l 1,48,-1
634 352 m 1,52,-1
 634 481 l 1,53,-1
 764 481 l 1,54,-1
 764 352 l 1,55,-1
 634 352 l 1,52,-1
634 493 m 1,56,-1
 634 622 l 1,57,-1
 764 622 l 1,58,-1
 764 493 l 1,59,-1
 634 493 l 1,56,-1
634 635 m 1,60,-1
 634 764 l 1,61,-1
 764 764 l 1,62,-1
 764 635 l 1,63,-1
 634 635 l 1,60,-1
634 777 m 1,64,-1
 634 906 l 1,65,-1
 764 906 l 1,66,-1
 764 777 l 1,67,-1
 634 777 l 1,64,-1
209 919 m 1,68,-1
 209 1048 l 1,69,-1
 338 1048 l 1,70,-1
 338 919 l 1,71,-1
 209 919 l 1,68,-1
351 919 m 1,72,-1
 351 1048 l 1,73,-1
 479 1048 l 1,74,-1
 479 919 l 1,75,-1
 351 919 l 1,72,-1
492 919 m 1,76,-1
 492 1048 l 1,77,-1
 621 1048 l 1,78,-1
 621 919 l 1,79,-1
 492 919 l 1,76,-1
EndSplineSet
Validated: 1
EndChar

StartChar: uni008A
Encoding: 138 138 109
Width: 801
Flags: W
LayerCount: 2
Fore
SplineSet
66 351 m 1,0,-1
 66 480 l 1,1,-1
 196 480 l 1,2,-1
 196 351 l 1,3,-1
 66 351 l 1,0,-1
66 493 m 1,4,-1
 66 622 l 1,5,-1
 196 622 l 1,6,-1
 196 493 l 1,7,-1
 66 493 l 1,4,-1
66 635 m 1,8,-1
 66 764 l 1,9,-1
 196 764 l 1,10,-1
 196 635 l 1,11,-1
 66 635 l 1,8,-1
209 210 m 1,12,-1
 209 339 l 1,13,-1
 338 339 l 1,14,-1
 338 210 l 1,15,-1
 209 210 l 1,12,-1
351 210 m 1,16,-1
 351 339 l 1,17,-1
 479 339 l 1,18,-1
 479 210 l 1,19,-1
 351 210 l 1,16,-1
492 210 m 1,20,-1
 492 339 l 1,21,-1
 621 339 l 1,22,-1
 621 210 l 1,23,-1
 492 210 l 1,20,-1
209 777 m 1,24,-1
 209 906 l 1,25,-1
 338 906 l 1,26,-1
 338 777 l 1,27,-1
 209 777 l 1,24,-1
351 777 m 1,28,-1
 351 906 l 1,29,-1
 479 906 l 1,30,-1
 479 777 l 1,31,-1
 351 777 l 1,28,-1
492 777 m 1,32,-1
 492 906 l 1,33,-1
 621 906 l 1,34,-1
 621 777 l 1,35,-1
 492 777 l 1,32,-1
634 352 m 1,36,-1
 634 481 l 1,37,-1
 764 481 l 1,38,-1
 764 352 l 1,39,-1
 634 352 l 1,36,-1
634 493 m 1,40,-1
 634 622 l 1,41,-1
 764 622 l 1,42,-1
 764 493 l 1,43,-1
 634 493 l 1,40,-1
634 635 m 1,44,-1
 634 764 l 1,45,-1
 764 764 l 1,46,-1
 764 635 l 1,47,-1
 634 635 l 1,44,-1
EndSplineSet
Validated: 1
EndChar

StartChar: uni008B
Encoding: 139 139 110
Width: 801
Flags: W
LayerCount: 2
Fore
SplineSet
66 351 m 1,0,-1
 66 480 l 1,1,-1
 196 480 l 1,2,-1
 196 351 l 1,3,-1
 66 351 l 1,0,-1
66 493 m 1,4,-1
 66 622 l 1,5,-1
 196 622 l 1,6,-1
 196 493 l 1,7,-1
 66 493 l 1,4,-1
66 635 m 1,8,-1
 66 764 l 1,9,-1
 196 764 l 1,10,-1
 196 635 l 1,11,-1
 66 635 l 1,8,-1
209 210 m 1,12,-1
 209 339 l 1,13,-1
 338 339 l 1,14,-1
 338 210 l 1,15,-1
 209 210 l 1,12,-1
351 210 m 1,16,-1
 351 339 l 1,17,-1
 479 339 l 1,18,-1
 479 210 l 1,19,-1
 351 210 l 1,16,-1
492 210 m 1,20,-1
 492 339 l 1,21,-1
 621 339 l 1,22,-1
 621 210 l 1,23,-1
 492 210 l 1,20,-1
209 351 m 1,24,-1
 209 480 l 1,25,-1
 338 480 l 1,26,-1
 338 351 l 1,27,-1
 209 351 l 1,24,-1
351 351 m 1,28,-1
 351 480 l 1,29,-1
 479 480 l 1,30,-1
 479 351 l 1,31,-1
 351 351 l 1,28,-1
492 351 m 1,32,-1
 492 480 l 1,33,-1
 621 480 l 1,34,-1
 621 351 l 1,35,-1
 492 351 l 1,32,-1
209 493 m 1,36,-1
 209 622 l 1,37,-1
 338 622 l 1,38,-1
 338 493 l 1,39,-1
 209 493 l 1,36,-1
351 493 m 1,40,-1
 351 622 l 1,41,-1
 479 622 l 1,42,-1
 479 493 l 1,43,-1
 351 493 l 1,40,-1
492 493 m 1,44,-1
 492 622 l 1,45,-1
 621 622 l 1,46,-1
 621 493 l 1,47,-1
 492 493 l 1,44,-1
209 635 m 1,48,-1
 209 764 l 1,49,-1
 338 764 l 1,50,-1
 338 635 l 1,51,-1
 209 635 l 1,48,-1
351 635 m 1,52,-1
 351 764 l 1,53,-1
 479 764 l 1,54,-1
 479 635 l 1,55,-1
 351 635 l 1,52,-1
492 635 m 1,56,-1
 492 764 l 1,57,-1
 621 764 l 1,58,-1
 621 635 l 1,59,-1
 492 635 l 1,56,-1
209 777 m 1,60,-1
 209 906 l 1,61,-1
 338 906 l 1,62,-1
 338 777 l 1,63,-1
 209 777 l 1,60,-1
351 777 m 1,64,-1
 351 906 l 1,65,-1
 479 906 l 1,66,-1
 479 777 l 1,67,-1
 351 777 l 1,64,-1
492 777 m 1,68,-1
 492 906 l 1,69,-1
 621 906 l 1,70,-1
 621 777 l 1,71,-1
 492 777 l 1,68,-1
634 352 m 1,72,-1
 634 481 l 1,73,-1
 764 481 l 1,74,-1
 764 352 l 1,75,-1
 634 352 l 1,72,-1
634 493 m 1,76,-1
 634 622 l 1,77,-1
 764 622 l 1,78,-1
 764 493 l 1,79,-1
 634 493 l 1,76,-1
634 635 m 1,80,-1
 634 764 l 1,81,-1
 764 764 l 1,82,-1
 764 635 l 1,83,-1
 634 635 l 1,80,-1
EndSplineSet
Validated: 1
EndChar

StartChar: uni008C
Encoding: 140 140 111
Width: 801
Flags: W
LayerCount: 2
Fore
SplineSet
66 351 m 1,0,-1
 66 480 l 1,1,-1
 196 480 l 1,2,-1
 196 351 l 1,3,-1
 66 351 l 1,0,-1
66 493 m 1,4,-1
 66 622 l 1,5,-1
 196 622 l 1,6,-1
 196 493 l 1,7,-1
 66 493 l 1,4,-1
66 635 m 1,8,-1
 66 764 l 1,9,-1
 196 764 l 1,10,-1
 196 635 l 1,11,-1
 66 635 l 1,8,-1
66 777 m 1,12,-1
 66 906 l 1,13,-1
 196 906 l 1,14,-1
 196 777 l 1,15,-1
 66 777 l 1,12,-1
351 351 m 1,16,-1
 351 480 l 1,17,-1
 479 480 l 1,18,-1
 479 351 l 1,19,-1
 351 351 l 1,16,-1
351 493 m 1,20,-1
 351 622 l 1,21,-1
 479 622 l 1,22,-1
 479 493 l 1,23,-1
 351 493 l 1,20,-1
209 635 m 1,24,-1
 209 764 l 1,25,-1
 338 764 l 1,26,-1
 338 635 l 1,27,-1
 209 635 l 1,24,-1
351 635 m 1,28,-1
 351 764 l 1,29,-1
 479 764 l 1,30,-1
 479 635 l 1,31,-1
 351 635 l 1,28,-1
351 777 m 1,32,-1
 351 906 l 1,33,-1
 479 906 l 1,34,-1
 479 777 l 1,35,-1
 351 777 l 1,32,-1
209 919 m 1,36,-1
 209 1048 l 1,37,-1
 338 1048 l 1,38,-1
 338 919 l 1,39,-1
 209 919 l 1,36,-1
EndSplineSet
Validated: 1
EndChar

StartChar: uni008D
Encoding: 141 141 112
Width: 801
Flags: W
LayerCount: 2
Fore
SplineSet
66 210 m 1,0,-1
 66 339 l 1,1,-1
 196 339 l 1,2,-1
 196 210 l 1,3,-1
 66 210 l 1,0,-1
66 351 m 1,4,-1
 66 480 l 1,5,-1
 196 480 l 1,6,-1
 196 351 l 1,7,-1
 66 351 l 1,4,-1
66 493 m 1,8,-1
 66 622 l 1,9,-1
 196 622 l 1,10,-1
 196 493 l 1,11,-1
 66 493 l 1,8,-1
66 635 m 1,12,-1
 66 764 l 1,13,-1
 196 764 l 1,14,-1
 196 635 l 1,15,-1
 66 635 l 1,12,-1
209 351 m 1,16,-1
 209 480 l 1,17,-1
 338 480 l 1,18,-1
 338 351 l 1,19,-1
 209 351 l 1,16,-1
351 351 m 1,20,-1
 351 480 l 1,21,-1
 479 480 l 1,22,-1
 479 351 l 1,23,-1
 351 351 l 1,20,-1
351 493 m 1,24,-1
 351 622 l 1,25,-1
 479 622 l 1,26,-1
 479 493 l 1,27,-1
 351 493 l 1,24,-1
209 635 m 1,28,-1
 209 764 l 1,29,-1
 338 764 l 1,30,-1
 338 635 l 1,31,-1
 209 635 l 1,28,-1
351 635 m 1,32,-1
 351 764 l 1,33,-1
 479 764 l 1,34,-1
 479 635 l 1,35,-1
 351 635 l 1,32,-1
66 68 m 1,36,-1
 66 196 l 1,37,-1
 196 196 l 1,38,-1
 196 68 l 1,39,-1
 66 68 l 1,36,-1
EndSplineSet
Validated: 1
EndChar

StartChar: uni0090
Encoding: 144 144 115
Width: 801
Flags: W
LayerCount: 2
Fore
SplineSet
66 493 m 1,0,-1
 66 622 l 1,1,-1
 196 622 l 1,2,-1
 196 493 l 1,3,-1
 66 493 l 1,0,-1
66 635 m 1,4,-1
 66 764 l 1,5,-1
 196 764 l 1,6,-1
 196 635 l 1,7,-1
 66 635 l 1,4,-1
66 777 m 1,8,-1
 66 906 l 1,9,-1
 196 906 l 1,10,-1
 196 777 l 1,11,-1
 66 777 l 1,8,-1
351 210 m 1,12,-1
 351 339 l 1,13,-1
 479 339 l 1,14,-1
 479 210 l 1,15,-1
 351 210 l 1,12,-1
209 351 m 1,16,-1
 209 480 l 1,17,-1
 338 480 l 1,18,-1
 338 351 l 1,19,-1
 209 351 l 1,16,-1
492 351 m 1,20,-1
 492 480 l 1,21,-1
 621 480 l 1,22,-1
 621 351 l 1,23,-1
 492 351 l 1,20,-1
351 493 m 1,24,-1
 351 622 l 1,25,-1
 479 622 l 1,26,-1
 479 493 l 1,27,-1
 351 493 l 1,24,-1
209 635 m 1,28,-1
 209 764 l 1,29,-1
 338 764 l 1,30,-1
 338 635 l 1,31,-1
 209 635 l 1,28,-1
351 635 m 1,32,-1
 351 764 l 1,33,-1
 479 764 l 1,34,-1
 479 635 l 1,35,-1
 351 635 l 1,32,-1
351 777 m 1,36,-1
 351 906 l 1,37,-1
 479 906 l 1,38,-1
 479 777 l 1,39,-1
 351 777 l 1,36,-1
209 68 m 1,40,-1
 209 196 l 1,41,-1
 338 196 l 1,42,-1
 338 68 l 1,43,-1
 209 68 l 1,40,-1
492 68 m 1,44,-1
 492 196 l 1,45,-1
 621 196 l 1,46,-1
 621 68 l 1,47,-1
 492 68 l 1,44,-1
209 919 m 1,48,-1
 209 1048 l 1,49,-1
 338 1048 l 1,50,-1
 338 919 l 1,51,-1
 209 919 l 1,48,-1
EndSplineSet
Validated: 1
EndChar

StartChar: uni0091
Encoding: 145 145 116
Width: 801
Flags: W
LayerCount: 2
Fore
SplineSet
209 210 m 1,0,-1
 209 339 l 1,1,-1
 338 339 l 1,2,-1
 338 210 l 1,3,-1
 209 210 l 1,0,-1
351 210 m 1,4,-1
 351 339 l 1,5,-1
 479 339 l 1,6,-1
 479 210 l 1,7,-1
 351 210 l 1,4,-1
492 210 m 1,8,-1
 492 339 l 1,9,-1
 621 339 l 1,10,-1
 621 210 l 1,11,-1
 492 210 l 1,8,-1
209 351 m 1,12,-1
 209 480 l 1,13,-1
 338 480 l 1,14,-1
 338 351 l 1,15,-1
 209 351 l 1,12,-1
351 351 m 1,16,-1
 351 480 l 1,17,-1
 479 480 l 1,18,-1
 479 351 l 1,19,-1
 351 351 l 1,16,-1
492 351 m 1,20,-1
 492 480 l 1,21,-1
 621 480 l 1,22,-1
 621 351 l 1,23,-1
 492 351 l 1,20,-1
209 493 m 1,24,-1
 209 622 l 1,25,-1
 338 622 l 1,26,-1
 338 493 l 1,27,-1
 209 493 l 1,24,-1
351 493 m 1,28,-1
 351 622 l 1,29,-1
 479 622 l 1,30,-1
 479 493 l 1,31,-1
 351 493 l 1,28,-1
492 493 m 1,32,-1
 492 622 l 1,33,-1
 621 622 l 1,34,-1
 621 493 l 1,35,-1
 492 493 l 1,32,-1
209 635 m 1,36,-1
 209 764 l 1,37,-1
 338 764 l 1,38,-1
 338 635 l 1,39,-1
 209 635 l 1,36,-1
351 635 m 1,40,-1
 351 764 l 1,41,-1
 479 764 l 1,42,-1
 479 635 l 1,43,-1
 351 635 l 1,40,-1
492 635 m 1,44,-1
 492 764 l 1,45,-1
 621 764 l 1,46,-1
 621 635 l 1,47,-1
 492 635 l 1,44,-1
66 68 m 1,48,-1
 66 196 l 1,49,-1
 196 196 l 1,50,-1
 196 68 l 1,51,-1
 66 68 l 1,48,-1
634 68 m 1,52,-1
 634 196 l 1,53,-1
 764 196 l 1,54,-1
 764 68 l 1,55,-1
 634 68 l 1,52,-1
209 68 m 1,56,-1
 209 196 l 1,57,-1
 338 196 l 1,58,-1
 338 68 l 1,59,-1
 209 68 l 1,56,-1
351 68 m 1,60,-1
 351 196 l 1,61,-1
 479 196 l 1,62,-1
 479 68 l 1,63,-1
 351 68 l 1,60,-1
492 68 m 1,64,-1
 492 196 l 1,65,-1
 621 196 l 1,66,-1
 621 68 l 1,67,-1
 492 68 l 1,64,-1
EndSplineSet
Validated: 1
EndChar

StartChar: uni0092
Encoding: 146 146 117
Width: 801
Flags: W
LayerCount: 2
Fore
SplineSet
209 210 m 1,0,-1
 209 339 l 1,1,-1
 338 339 l 1,2,-1
 338 210 l 1,3,-1
 209 210 l 1,0,-1
351 210 m 1,4,-1
 351 339 l 1,5,-1
 479 339 l 1,6,-1
 479 210 l 1,7,-1
 351 210 l 1,4,-1
492 210 m 1,8,-1
 492 339 l 1,9,-1
 621 339 l 1,10,-1
 621 210 l 1,11,-1
 492 210 l 1,8,-1
209 351 m 1,12,-1
 209 480 l 1,13,-1
 338 480 l 1,14,-1
 338 351 l 1,15,-1
 209 351 l 1,12,-1
351 351 m 1,16,-1
 351 480 l 1,17,-1
 479 480 l 1,18,-1
 479 351 l 1,19,-1
 351 351 l 1,16,-1
492 351 m 1,20,-1
 492 480 l 1,21,-1
 621 480 l 1,22,-1
 621 351 l 1,23,-1
 492 351 l 1,20,-1
66 68 m 1,24,-1
 66 196 l 1,25,-1
 196 196 l 1,26,-1
 196 68 l 1,27,-1
 66 68 l 1,24,-1
634 68 m 1,28,-1
 634 196 l 1,29,-1
 764 196 l 1,30,-1
 764 68 l 1,31,-1
 634 68 l 1,28,-1
209 68 m 1,32,-1
 209 196 l 1,33,-1
 338 196 l 1,34,-1
 338 68 l 1,35,-1
 209 68 l 1,32,-1
351 68 m 1,36,-1
 351 196 l 1,37,-1
 479 196 l 1,38,-1
 479 68 l 1,39,-1
 351 68 l 1,36,-1
492 68 m 1,40,-1
 492 196 l 1,41,-1
 621 196 l 1,42,-1
 621 68 l 1,43,-1
 492 68 l 1,40,-1
EndSplineSet
Validated: 1
EndChar

StartChar: uni0093
Encoding: 147 147 118
Width: 801
Flags: W
LayerCount: 2
Fore
SplineSet
66 635 m 1,0,-1
 66 764 l 1,1,-1
 196 764 l 1,2,-1
 196 635 l 1,3,-1
 66 635 l 1,0,-1
351 351 m 1,4,-1
 351 480 l 1,5,-1
 479 480 l 1,6,-1
 479 351 l 1,7,-1
 351 351 l 1,4,-1
209 493 m 1,8,-1
 209 622 l 1,9,-1
 338 622 l 1,10,-1
 338 493 l 1,11,-1
 209 493 l 1,8,-1
351 493 m 1,12,-1
 351 622 l 1,13,-1
 479 622 l 1,14,-1
 479 493 l 1,15,-1
 351 493 l 1,12,-1
492 493 m 1,16,-1
 492 622 l 1,17,-1
 621 622 l 1,18,-1
 621 493 l 1,19,-1
 492 493 l 1,16,-1
351 635 m 1,20,-1
 351 764 l 1,21,-1
 479 764 l 1,22,-1
 479 635 l 1,23,-1
 351 635 l 1,20,-1
351 777 m 1,24,-1
 351 906 l 1,25,-1
 479 906 l 1,26,-1
 479 777 l 1,27,-1
 351 777 l 1,24,-1
66 68 m 1,28,-1
 66 196 l 1,29,-1
 196 196 l 1,30,-1
 196 68 l 1,31,-1
 66 68 l 1,28,-1
634 68 m 1,32,-1
 634 196 l 1,33,-1
 764 196 l 1,34,-1
 764 68 l 1,35,-1
 634 68 l 1,32,-1
209 68 m 1,36,-1
 209 196 l 1,37,-1
 338 196 l 1,38,-1
 338 68 l 1,39,-1
 209 68 l 1,36,-1
351 68 m 1,40,-1
 351 196 l 1,41,-1
 479 196 l 1,42,-1
 479 68 l 1,43,-1
 351 68 l 1,40,-1
492 68 m 1,44,-1
 492 196 l 1,45,-1
 621 196 l 1,46,-1
 621 68 l 1,47,-1
 492 68 l 1,44,-1
634 635 m 1,48,-1
 634 764 l 1,49,-1
 764 764 l 1,50,-1
 764 635 l 1,51,-1
 634 635 l 1,48,-1
351 919 m 1,52,-1
 351 1048 l 1,53,-1
 479 1048 l 1,54,-1
 479 919 l 1,55,-1
 351 919 l 1,52,-1
EndSplineSet
Validated: 1
EndChar

StartChar: uni0094
Encoding: 148 148 119
Width: 801
Flags: W
LayerCount: 2
Fore
SplineSet
66 -73 m 1,0,-1
 66 55 l 1,1,-1
 196 55 l 1,2,-1
 196 -73 l 1,3,-1
 66 -73 l 1,0,-1
634 -73 m 1,4,-1
 634 55 l 1,5,-1
 764 55 l 1,6,-1
 764 -73 l 1,7,-1
 634 -73 l 1,4,-1
209 -73 m 1,8,-1
 209 55 l 1,9,-1
 338 55 l 1,10,-1
 338 -73 l 1,11,-1
 209 -73 l 1,8,-1
351 -73 m 1,12,-1
 351 55 l 1,13,-1
 479 55 l 1,14,-1
 479 -73 l 1,15,-1
 351 -73 l 1,12,-1
492 -73 m 1,16,-1
 492 55 l 1,17,-1
 621 55 l 1,18,-1
 621 -73 l 1,19,-1
 492 -73 l 1,16,-1
66 210 m 1,20,-1
 66 339 l 1,21,-1
 196 339 l 1,22,-1
 196 210 l 1,23,-1
 66 210 l 1,20,-1
66 351 m 1,24,-1
 66 480 l 1,25,-1
 196 480 l 1,26,-1
 196 351 l 1,27,-1
 66 351 l 1,24,-1
66 493 m 1,28,-1
 66 622 l 1,29,-1
 196 622 l 1,30,-1
 196 493 l 1,31,-1
 66 493 l 1,28,-1
66 635 m 1,32,-1
 66 764 l 1,33,-1
 196 764 l 1,34,-1
 196 635 l 1,35,-1
 66 635 l 1,32,-1
209 210 m 1,36,-1
 209 339 l 1,37,-1
 338 339 l 1,38,-1
 338 210 l 1,39,-1
 209 210 l 1,36,-1
351 210 m 1,40,-1
 351 339 l 1,41,-1
 479 339 l 1,42,-1
 479 210 l 1,43,-1
 351 210 l 1,40,-1
492 210 m 1,44,-1
 492 339 l 1,45,-1
 621 339 l 1,46,-1
 621 210 l 1,47,-1
 492 210 l 1,44,-1
209 351 m 1,48,-1
 209 480 l 1,49,-1
 338 480 l 1,50,-1
 338 351 l 1,51,-1
 209 351 l 1,48,-1
351 351 m 1,52,-1
 351 480 l 1,53,-1
 479 480 l 1,54,-1
 479 351 l 1,55,-1
 351 351 l 1,52,-1
492 351 m 1,56,-1
 492 480 l 1,57,-1
 621 480 l 1,58,-1
 621 351 l 1,59,-1
 492 351 l 1,56,-1
209 493 m 1,60,-1
 209 622 l 1,61,-1
 338 622 l 1,62,-1
 338 493 l 1,63,-1
 209 493 l 1,60,-1
351 493 m 1,64,-1
 351 622 l 1,65,-1
 479 622 l 1,66,-1
 479 493 l 1,67,-1
 351 493 l 1,64,-1
492 493 m 1,68,-1
 492 622 l 1,69,-1
 621 622 l 1,70,-1
 621 493 l 1,71,-1
 492 493 l 1,68,-1
209 635 m 1,72,-1
 209 764 l 1,73,-1
 338 764 l 1,74,-1
 338 635 l 1,75,-1
 209 635 l 1,72,-1
351 635 m 1,76,-1
 351 764 l 1,77,-1
 479 764 l 1,78,-1
 479 635 l 1,79,-1
 351 635 l 1,76,-1
492 635 m 1,80,-1
 492 764 l 1,81,-1
 621 764 l 1,82,-1
 621 635 l 1,83,-1
 492 635 l 1,80,-1
209 777 m 1,84,-1
 209 906 l 1,85,-1
 338 906 l 1,86,-1
 338 777 l 1,87,-1
 209 777 l 1,84,-1
351 777 m 1,88,-1
 351 906 l 1,89,-1
 479 906 l 1,90,-1
 479 777 l 1,91,-1
 351 777 l 1,88,-1
492 777 m 1,92,-1
 492 906 l 1,93,-1
 621 906 l 1,94,-1
 621 777 l 1,95,-1
 492 777 l 1,92,-1
66 68 m 1,96,-1
 66 196 l 1,97,-1
 196 196 l 1,98,-1
 196 68 l 1,99,-1
 66 68 l 1,96,-1
634 68 m 1,100,-1
 634 196 l 1,101,-1
 764 196 l 1,102,-1
 764 68 l 1,103,-1
 634 68 l 1,100,-1
634 919 m 1,104,-1
 634 1048 l 1,105,-1
 764 1048 l 1,106,-1
 764 919 l 1,107,-1
 634 919 l 1,104,-1
209 68 m 1,108,-1
 209 196 l 1,109,-1
 338 196 l 1,110,-1
 338 68 l 1,111,-1
 209 68 l 1,108,-1
351 68 m 1,112,-1
 351 196 l 1,113,-1
 479 196 l 1,114,-1
 479 68 l 1,115,-1
 351 68 l 1,112,-1
492 68 m 1,116,-1
 492 196 l 1,117,-1
 621 196 l 1,118,-1
 621 68 l 1,119,-1
 492 68 l 1,116,-1
634 210 m 1,120,-1
 634 339 l 1,121,-1
 764 339 l 1,122,-1
 764 210 l 1,123,-1
 634 210 l 1,120,-1
634 352 m 1,124,-1
 634 481 l 1,125,-1
 764 481 l 1,126,-1
 764 352 l 1,127,-1
 634 352 l 1,124,-1
634 493 m 1,128,-1
 634 622 l 1,129,-1
 764 622 l 1,130,-1
 764 493 l 1,131,-1
 634 493 l 1,128,-1
634 635 m 1,132,-1
 634 764 l 1,133,-1
 764 764 l 1,134,-1
 764 635 l 1,135,-1
 634 635 l 1,132,-1
634 777 m 1,136,-1
 634 906 l 1,137,-1
 764 906 l 1,138,-1
 764 777 l 1,139,-1
 634 777 l 1,136,-1
351 919 m 1,140,-1
 351 1048 l 1,141,-1
 479 1048 l 1,142,-1
 479 919 l 1,143,-1
 351 919 l 1,140,-1
492 919 m 1,144,-1
 492 1048 l 1,145,-1
 621 1048 l 1,146,-1
 621 919 l 1,147,-1
 492 919 l 1,144,-1
EndSplineSet
Validated: 1
EndChar

StartChar: uni0095
Encoding: 149 149 120
Width: 801
Flags: W
LayerCount: 2
Fore
SplineSet
66 635 m 1,0,-1
 66 764 l 1,1,-1
 196 764 l 1,2,-1
 196 635 l 1,3,-1
 66 635 l 1,0,-1
66 777 m 1,4,-1
 66 906 l 1,5,-1
 196 906 l 1,6,-1
 196 777 l 1,7,-1
 66 777 l 1,4,-1
209 635 m 1,8,-1
 209 764 l 1,9,-1
 338 764 l 1,10,-1
 338 635 l 1,11,-1
 209 635 l 1,8,-1
351 635 m 1,12,-1
 351 764 l 1,13,-1
 479 764 l 1,14,-1
 479 635 l 1,15,-1
 351 635 l 1,12,-1
492 635 m 1,16,-1
 492 764 l 1,17,-1
 621 764 l 1,18,-1
 621 635 l 1,19,-1
 492 635 l 1,16,-1
209 777 m 1,20,-1
 209 906 l 1,21,-1
 338 906 l 1,22,-1
 338 777 l 1,23,-1
 209 777 l 1,20,-1
351 777 m 1,24,-1
 351 906 l 1,25,-1
 479 906 l 1,26,-1
 479 777 l 1,27,-1
 351 777 l 1,24,-1
492 777 m 1,28,-1
 492 906 l 1,29,-1
 621 906 l 1,30,-1
 621 777 l 1,31,-1
 492 777 l 1,28,-1
634 919 m 1,32,-1
 634 1048 l 1,33,-1
 764 1048 l 1,34,-1
 764 919 l 1,35,-1
 634 919 l 1,32,-1
66 919 m 1,36,-1
 66 1048 l 1,37,-1
 196 1048 l 1,38,-1
 196 919 l 1,39,-1
 66 919 l 1,36,-1
634 635 m 1,40,-1
 634 764 l 1,41,-1
 764 764 l 1,42,-1
 764 635 l 1,43,-1
 634 635 l 1,40,-1
634 777 m 1,44,-1
 634 906 l 1,45,-1
 764 906 l 1,46,-1
 764 777 l 1,47,-1
 634 777 l 1,44,-1
209 919 m 1,48,-1
 209 1048 l 1,49,-1
 338 1048 l 1,50,-1
 338 919 l 1,51,-1
 209 919 l 1,48,-1
351 919 m 1,52,-1
 351 1048 l 1,53,-1
 479 1048 l 1,54,-1
 479 919 l 1,55,-1
 351 919 l 1,52,-1
492 919 m 1,56,-1
 492 1048 l 1,57,-1
 621 1048 l 1,58,-1
 621 919 l 1,59,-1
 492 919 l 1,56,-1
EndSplineSet
Validated: 1
EndChar

StartChar: uni0096
Encoding: 150 150 121
Width: 801
Flags: W
LayerCount: 2
Fore
SplineSet
66 -73 m 1,0,-1
 66 55 l 1,1,-1
 196 55 l 1,2,-1
 196 -73 l 1,3,-1
 66 -73 l 1,0,-1
634 -73 m 1,4,-1
 634 55 l 1,5,-1
 764 55 l 1,6,-1
 764 -73 l 1,7,-1
 634 -73 l 1,4,-1
209 -73 m 1,8,-1
 209 55 l 1,9,-1
 338 55 l 1,10,-1
 338 -73 l 1,11,-1
 209 -73 l 1,8,-1
351 -73 m 1,12,-1
 351 55 l 1,13,-1
 479 55 l 1,14,-1
 479 -73 l 1,15,-1
 351 -73 l 1,12,-1
492 -73 m 1,16,-1
 492 55 l 1,17,-1
 621 55 l 1,18,-1
 621 -73 l 1,19,-1
 492 -73 l 1,16,-1
66 210 m 1,20,-1
 66 339 l 1,21,-1
 196 339 l 1,22,-1
 196 210 l 1,23,-1
 66 210 l 1,20,-1
66 351 m 1,24,-1
 66 480 l 1,25,-1
 196 480 l 1,26,-1
 196 351 l 1,27,-1
 66 351 l 1,24,-1
66 493 m 1,28,-1
 66 622 l 1,29,-1
 196 622 l 1,30,-1
 196 493 l 1,31,-1
 66 493 l 1,28,-1
66 635 m 1,32,-1
 66 764 l 1,33,-1
 196 764 l 1,34,-1
 196 635 l 1,35,-1
 66 635 l 1,32,-1
66 777 m 1,36,-1
 66 906 l 1,37,-1
 196 906 l 1,38,-1
 196 777 l 1,39,-1
 66 777 l 1,36,-1
209 210 m 1,40,-1
 209 339 l 1,41,-1
 338 339 l 1,42,-1
 338 210 l 1,43,-1
 209 210 l 1,40,-1
351 210 m 1,44,-1
 351 339 l 1,45,-1
 479 339 l 1,46,-1
 479 210 l 1,47,-1
 351 210 l 1,44,-1
492 210 m 1,48,-1
 492 339 l 1,49,-1
 621 339 l 1,50,-1
 621 210 l 1,51,-1
 492 210 l 1,48,-1
209 351 m 1,52,-1
 209 480 l 1,53,-1
 338 480 l 1,54,-1
 338 351 l 1,55,-1
 209 351 l 1,52,-1
351 351 m 1,56,-1
 351 480 l 1,57,-1
 479 480 l 1,58,-1
 479 351 l 1,59,-1
 351 351 l 1,56,-1
492 351 m 1,60,-1
 492 480 l 1,61,-1
 621 480 l 1,62,-1
 621 351 l 1,63,-1
 492 351 l 1,60,-1
209 493 m 1,64,-1
 209 622 l 1,65,-1
 338 622 l 1,66,-1
 338 493 l 1,67,-1
 209 493 l 1,64,-1
351 493 m 1,68,-1
 351 622 l 1,69,-1
 479 622 l 1,70,-1
 479 493 l 1,71,-1
 351 493 l 1,68,-1
492 493 m 1,72,-1
 492 622 l 1,73,-1
 621 622 l 1,74,-1
 621 493 l 1,75,-1
 492 493 l 1,72,-1
209 635 m 1,76,-1
 209 764 l 1,77,-1
 338 764 l 1,78,-1
 338 635 l 1,79,-1
 209 635 l 1,76,-1
351 635 m 1,80,-1
 351 764 l 1,81,-1
 479 764 l 1,82,-1
 479 635 l 1,83,-1
 351 635 l 1,80,-1
492 635 m 1,84,-1
 492 764 l 1,85,-1
 621 764 l 1,86,-1
 621 635 l 1,87,-1
 492 635 l 1,84,-1
209 777 m 1,88,-1
 209 906 l 1,89,-1
 338 906 l 1,90,-1
 338 777 l 1,91,-1
 209 777 l 1,88,-1
351 777 m 1,92,-1
 351 906 l 1,93,-1
 479 906 l 1,94,-1
 479 777 l 1,95,-1
 351 777 l 1,92,-1
492 777 m 1,96,-1
 492 906 l 1,97,-1
 621 906 l 1,98,-1
 621 777 l 1,99,-1
 492 777 l 1,96,-1
66 68 m 1,100,-1
 66 196 l 1,101,-1
 196 196 l 1,102,-1
 196 68 l 1,103,-1
 66 68 l 1,100,-1
634 68 m 1,104,-1
 634 196 l 1,105,-1
 764 196 l 1,106,-1
 764 68 l 1,107,-1
 634 68 l 1,104,-1
66 919 m 1,108,-1
 66 1048 l 1,109,-1
 196 1048 l 1,110,-1
 196 919 l 1,111,-1
 66 919 l 1,108,-1
209 68 m 1,112,-1
 209 196 l 1,113,-1
 338 196 l 1,114,-1
 338 68 l 1,115,-1
 209 68 l 1,112,-1
351 68 m 1,116,-1
 351 196 l 1,117,-1
 479 196 l 1,118,-1
 479 68 l 1,119,-1
 351 68 l 1,116,-1
492 68 m 1,120,-1
 492 196 l 1,121,-1
 621 196 l 1,122,-1
 621 68 l 1,123,-1
 492 68 l 1,120,-1
634 210 m 1,124,-1
 634 339 l 1,125,-1
 764 339 l 1,126,-1
 764 210 l 1,127,-1
 634 210 l 1,124,-1
634 352 m 1,128,-1
 634 481 l 1,129,-1
 764 481 l 1,130,-1
 764 352 l 1,131,-1
 634 352 l 1,128,-1
634 493 m 1,132,-1
 634 622 l 1,133,-1
 764 622 l 1,134,-1
 764 493 l 1,135,-1
 634 493 l 1,132,-1
634 635 m 1,136,-1
 634 764 l 1,137,-1
 764 764 l 1,138,-1
 764 635 l 1,139,-1
 634 635 l 1,136,-1
209 919 m 1,140,-1
 209 1048 l 1,141,-1
 338 1048 l 1,142,-1
 338 919 l 1,143,-1
 209 919 l 1,140,-1
351 919 m 1,144,-1
 351 1048 l 1,145,-1
 479 1048 l 1,146,-1
 479 919 l 1,147,-1
 351 919 l 1,144,-1
EndSplineSet
Validated: 1
EndChar

StartChar: uni0097
Encoding: 151 151 122
Width: 801
Flags: W
LayerCount: 2
Fore
SplineSet
634 -73 m 1,0,-1
 634 55 l 1,1,-1
 764 55 l 1,2,-1
 764 -73 l 1,3,-1
 634 -73 l 1,0,-1
351 -73 m 1,4,-1
 351 55 l 1,5,-1
 479 55 l 1,6,-1
 479 -73 l 1,7,-1
 351 -73 l 1,4,-1
492 -73 m 1,8,-1
 492 55 l 1,9,-1
 621 55 l 1,10,-1
 621 -73 l 1,11,-1
 492 -73 l 1,8,-1
66 210 m 1,12,-1
 66 339 l 1,13,-1
 196 339 l 1,14,-1
 196 210 l 1,15,-1
 66 210 l 1,12,-1
66 351 m 1,16,-1
 66 480 l 1,17,-1
 196 480 l 1,18,-1
 196 351 l 1,19,-1
 66 351 l 1,16,-1
66 493 m 1,20,-1
 66 622 l 1,21,-1
 196 622 l 1,22,-1
 196 493 l 1,23,-1
 66 493 l 1,20,-1
66 635 m 1,24,-1
 66 764 l 1,25,-1
 196 764 l 1,26,-1
 196 635 l 1,27,-1
 66 635 l 1,24,-1
66 777 m 1,28,-1
 66 906 l 1,29,-1
 196 906 l 1,30,-1
 196 777 l 1,31,-1
 66 777 l 1,28,-1
209 210 m 1,32,-1
 209 339 l 1,33,-1
 338 339 l 1,34,-1
 338 210 l 1,35,-1
 209 210 l 1,32,-1
351 210 m 1,36,-1
 351 339 l 1,37,-1
 479 339 l 1,38,-1
 479 210 l 1,39,-1
 351 210 l 1,36,-1
492 210 m 1,40,-1
 492 339 l 1,41,-1
 621 339 l 1,42,-1
 621 210 l 1,43,-1
 492 210 l 1,40,-1
209 351 m 1,44,-1
 209 480 l 1,45,-1
 338 480 l 1,46,-1
 338 351 l 1,47,-1
 209 351 l 1,44,-1
351 351 m 1,48,-1
 351 480 l 1,49,-1
 479 480 l 1,50,-1
 479 351 l 1,51,-1
 351 351 l 1,48,-1
492 351 m 1,52,-1
 492 480 l 1,53,-1
 621 480 l 1,54,-1
 621 351 l 1,55,-1
 492 351 l 1,52,-1
209 493 m 1,56,-1
 209 622 l 1,57,-1
 338 622 l 1,58,-1
 338 493 l 1,59,-1
 209 493 l 1,56,-1
351 493 m 1,60,-1
 351 622 l 1,61,-1
 479 622 l 1,62,-1
 479 493 l 1,63,-1
 351 493 l 1,60,-1
492 493 m 1,64,-1
 492 622 l 1,65,-1
 621 622 l 1,66,-1
 621 493 l 1,67,-1
 492 493 l 1,64,-1
209 635 m 1,68,-1
 209 764 l 1,69,-1
 338 764 l 1,70,-1
 338 635 l 1,71,-1
 209 635 l 1,68,-1
351 635 m 1,72,-1
 351 764 l 1,73,-1
 479 764 l 1,74,-1
 479 635 l 1,75,-1
 351 635 l 1,72,-1
492 635 m 1,76,-1
 492 764 l 1,77,-1
 621 764 l 1,78,-1
 621 635 l 1,79,-1
 492 635 l 1,76,-1
209 777 m 1,80,-1
 209 906 l 1,81,-1
 338 906 l 1,82,-1
 338 777 l 1,83,-1
 209 777 l 1,80,-1
351 777 m 1,84,-1
 351 906 l 1,85,-1
 479 906 l 1,86,-1
 479 777 l 1,87,-1
 351 777 l 1,84,-1
492 777 m 1,88,-1
 492 906 l 1,89,-1
 621 906 l 1,90,-1
 621 777 l 1,91,-1
 492 777 l 1,88,-1
634 68 m 1,92,-1
 634 196 l 1,93,-1
 764 196 l 1,94,-1
 764 68 l 1,95,-1
 634 68 l 1,92,-1
634 919 m 1,96,-1
 634 1048 l 1,97,-1
 764 1048 l 1,98,-1
 764 919 l 1,99,-1
 634 919 l 1,96,-1
66 919 m 1,100,-1
 66 1048 l 1,101,-1
 196 1048 l 1,102,-1
 196 919 l 1,103,-1
 66 919 l 1,100,-1
209 68 m 1,104,-1
 209 196 l 1,105,-1
 338 196 l 1,106,-1
 338 68 l 1,107,-1
 209 68 l 1,104,-1
351 68 m 1,108,-1
 351 196 l 1,109,-1
 479 196 l 1,110,-1
 479 68 l 1,111,-1
 351 68 l 1,108,-1
492 68 m 1,112,-1
 492 196 l 1,113,-1
 621 196 l 1,114,-1
 621 68 l 1,115,-1
 492 68 l 1,112,-1
634 210 m 1,116,-1
 634 339 l 1,117,-1
 764 339 l 1,118,-1
 764 210 l 1,119,-1
 634 210 l 1,116,-1
634 352 m 1,120,-1
 634 481 l 1,121,-1
 764 481 l 1,122,-1
 764 352 l 1,123,-1
 634 352 l 1,120,-1
634 493 m 1,124,-1
 634 622 l 1,125,-1
 764 622 l 1,126,-1
 764 493 l 1,127,-1
 634 493 l 1,124,-1
634 635 m 1,128,-1
 634 764 l 1,129,-1
 764 764 l 1,130,-1
 764 635 l 1,131,-1
 634 635 l 1,128,-1
634 777 m 1,132,-1
 634 906 l 1,133,-1
 764 906 l 1,134,-1
 764 777 l 1,135,-1
 634 777 l 1,132,-1
209 919 m 1,136,-1
 209 1048 l 1,137,-1
 338 1048 l 1,138,-1
 338 919 l 1,139,-1
 209 919 l 1,136,-1
351 919 m 1,140,-1
 351 1048 l 1,141,-1
 479 1048 l 1,142,-1
 479 919 l 1,143,-1
 351 919 l 1,140,-1
492 919 m 1,144,-1
 492 1048 l 1,145,-1
 621 1048 l 1,146,-1
 621 919 l 1,147,-1
 492 919 l 1,144,-1
EndSplineSet
Validated: 1
EndChar

StartChar: uni0098
Encoding: 152 152 123
Width: 801
Flags: W
LayerCount: 2
Fore
SplineSet
66 -73 m 1,0,-1
 66 55 l 1,1,-1
 196 55 l 1,2,-1
 196 -73 l 1,3,-1
 66 -73 l 1,0,-1
634 -73 m 1,4,-1
 634 55 l 1,5,-1
 764 55 l 1,6,-1
 764 -73 l 1,7,-1
 634 -73 l 1,4,-1
209 -73 m 1,8,-1
 209 55 l 1,9,-1
 338 55 l 1,10,-1
 338 -73 l 1,11,-1
 209 -73 l 1,8,-1
351 -73 m 1,12,-1
 351 55 l 1,13,-1
 479 55 l 1,14,-1
 479 -73 l 1,15,-1
 351 -73 l 1,12,-1
492 -73 m 1,16,-1
 492 55 l 1,17,-1
 621 55 l 1,18,-1
 621 -73 l 1,19,-1
 492 -73 l 1,16,-1
66 210 m 1,20,-1
 66 339 l 1,21,-1
 196 339 l 1,22,-1
 196 210 l 1,23,-1
 66 210 l 1,20,-1
209 210 m 1,24,-1
 209 339 l 1,25,-1
 338 339 l 1,26,-1
 338 210 l 1,27,-1
 209 210 l 1,24,-1
351 210 m 1,28,-1
 351 339 l 1,29,-1
 479 339 l 1,30,-1
 479 210 l 1,31,-1
 351 210 l 1,28,-1
492 210 m 1,32,-1
 492 339 l 1,33,-1
 621 339 l 1,34,-1
 621 210 l 1,35,-1
 492 210 l 1,32,-1
66 68 m 1,36,-1
 66 196 l 1,37,-1
 196 196 l 1,38,-1
 196 68 l 1,39,-1
 66 68 l 1,36,-1
634 68 m 1,40,-1
 634 196 l 1,41,-1
 764 196 l 1,42,-1
 764 68 l 1,43,-1
 634 68 l 1,40,-1
209 68 m 1,44,-1
 209 196 l 1,45,-1
 338 196 l 1,46,-1
 338 68 l 1,47,-1
 209 68 l 1,44,-1
351 68 m 1,48,-1
 351 196 l 1,49,-1
 479 196 l 1,50,-1
 479 68 l 1,51,-1
 351 68 l 1,48,-1
492 68 m 1,52,-1
 492 196 l 1,53,-1
 621 196 l 1,54,-1
 621 68 l 1,55,-1
 492 68 l 1,52,-1
634 210 m 1,56,-1
 634 339 l 1,57,-1
 764 339 l 1,58,-1
 764 210 l 1,59,-1
 634 210 l 1,56,-1
EndSplineSet
Validated: 1
EndChar

StartChar: uni0099
Encoding: 153 153 124
Width: 801
Flags: W
LayerCount: 2
Fore
SplineSet
66 -73 m 1,0,-1
 66 55 l 1,1,-1
 196 55 l 1,2,-1
 196 -73 l 1,3,-1
 66 -73 l 1,0,-1
209 -73 m 1,4,-1
 209 55 l 1,5,-1
 338 55 l 1,6,-1
 338 -73 l 1,7,-1
 209 -73 l 1,4,-1
351 -73 m 1,8,-1
 351 55 l 1,9,-1
 479 55 l 1,10,-1
 479 -73 l 1,11,-1
 351 -73 l 1,8,-1
66 210 m 1,12,-1
 66 339 l 1,13,-1
 196 339 l 1,14,-1
 196 210 l 1,15,-1
 66 210 l 1,12,-1
66 351 m 1,16,-1
 66 480 l 1,17,-1
 196 480 l 1,18,-1
 196 351 l 1,19,-1
 66 351 l 1,16,-1
66 493 m 1,20,-1
 66 622 l 1,21,-1
 196 622 l 1,22,-1
 196 493 l 1,23,-1
 66 493 l 1,20,-1
66 635 m 1,24,-1
 66 764 l 1,25,-1
 196 764 l 1,26,-1
 196 635 l 1,27,-1
 66 635 l 1,24,-1
66 777 m 1,28,-1
 66 906 l 1,29,-1
 196 906 l 1,30,-1
 196 777 l 1,31,-1
 66 777 l 1,28,-1
209 210 m 1,32,-1
 209 339 l 1,33,-1
 338 339 l 1,34,-1
 338 210 l 1,35,-1
 209 210 l 1,32,-1
351 210 m 1,36,-1
 351 339 l 1,37,-1
 479 339 l 1,38,-1
 479 210 l 1,39,-1
 351 210 l 1,36,-1
492 210 m 1,40,-1
 492 339 l 1,41,-1
 621 339 l 1,42,-1
 621 210 l 1,43,-1
 492 210 l 1,40,-1
209 351 m 1,44,-1
 209 480 l 1,45,-1
 338 480 l 1,46,-1
 338 351 l 1,47,-1
 209 351 l 1,44,-1
351 351 m 1,48,-1
 351 480 l 1,49,-1
 479 480 l 1,50,-1
 479 351 l 1,51,-1
 351 351 l 1,48,-1
492 351 m 1,52,-1
 492 480 l 1,53,-1
 621 480 l 1,54,-1
 621 351 l 1,55,-1
 492 351 l 1,52,-1
209 493 m 1,56,-1
 209 622 l 1,57,-1
 338 622 l 1,58,-1
 338 493 l 1,59,-1
 209 493 l 1,56,-1
351 493 m 1,60,-1
 351 622 l 1,61,-1
 479 622 l 1,62,-1
 479 493 l 1,63,-1
 351 493 l 1,60,-1
492 493 m 1,64,-1
 492 622 l 1,65,-1
 621 622 l 1,66,-1
 621 493 l 1,67,-1
 492 493 l 1,64,-1
209 635 m 1,68,-1
 209 764 l 1,69,-1
 338 764 l 1,70,-1
 338 635 l 1,71,-1
 209 635 l 1,68,-1
351 635 m 1,72,-1
 351 764 l 1,73,-1
 479 764 l 1,74,-1
 479 635 l 1,75,-1
 351 635 l 1,72,-1
492 635 m 1,76,-1
 492 764 l 1,77,-1
 621 764 l 1,78,-1
 621 635 l 1,79,-1
 492 635 l 1,76,-1
209 777 m 1,80,-1
 209 906 l 1,81,-1
 338 906 l 1,82,-1
 338 777 l 1,83,-1
 209 777 l 1,80,-1
351 777 m 1,84,-1
 351 906 l 1,85,-1
 479 906 l 1,86,-1
 479 777 l 1,87,-1
 351 777 l 1,84,-1
492 777 m 1,88,-1
 492 906 l 1,89,-1
 621 906 l 1,90,-1
 621 777 l 1,91,-1
 492 777 l 1,88,-1
66 68 m 1,92,-1
 66 196 l 1,93,-1
 196 196 l 1,94,-1
 196 68 l 1,95,-1
 66 68 l 1,92,-1
634 919 m 1,96,-1
 634 1048 l 1,97,-1
 764 1048 l 1,98,-1
 764 919 l 1,99,-1
 634 919 l 1,96,-1
66 919 m 1,100,-1
 66 1048 l 1,101,-1
 196 1048 l 1,102,-1
 196 919 l 1,103,-1
 66 919 l 1,100,-1
209 68 m 1,104,-1
 209 196 l 1,105,-1
 338 196 l 1,106,-1
 338 68 l 1,107,-1
 209 68 l 1,104,-1
351 68 m 1,108,-1
 351 196 l 1,109,-1
 479 196 l 1,110,-1
 479 68 l 1,111,-1
 351 68 l 1,108,-1
492 68 m 1,112,-1
 492 196 l 1,113,-1
 621 196 l 1,114,-1
 621 68 l 1,115,-1
 492 68 l 1,112,-1
634 210 m 1,116,-1
 634 339 l 1,117,-1
 764 339 l 1,118,-1
 764 210 l 1,119,-1
 634 210 l 1,116,-1
634 352 m 1,120,-1
 634 481 l 1,121,-1
 764 481 l 1,122,-1
 764 352 l 1,123,-1
 634 352 l 1,120,-1
634 493 m 1,124,-1
 634 622 l 1,125,-1
 764 622 l 1,126,-1
 764 493 l 1,127,-1
 634 493 l 1,124,-1
634 635 m 1,128,-1
 634 764 l 1,129,-1
 764 764 l 1,130,-1
 764 635 l 1,131,-1
 634 635 l 1,128,-1
634 777 m 1,132,-1
 634 906 l 1,133,-1
 764 906 l 1,134,-1
 764 777 l 1,135,-1
 634 777 l 1,132,-1
209 919 m 1,136,-1
 209 1048 l 1,137,-1
 338 1048 l 1,138,-1
 338 919 l 1,139,-1
 209 919 l 1,136,-1
351 919 m 1,140,-1
 351 1048 l 1,141,-1
 479 1048 l 1,142,-1
 479 919 l 1,143,-1
 351 919 l 1,140,-1
492 919 m 1,144,-1
 492 1048 l 1,145,-1
 621 1048 l 1,146,-1
 621 919 l 1,147,-1
 492 919 l 1,144,-1
EndSplineSet
Validated: 1
EndChar

StartChar: uni009A
Encoding: 154 154 125
Width: 801
Flags: W
LayerCount: 2
Fore
SplineSet
66 -73 m 1,0,-1
 66 55 l 1,1,-1
 196 55 l 1,2,-1
 196 -73 l 1,3,-1
 66 -73 l 1,0,-1
634 -73 m 1,4,-1
 634 55 l 1,5,-1
 764 55 l 1,6,-1
 764 -73 l 1,7,-1
 634 -73 l 1,4,-1
209 -73 m 1,8,-1
 209 55 l 1,9,-1
 338 55 l 1,10,-1
 338 -73 l 1,11,-1
 209 -73 l 1,8,-1
351 -73 m 1,12,-1
 351 55 l 1,13,-1
 479 55 l 1,14,-1
 479 -73 l 1,15,-1
 351 -73 l 1,12,-1
492 -73 m 1,16,-1
 492 55 l 1,17,-1
 621 55 l 1,18,-1
 621 -73 l 1,19,-1
 492 -73 l 1,16,-1
66 635 m 1,20,-1
 66 764 l 1,21,-1
 196 764 l 1,22,-1
 196 635 l 1,23,-1
 66 635 l 1,20,-1
66 777 m 1,24,-1
 66 906 l 1,25,-1
 196 906 l 1,26,-1
 196 777 l 1,27,-1
 66 777 l 1,24,-1
209 635 m 1,28,-1
 209 764 l 1,29,-1
 338 764 l 1,30,-1
 338 635 l 1,31,-1
 209 635 l 1,28,-1
351 635 m 1,32,-1
 351 764 l 1,33,-1
 479 764 l 1,34,-1
 479 635 l 1,35,-1
 351 635 l 1,32,-1
492 635 m 1,36,-1
 492 764 l 1,37,-1
 621 764 l 1,38,-1
 621 635 l 1,39,-1
 492 635 l 1,36,-1
209 777 m 1,40,-1
 209 906 l 1,41,-1
 338 906 l 1,42,-1
 338 777 l 1,43,-1
 209 777 l 1,40,-1
351 777 m 1,44,-1
 351 906 l 1,45,-1
 479 906 l 1,46,-1
 479 777 l 1,47,-1
 351 777 l 1,44,-1
492 777 m 1,48,-1
 492 906 l 1,49,-1
 621 906 l 1,50,-1
 621 777 l 1,51,-1
 492 777 l 1,48,-1
66 68 m 1,52,-1
 66 196 l 1,53,-1
 196 196 l 1,54,-1
 196 68 l 1,55,-1
 66 68 l 1,52,-1
634 68 m 1,56,-1
 634 196 l 1,57,-1
 764 196 l 1,58,-1
 764 68 l 1,59,-1
 634 68 l 1,56,-1
634 919 m 1,60,-1
 634 1048 l 1,61,-1
 764 1048 l 1,62,-1
 764 919 l 1,63,-1
 634 919 l 1,60,-1
66 919 m 1,64,-1
 66 1048 l 1,65,-1
 196 1048 l 1,66,-1
 196 919 l 1,67,-1
 66 919 l 1,64,-1
209 68 m 1,68,-1
 209 196 l 1,69,-1
 338 196 l 1,70,-1
 338 68 l 1,71,-1
 209 68 l 1,68,-1
351 68 m 1,72,-1
 351 196 l 1,73,-1
 479 196 l 1,74,-1
 479 68 l 1,75,-1
 351 68 l 1,72,-1
492 68 m 1,76,-1
 492 196 l 1,77,-1
 621 196 l 1,78,-1
 621 68 l 1,79,-1
 492 68 l 1,76,-1
634 635 m 1,80,-1
 634 764 l 1,81,-1
 764 764 l 1,82,-1
 764 635 l 1,83,-1
 634 635 l 1,80,-1
634 777 m 1,84,-1
 634 906 l 1,85,-1
 764 906 l 1,86,-1
 764 777 l 1,87,-1
 634 777 l 1,84,-1
209 919 m 1,88,-1
 209 1048 l 1,89,-1
 338 1048 l 1,90,-1
 338 919 l 1,91,-1
 209 919 l 1,88,-1
351 919 m 1,92,-1
 351 1048 l 1,93,-1
 479 1048 l 1,94,-1
 479 919 l 1,95,-1
 351 919 l 1,92,-1
492 919 m 1,96,-1
 492 1048 l 1,97,-1
 621 1048 l 1,98,-1
 621 919 l 1,99,-1
 492 919 l 1,96,-1
EndSplineSet
Validated: 1
EndChar

StartChar: uni009B
Encoding: 155 155 126
Width: 801
Flags: W
LayerCount: 2
Fore
SplineSet
209 351 m 1,0,-1
 209 480 l 1,1,-1
 338 480 l 1,2,-1
 338 351 l 1,3,-1
 209 351 l 1,0,-1
351 351 m 1,4,-1
 351 480 l 1,5,-1
 479 480 l 1,6,-1
 479 351 l 1,7,-1
 351 351 l 1,4,-1
209 493 m 1,8,-1
 209 622 l 1,9,-1
 338 622 l 1,10,-1
 338 493 l 1,11,-1
 209 493 l 1,8,-1
351 493 m 1,12,-1
 351 622 l 1,13,-1
 479 622 l 1,14,-1
 479 493 l 1,15,-1
 351 493 l 1,12,-1
EndSplineSet
Validated: 1
EndChar

StartChar: ydieresis
Encoding: 255 255 128
Width: 801
Flags: W
LayerCount: 2
Fore
SplineSet
66 -73 m 1,0,-1
 66 55 l 1,1,-1
 196 55 l 1,2,-1
 196 -73 l 1,3,-1
 66 -73 l 1,0,-1
634 -73 m 1,4,-1
 634 55 l 1,5,-1
 764 55 l 1,6,-1
 764 -73 l 1,7,-1
 634 -73 l 1,4,-1
209 -73 m 1,8,-1
 209 55 l 1,9,-1
 338 55 l 1,10,-1
 338 -73 l 1,11,-1
 209 -73 l 1,8,-1
351 -73 m 1,12,-1
 351 55 l 1,13,-1
 479 55 l 1,14,-1
 479 -73 l 1,15,-1
 351 -73 l 1,12,-1
492 -73 m 1,16,-1
 492 55 l 1,17,-1
 621 55 l 1,18,-1
 621 -73 l 1,19,-1
 492 -73 l 1,16,-1
66 210 m 1,20,-1
 66 339 l 1,21,-1
 196 339 l 1,22,-1
 196 210 l 1,23,-1
 66 210 l 1,20,-1
66 351 m 1,24,-1
 66 480 l 1,25,-1
 196 480 l 1,26,-1
 196 351 l 1,27,-1
 66 351 l 1,24,-1
66 493 m 1,28,-1
 66 622 l 1,29,-1
 196 622 l 1,30,-1
 196 493 l 1,31,-1
 66 493 l 1,28,-1
66 635 m 1,32,-1
 66 764 l 1,33,-1
 196 764 l 1,34,-1
 196 635 l 1,35,-1
 66 635 l 1,32,-1
66 777 m 1,36,-1
 66 906 l 1,37,-1
 196 906 l 1,38,-1
 196 777 l 1,39,-1
 66 777 l 1,36,-1
209 210 m 1,40,-1
 209 339 l 1,41,-1
 338 339 l 1,42,-1
 338 210 l 1,43,-1
 209 210 l 1,40,-1
351 210 m 1,44,-1
 351 339 l 1,45,-1
 479 339 l 1,46,-1
 479 210 l 1,47,-1
 351 210 l 1,44,-1
492 210 m 1,48,-1
 492 339 l 1,49,-1
 621 339 l 1,50,-1
 621 210 l 1,51,-1
 492 210 l 1,48,-1
209 351 m 1,52,-1
 209 480 l 1,53,-1
 338 480 l 1,54,-1
 338 351 l 1,55,-1
 209 351 l 1,52,-1
351 351 m 1,56,-1
 351 480 l 1,57,-1
 479 480 l 1,58,-1
 479 351 l 1,59,-1
 351 351 l 1,56,-1
492 351 m 1,60,-1
 492 480 l 1,61,-1
 621 480 l 1,62,-1
 621 351 l 1,63,-1
 492 351 l 1,60,-1
209 493 m 1,64,-1
 209 622 l 1,65,-1
 338 622 l 1,66,-1
 338 493 l 1,67,-1
 209 493 l 1,64,-1
351 493 m 1,68,-1
 351 622 l 1,69,-1
 479 622 l 1,70,-1
 479 493 l 1,71,-1
 351 493 l 1,68,-1
492 493 m 1,72,-1
 492 622 l 1,73,-1
 621 622 l 1,74,-1
 621 493 l 1,75,-1
 492 493 l 1,72,-1
209 635 m 1,76,-1
 209 764 l 1,77,-1
 338 764 l 1,78,-1
 338 635 l 1,79,-1
 209 635 l 1,76,-1
351 635 m 1,80,-1
 351 764 l 1,81,-1
 479 764 l 1,82,-1
 479 635 l 1,83,-1
 351 635 l 1,80,-1
492 635 m 1,84,-1
 492 764 l 1,85,-1
 621 764 l 1,86,-1
 621 635 l 1,87,-1
 492 635 l 1,84,-1
209 777 m 1,88,-1
 209 906 l 1,89,-1
 338 906 l 1,90,-1
 338 777 l 1,91,-1
 209 777 l 1,88,-1
351 777 m 1,92,-1
 351 906 l 1,93,-1
 479 906 l 1,94,-1
 479 777 l 1,95,-1
 351 777 l 1,92,-1
492 777 m 1,96,-1
 492 906 l 1,97,-1
 621 906 l 1,98,-1
 621 777 l 1,99,-1
 492 777 l 1,96,-1
66 68 m 1,100,-1
 66 196 l 1,101,-1
 196 196 l 1,102,-1
 196 68 l 1,103,-1
 66 68 l 1,100,-1
634 68 m 1,104,-1
 634 196 l 1,105,-1
 764 196 l 1,106,-1
 764 68 l 1,107,-1
 634 68 l 1,104,-1
634 919 m 1,108,-1
 634 1048 l 1,109,-1
 764 1048 l 1,110,-1
 764 919 l 1,111,-1
 634 919 l 1,108,-1
66 919 m 1,112,-1
 66 1048 l 1,113,-1
 196 1048 l 1,114,-1
 196 919 l 1,115,-1
 66 919 l 1,112,-1
209 68 m 1,116,-1
 209 196 l 1,117,-1
 338 196 l 1,118,-1
 338 68 l 1,119,-1
 209 68 l 1,116,-1
351 68 m 1,120,-1
 351 196 l 1,121,-1
 479 196 l 1,122,-1
 479 68 l 1,123,-1
 351 68 l 1,120,-1
492 68 m 1,124,-1
 492 196 l 1,125,-1
 621 196 l 1,126,-1
 621 68 l 1,127,-1
 492 68 l 1,124,-1
634 210 m 1,128,-1
 634 339 l 1,129,-1
 764 339 l 1,130,-1
 764 210 l 1,131,-1
 634 210 l 1,128,-1
634 352 m 1,132,-1
 634 481 l 1,133,-1
 764 481 l 1,134,-1
 764 352 l 1,135,-1
 634 352 l 1,132,-1
634 493 m 1,136,-1
 634 622 l 1,137,-1
 764 622 l 1,138,-1
 764 493 l 1,139,-1
 634 493 l 1,136,-1
634 635 m 1,140,-1
 634 764 l 1,141,-1
 764 764 l 1,142,-1
 764 635 l 1,143,-1
 634 635 l 1,140,-1
634 777 m 1,144,-1
 634 906 l 1,145,-1
 764 906 l 1,146,-1
 764 777 l 1,147,-1
 634 777 l 1,144,-1
209 919 m 1,148,-1
 209 1048 l 1,149,-1
 338 1048 l 1,150,-1
 338 919 l 1,151,-1
 209 919 l 1,148,-1
351 919 m 1,152,-1
 351 1048 l 1,153,-1
 479 1048 l 1,154,-1
 479 919 l 1,155,-1
 351 919 l 1,152,-1
492 919 m 1,156,-1
 492 1048 l 1,157,-1
 621 1048 l 1,158,-1
 621 919 l 1,159,-1
 492 919 l 1,156,-1
EndSplineSet
Validated: 1
EndChar

StartChar: Amacron
Encoding: 256 256 129
Width: 801
Flags: W
LayerCount: 2
Fore
SplineSet
66 493 m 1,0,-1
 66 622 l 1,1,-1
 196 622 l 1,2,-1
 196 493 l 1,3,-1
 66 493 l 1,0,-1
351 210 m 1,4,-1
 351 339 l 1,5,-1
 479 339 l 1,6,-1
 479 210 l 1,7,-1
 351 210 l 1,4,-1
492 351 m 1,8,-1
 492 480 l 1,9,-1
 621 480 l 1,10,-1
 621 351 l 1,11,-1
 492 351 l 1,8,-1
209 493 m 1,12,-1
 209 622 l 1,13,-1
 338 622 l 1,14,-1
 338 493 l 1,15,-1
 209 493 l 1,12,-1
351 493 m 1,16,-1
 351 622 l 1,17,-1
 479 622 l 1,18,-1
 479 493 l 1,19,-1
 351 493 l 1,16,-1
492 493 m 1,20,-1
 492 622 l 1,21,-1
 621 622 l 1,22,-1
 621 493 l 1,23,-1
 492 493 l 1,20,-1
492 635 m 1,24,-1
 492 764 l 1,25,-1
 621 764 l 1,26,-1
 621 635 l 1,27,-1
 492 635 l 1,24,-1
351 777 m 1,28,-1
 351 906 l 1,29,-1
 479 906 l 1,30,-1
 479 777 l 1,31,-1
 351 777 l 1,28,-1
634 493 m 1,32,-1
 634 622 l 1,33,-1
 764 622 l 1,34,-1
 764 493 l 1,35,-1
 634 493 l 1,32,-1
EndSplineSet
Validated: 1
EndChar

StartChar: amacron
Encoding: 257 257 130
Width: 801
Flags: W
LayerCount: 2
Fore
SplineSet
66 493 m 1,0,-1
 66 622 l 1,1,-1
 196 622 l 1,2,-1
 196 493 l 1,3,-1
 66 493 l 1,0,-1
351 210 m 1,4,-1
 351 339 l 1,5,-1
 479 339 l 1,6,-1
 479 210 l 1,7,-1
 351 210 l 1,4,-1
209 351 m 1,8,-1
 209 480 l 1,9,-1
 338 480 l 1,10,-1
 338 351 l 1,11,-1
 209 351 l 1,8,-1
209 493 m 1,12,-1
 209 622 l 1,13,-1
 338 622 l 1,14,-1
 338 493 l 1,15,-1
 209 493 l 1,12,-1
351 493 m 1,16,-1
 351 622 l 1,17,-1
 479 622 l 1,18,-1
 479 493 l 1,19,-1
 351 493 l 1,16,-1
492 493 m 1,20,-1
 492 622 l 1,21,-1
 621 622 l 1,22,-1
 621 493 l 1,23,-1
 492 493 l 1,20,-1
209 635 m 1,24,-1
 209 764 l 1,25,-1
 338 764 l 1,26,-1
 338 635 l 1,27,-1
 209 635 l 1,24,-1
351 777 m 1,28,-1
 351 906 l 1,29,-1
 479 906 l 1,30,-1
 479 777 l 1,31,-1
 351 777 l 1,28,-1
634 493 m 1,32,-1
 634 622 l 1,33,-1
 764 622 l 1,34,-1
 764 493 l 1,35,-1
 634 493 l 1,32,-1
EndSplineSet
Validated: 1
EndChar

StartChar: Abreve
Encoding: 258 258 131
Width: 801
Flags: W
LayerCount: 2
Fore
SplineSet
66 351 m 1,0,-1
 66 480 l 1,1,-1
 196 480 l 1,2,-1
 196 351 l 1,3,-1
 66 351 l 1,0,-1
209 351 m 1,4,-1
 209 480 l 1,5,-1
 338 480 l 1,6,-1
 338 351 l 1,7,-1
 209 351 l 1,4,-1
351 351 m 1,8,-1
 351 480 l 1,9,-1
 479 480 l 1,10,-1
 479 351 l 1,11,-1
 351 351 l 1,8,-1
492 351 m 1,12,-1
 492 480 l 1,13,-1
 621 480 l 1,14,-1
 621 351 l 1,15,-1
 492 351 l 1,12,-1
209 493 m 1,16,-1
 209 622 l 1,17,-1
 338 622 l 1,18,-1
 338 493 l 1,19,-1
 209 493 l 1,16,-1
351 493 m 1,20,-1
 351 622 l 1,21,-1
 479 622 l 1,22,-1
 479 493 l 1,23,-1
 351 493 l 1,20,-1
492 493 m 1,24,-1
 492 622 l 1,25,-1
 621 622 l 1,26,-1
 621 493 l 1,27,-1
 492 493 l 1,24,-1
209 635 m 1,28,-1
 209 764 l 1,29,-1
 338 764 l 1,30,-1
 338 635 l 1,31,-1
 209 635 l 1,28,-1
351 635 m 1,32,-1
 351 764 l 1,33,-1
 479 764 l 1,34,-1
 479 635 l 1,35,-1
 351 635 l 1,32,-1
492 635 m 1,36,-1
 492 764 l 1,37,-1
 621 764 l 1,38,-1
 621 635 l 1,39,-1
 492 635 l 1,36,-1
209 777 m 1,40,-1
 209 906 l 1,41,-1
 338 906 l 1,42,-1
 338 777 l 1,43,-1
 209 777 l 1,40,-1
351 777 m 1,44,-1
 351 906 l 1,45,-1
 479 906 l 1,46,-1
 479 777 l 1,47,-1
 351 777 l 1,44,-1
492 777 m 1,48,-1
 492 906 l 1,49,-1
 621 906 l 1,50,-1
 621 777 l 1,51,-1
 492 777 l 1,48,-1
351 68 m 1,52,-1
 351 196 l 1,53,-1
 479 196 l 1,54,-1
 479 68 l 1,55,-1
 351 68 l 1,52,-1
634 352 m 1,56,-1
 634 481 l 1,57,-1
 764 481 l 1,58,-1
 764 352 l 1,59,-1
 634 352 l 1,56,-1
351 919 m 1,60,-1
 351 1048 l 1,61,-1
 479 1048 l 1,62,-1
 479 919 l 1,63,-1
 351 919 l 1,60,-1
EndSplineSet
Validated: 1
EndChar

StartChar: abreve
Encoding: 259 259 132
Width: 801
Flags: W
LayerCount: 2
Fore
SplineSet
66 351 m 1,0,-1
 66 480 l 1,1,-1
 196 480 l 1,2,-1
 196 351 l 1,3,-1
 66 351 l 1,0,-1
66 493 m 1,4,-1
 66 622 l 1,5,-1
 196 622 l 1,6,-1
 196 493 l 1,7,-1
 66 493 l 1,4,-1
66 635 m 1,8,-1
 66 764 l 1,9,-1
 196 764 l 1,10,-1
 196 635 l 1,11,-1
 66 635 l 1,8,-1
492 351 m 1,12,-1
 492 480 l 1,13,-1
 621 480 l 1,14,-1
 621 351 l 1,15,-1
 492 351 l 1,12,-1
209 493 m 1,16,-1
 209 622 l 1,17,-1
 338 622 l 1,18,-1
 338 493 l 1,19,-1
 209 493 l 1,16,-1
351 493 m 1,20,-1
 351 622 l 1,21,-1
 479 622 l 1,22,-1
 479 493 l 1,23,-1
 351 493 l 1,20,-1
492 493 m 1,24,-1
 492 622 l 1,25,-1
 621 622 l 1,26,-1
 621 493 l 1,27,-1
 492 493 l 1,24,-1
492 635 m 1,28,-1
 492 764 l 1,29,-1
 621 764 l 1,30,-1
 621 635 l 1,31,-1
 492 635 l 1,28,-1
634 210 m 1,32,-1
 634 339 l 1,33,-1
 764 339 l 1,34,-1
 764 210 l 1,35,-1
 634 210 l 1,32,-1
634 352 m 1,36,-1
 634 481 l 1,37,-1
 764 481 l 1,38,-1
 764 352 l 1,39,-1
 634 352 l 1,36,-1
634 493 m 1,40,-1
 634 622 l 1,41,-1
 764 622 l 1,42,-1
 764 493 l 1,43,-1
 634 493 l 1,40,-1
634 635 m 1,44,-1
 634 764 l 1,45,-1
 764 764 l 1,46,-1
 764 635 l 1,47,-1
 634 635 l 1,44,-1
634 777 m 1,48,-1
 634 906 l 1,49,-1
 764 906 l 1,50,-1
 764 777 l 1,51,-1
 634 777 l 1,48,-1
EndSplineSet
Validated: 1
EndChar

StartChar: Aogonek
Encoding: 260 260 133
Width: 801
Flags: W
LayerCount: 2
Fore
SplineSet
66 -73 m 1,0,-1
 66 55 l 1,1,-1
 196 55 l 1,2,-1
 196 -73 l 1,3,-1
 66 -73 l 1,0,-1
634 -73 m 1,4,-1
 634 55 l 1,5,-1
 764 55 l 1,6,-1
 764 -73 l 1,7,-1
 634 -73 l 1,4,-1
209 -73 m 1,8,-1
 209 55 l 1,9,-1
 338 55 l 1,10,-1
 338 -73 l 1,11,-1
 209 -73 l 1,8,-1
351 -73 m 1,12,-1
 351 55 l 1,13,-1
 479 55 l 1,14,-1
 479 -73 l 1,15,-1
 351 -73 l 1,12,-1
492 -73 m 1,16,-1
 492 55 l 1,17,-1
 621 55 l 1,18,-1
 621 -73 l 1,19,-1
 492 -73 l 1,16,-1
66 210 m 1,20,-1
 66 339 l 1,21,-1
 196 339 l 1,22,-1
 196 210 l 1,23,-1
 66 210 l 1,20,-1
66 351 m 1,24,-1
 66 480 l 1,25,-1
 196 480 l 1,26,-1
 196 351 l 1,27,-1
 66 351 l 1,24,-1
66 493 m 1,28,-1
 66 622 l 1,29,-1
 196 622 l 1,30,-1
 196 493 l 1,31,-1
 66 493 l 1,28,-1
66 635 m 1,32,-1
 66 764 l 1,33,-1
 196 764 l 1,34,-1
 196 635 l 1,35,-1
 66 635 l 1,32,-1
66 777 m 1,36,-1
 66 906 l 1,37,-1
 196 906 l 1,38,-1
 196 777 l 1,39,-1
 66 777 l 1,36,-1
66 68 m 1,40,-1
 66 196 l 1,41,-1
 196 196 l 1,42,-1
 196 68 l 1,43,-1
 66 68 l 1,40,-1
634 68 m 1,44,-1
 634 196 l 1,45,-1
 764 196 l 1,46,-1
 764 68 l 1,47,-1
 634 68 l 1,44,-1
634 919 m 1,48,-1
 634 1048 l 1,49,-1
 764 1048 l 1,50,-1
 764 919 l 1,51,-1
 634 919 l 1,48,-1
66 919 m 1,52,-1
 66 1048 l 1,53,-1
 196 1048 l 1,54,-1
 196 919 l 1,55,-1
 66 919 l 1,52,-1
634 210 m 1,56,-1
 634 339 l 1,57,-1
 764 339 l 1,58,-1
 764 210 l 1,59,-1
 634 210 l 1,56,-1
634 352 m 1,60,-1
 634 481 l 1,61,-1
 764 481 l 1,62,-1
 764 352 l 1,63,-1
 634 352 l 1,60,-1
634 493 m 1,64,-1
 634 622 l 1,65,-1
 764 622 l 1,66,-1
 764 493 l 1,67,-1
 634 493 l 1,64,-1
634 635 m 1,68,-1
 634 764 l 1,69,-1
 764 764 l 1,70,-1
 764 635 l 1,71,-1
 634 635 l 1,68,-1
634 777 m 1,72,-1
 634 906 l 1,73,-1
 764 906 l 1,74,-1
 764 777 l 1,75,-1
 634 777 l 1,72,-1
EndSplineSet
Validated: 1
EndChar

StartChar: aogonek
Encoding: 261 261 134
Width: 801
Flags: W
LayerCount: 2
Fore
SplineSet
66 -73 m 1,0,-1
 66 55 l 1,1,-1
 196 55 l 1,2,-1
 196 -73 l 1,3,-1
 66 -73 l 1,0,-1
634 -73 m 1,4,-1
 634 55 l 1,5,-1
 764 55 l 1,6,-1
 764 -73 l 1,7,-1
 634 -73 l 1,4,-1
209 -73 m 1,8,-1
 209 55 l 1,9,-1
 338 55 l 1,10,-1
 338 -73 l 1,11,-1
 209 -73 l 1,8,-1
351 -73 m 1,12,-1
 351 55 l 1,13,-1
 479 55 l 1,14,-1
 479 -73 l 1,15,-1
 351 -73 l 1,12,-1
492 -73 m 1,16,-1
 492 55 l 1,17,-1
 621 55 l 1,18,-1
 621 -73 l 1,19,-1
 492 -73 l 1,16,-1
66 210 m 1,20,-1
 66 339 l 1,21,-1
 196 339 l 1,22,-1
 196 210 l 1,23,-1
 66 210 l 1,20,-1
66 351 m 1,24,-1
 66 480 l 1,25,-1
 196 480 l 1,26,-1
 196 351 l 1,27,-1
 66 351 l 1,24,-1
66 493 m 1,28,-1
 66 622 l 1,29,-1
 196 622 l 1,30,-1
 196 493 l 1,31,-1
 66 493 l 1,28,-1
66 635 m 1,32,-1
 66 764 l 1,33,-1
 196 764 l 1,34,-1
 196 635 l 1,35,-1
 66 635 l 1,32,-1
66 777 m 1,36,-1
 66 906 l 1,37,-1
 196 906 l 1,38,-1
 196 777 l 1,39,-1
 66 777 l 1,36,-1
209 210 m 1,40,-1
 209 339 l 1,41,-1
 338 339 l 1,42,-1
 338 210 l 1,43,-1
 209 210 l 1,40,-1
351 210 m 1,44,-1
 351 339 l 1,45,-1
 479 339 l 1,46,-1
 479 210 l 1,47,-1
 351 210 l 1,44,-1
492 210 m 1,48,-1
 492 339 l 1,49,-1
 621 339 l 1,50,-1
 621 210 l 1,51,-1
 492 210 l 1,48,-1
209 351 m 1,52,-1
 209 480 l 1,53,-1
 338 480 l 1,54,-1
 338 351 l 1,55,-1
 209 351 l 1,52,-1
351 351 m 1,56,-1
 351 480 l 1,57,-1
 479 480 l 1,58,-1
 479 351 l 1,59,-1
 351 351 l 1,56,-1
492 351 m 1,60,-1
 492 480 l 1,61,-1
 621 480 l 1,62,-1
 621 351 l 1,63,-1
 492 351 l 1,60,-1
209 493 m 1,64,-1
 209 622 l 1,65,-1
 338 622 l 1,66,-1
 338 493 l 1,67,-1
 209 493 l 1,64,-1
351 493 m 1,68,-1
 351 622 l 1,69,-1
 479 622 l 1,70,-1
 479 493 l 1,71,-1
 351 493 l 1,68,-1
492 493 m 1,72,-1
 492 622 l 1,73,-1
 621 622 l 1,74,-1
 621 493 l 1,75,-1
 492 493 l 1,72,-1
66 68 m 1,76,-1
 66 196 l 1,77,-1
 196 196 l 1,78,-1
 196 68 l 1,79,-1
 66 68 l 1,76,-1
634 68 m 1,80,-1
 634 196 l 1,81,-1
 764 196 l 1,82,-1
 764 68 l 1,83,-1
 634 68 l 1,80,-1
634 919 m 1,84,-1
 634 1048 l 1,85,-1
 764 1048 l 1,86,-1
 764 919 l 1,87,-1
 634 919 l 1,84,-1
66 919 m 1,88,-1
 66 1048 l 1,89,-1
 196 1048 l 1,90,-1
 196 919 l 1,91,-1
 66 919 l 1,88,-1
209 68 m 1,92,-1
 209 196 l 1,93,-1
 338 196 l 1,94,-1
 338 68 l 1,95,-1
 209 68 l 1,92,-1
351 68 m 1,96,-1
 351 196 l 1,97,-1
 479 196 l 1,98,-1
 479 68 l 1,99,-1
 351 68 l 1,96,-1
492 68 m 1,100,-1
 492 196 l 1,101,-1
 621 196 l 1,102,-1
 621 68 l 1,103,-1
 492 68 l 1,100,-1
634 210 m 1,104,-1
 634 339 l 1,105,-1
 764 339 l 1,106,-1
 764 210 l 1,107,-1
 634 210 l 1,104,-1
634 352 m 1,108,-1
 634 481 l 1,109,-1
 764 481 l 1,110,-1
 764 352 l 1,111,-1
 634 352 l 1,108,-1
634 493 m 1,112,-1
 634 622 l 1,113,-1
 764 622 l 1,114,-1
 764 493 l 1,115,-1
 634 493 l 1,112,-1
634 635 m 1,116,-1
 634 764 l 1,117,-1
 764 764 l 1,118,-1
 764 635 l 1,119,-1
 634 635 l 1,116,-1
634 777 m 1,120,-1
 634 906 l 1,121,-1
 764 906 l 1,122,-1
 764 777 l 1,123,-1
 634 777 l 1,120,-1
EndSplineSet
Validated: 1
EndChar

StartChar: Cacute
Encoding: 262 262 135
Width: 801
Flags: W
LayerCount: 2
Fore
SplineSet
66 -73 m 1,0,-1
 66 55 l 1,1,-1
 196 55 l 1,2,-1
 196 -73 l 1,3,-1
 66 -73 l 1,0,-1
634 -73 m 1,4,-1
 634 55 l 1,5,-1
 764 55 l 1,6,-1
 764 -73 l 1,7,-1
 634 -73 l 1,4,-1
66 210 m 1,8,-1
 66 339 l 1,9,-1
 196 339 l 1,10,-1
 196 210 l 1,11,-1
 66 210 l 1,8,-1
66 351 m 1,12,-1
 66 480 l 1,13,-1
 196 480 l 1,14,-1
 196 351 l 1,15,-1
 66 351 l 1,12,-1
66 493 m 1,16,-1
 66 622 l 1,17,-1
 196 622 l 1,18,-1
 196 493 l 1,19,-1
 66 493 l 1,16,-1
66 635 m 1,20,-1
 66 764 l 1,21,-1
 196 764 l 1,22,-1
 196 635 l 1,23,-1
 66 635 l 1,20,-1
66 777 m 1,24,-1
 66 906 l 1,25,-1
 196 906 l 1,26,-1
 196 777 l 1,27,-1
 66 777 l 1,24,-1
66 68 m 1,28,-1
 66 196 l 1,29,-1
 196 196 l 1,30,-1
 196 68 l 1,31,-1
 66 68 l 1,28,-1
634 68 m 1,32,-1
 634 196 l 1,33,-1
 764 196 l 1,34,-1
 764 68 l 1,35,-1
 634 68 l 1,32,-1
634 919 m 1,36,-1
 634 1048 l 1,37,-1
 764 1048 l 1,38,-1
 764 919 l 1,39,-1
 634 919 l 1,36,-1
66 919 m 1,40,-1
 66 1048 l 1,41,-1
 196 1048 l 1,42,-1
 196 919 l 1,43,-1
 66 919 l 1,40,-1
634 210 m 1,44,-1
 634 339 l 1,45,-1
 764 339 l 1,46,-1
 764 210 l 1,47,-1
 634 210 l 1,44,-1
634 352 m 1,48,-1
 634 481 l 1,49,-1
 764 481 l 1,50,-1
 764 352 l 1,51,-1
 634 352 l 1,48,-1
634 493 m 1,52,-1
 634 622 l 1,53,-1
 764 622 l 1,54,-1
 764 493 l 1,55,-1
 634 493 l 1,52,-1
634 635 m 1,56,-1
 634 764 l 1,57,-1
 764 764 l 1,58,-1
 764 635 l 1,59,-1
 634 635 l 1,56,-1
634 777 m 1,60,-1
 634 906 l 1,61,-1
 764 906 l 1,62,-1
 764 777 l 1,63,-1
 634 777 l 1,60,-1
209 919 m 1,64,-1
 209 1048 l 1,65,-1
 338 1048 l 1,66,-1
 338 919 l 1,67,-1
 209 919 l 1,64,-1
351 919 m 1,68,-1
 351 1048 l 1,69,-1
 479 1048 l 1,70,-1
 479 919 l 1,71,-1
 351 919 l 1,68,-1
492 919 m 1,72,-1
 492 1048 l 1,73,-1
 621 1048 l 1,74,-1
 621 919 l 1,75,-1
 492 919 l 1,72,-1
EndSplineSet
Validated: 1
EndChar

StartChar: cacute
Encoding: 263 263 136
Width: 801
Flags: W
LayerCount: 2
Fore
SplineSet
66 -73 m 1,0,-1
 66 55 l 1,1,-1
 196 55 l 1,2,-1
 196 -73 l 1,3,-1
 66 -73 l 1,0,-1
634 -73 m 1,4,-1
 634 55 l 1,5,-1
 764 55 l 1,6,-1
 764 -73 l 1,7,-1
 634 -73 l 1,4,-1
209 -73 m 1,8,-1
 209 55 l 1,9,-1
 338 55 l 1,10,-1
 338 -73 l 1,11,-1
 209 -73 l 1,8,-1
351 -73 m 1,12,-1
 351 55 l 1,13,-1
 479 55 l 1,14,-1
 479 -73 l 1,15,-1
 351 -73 l 1,12,-1
492 -73 m 1,16,-1
 492 55 l 1,17,-1
 621 55 l 1,18,-1
 621 -73 l 1,19,-1
 492 -73 l 1,16,-1
66 210 m 1,20,-1
 66 339 l 1,21,-1
 196 339 l 1,22,-1
 196 210 l 1,23,-1
 66 210 l 1,20,-1
66 351 m 1,24,-1
 66 480 l 1,25,-1
 196 480 l 1,26,-1
 196 351 l 1,27,-1
 66 351 l 1,24,-1
66 493 m 1,28,-1
 66 622 l 1,29,-1
 196 622 l 1,30,-1
 196 493 l 1,31,-1
 66 493 l 1,28,-1
66 635 m 1,32,-1
 66 764 l 1,33,-1
 196 764 l 1,34,-1
 196 635 l 1,35,-1
 66 635 l 1,32,-1
66 777 m 1,36,-1
 66 906 l 1,37,-1
 196 906 l 1,38,-1
 196 777 l 1,39,-1
 66 777 l 1,36,-1
209 210 m 1,40,-1
 209 339 l 1,41,-1
 338 339 l 1,42,-1
 338 210 l 1,43,-1
 209 210 l 1,40,-1
351 210 m 1,44,-1
 351 339 l 1,45,-1
 479 339 l 1,46,-1
 479 210 l 1,47,-1
 351 210 l 1,44,-1
492 210 m 1,48,-1
 492 339 l 1,49,-1
 621 339 l 1,50,-1
 621 210 l 1,51,-1
 492 210 l 1,48,-1
66 68 m 1,52,-1
 66 196 l 1,53,-1
 196 196 l 1,54,-1
 196 68 l 1,55,-1
 66 68 l 1,52,-1
634 68 m 1,56,-1
 634 196 l 1,57,-1
 764 196 l 1,58,-1
 764 68 l 1,59,-1
 634 68 l 1,56,-1
634 919 m 1,60,-1
 634 1048 l 1,61,-1
 764 1048 l 1,62,-1
 764 919 l 1,63,-1
 634 919 l 1,60,-1
66 919 m 1,64,-1
 66 1048 l 1,65,-1
 196 1048 l 1,66,-1
 196 919 l 1,67,-1
 66 919 l 1,64,-1
209 68 m 1,68,-1
 209 196 l 1,69,-1
 338 196 l 1,70,-1
 338 68 l 1,71,-1
 209 68 l 1,68,-1
351 68 m 1,72,-1
 351 196 l 1,73,-1
 479 196 l 1,74,-1
 479 68 l 1,75,-1
 351 68 l 1,72,-1
492 68 m 1,76,-1
 492 196 l 1,77,-1
 621 196 l 1,78,-1
 621 68 l 1,79,-1
 492 68 l 1,76,-1
634 210 m 1,80,-1
 634 339 l 1,81,-1
 764 339 l 1,82,-1
 764 210 l 1,83,-1
 634 210 l 1,80,-1
634 352 m 1,84,-1
 634 481 l 1,85,-1
 764 481 l 1,86,-1
 764 352 l 1,87,-1
 634 352 l 1,84,-1
634 493 m 1,88,-1
 634 622 l 1,89,-1
 764 622 l 1,90,-1
 764 493 l 1,91,-1
 634 493 l 1,88,-1
634 635 m 1,92,-1
 634 764 l 1,93,-1
 764 764 l 1,94,-1
 764 635 l 1,95,-1
 634 635 l 1,92,-1
634 777 m 1,96,-1
 634 906 l 1,97,-1
 764 906 l 1,98,-1
 764 777 l 1,99,-1
 634 777 l 1,96,-1
209 919 m 1,100,-1
 209 1048 l 1,101,-1
 338 1048 l 1,102,-1
 338 919 l 1,103,-1
 209 919 l 1,100,-1
351 919 m 1,104,-1
 351 1048 l 1,105,-1
 479 1048 l 1,106,-1
 479 919 l 1,107,-1
 351 919 l 1,104,-1
492 919 m 1,108,-1
 492 1048 l 1,109,-1
 621 1048 l 1,110,-1
 621 919 l 1,111,-1
 492 919 l 1,108,-1
EndSplineSet
Validated: 1
EndChar

StartChar: Ccircumflex
Encoding: 264 264 137
Width: 801
Flags: W
LayerCount: 2
Fore
SplineSet
66 -73 m 1,0,-1
 66 55 l 1,1,-1
 196 55 l 1,2,-1
 196 -73 l 1,3,-1
 66 -73 l 1,0,-1
634 -73 m 1,4,-1
 634 55 l 1,5,-1
 764 55 l 1,6,-1
 764 -73 l 1,7,-1
 634 -73 l 1,4,-1
209 -73 m 1,8,-1
 209 55 l 1,9,-1
 338 55 l 1,10,-1
 338 -73 l 1,11,-1
 209 -73 l 1,8,-1
351 -73 m 1,12,-1
 351 55 l 1,13,-1
 479 55 l 1,14,-1
 479 -73 l 1,15,-1
 351 -73 l 1,12,-1
492 -73 m 1,16,-1
 492 55 l 1,17,-1
 621 55 l 1,18,-1
 621 -73 l 1,19,-1
 492 -73 l 1,16,-1
66 210 m 1,20,-1
 66 339 l 1,21,-1
 196 339 l 1,22,-1
 196 210 l 1,23,-1
 66 210 l 1,20,-1
66 351 m 1,24,-1
 66 480 l 1,25,-1
 196 480 l 1,26,-1
 196 351 l 1,27,-1
 66 351 l 1,24,-1
66 493 m 1,28,-1
 66 622 l 1,29,-1
 196 622 l 1,30,-1
 196 493 l 1,31,-1
 66 493 l 1,28,-1
66 635 m 1,32,-1
 66 764 l 1,33,-1
 196 764 l 1,34,-1
 196 635 l 1,35,-1
 66 635 l 1,32,-1
66 777 m 1,36,-1
 66 906 l 1,37,-1
 196 906 l 1,38,-1
 196 777 l 1,39,-1
 66 777 l 1,36,-1
209 210 m 1,40,-1
 209 339 l 1,41,-1
 338 339 l 1,42,-1
 338 210 l 1,43,-1
 209 210 l 1,40,-1
351 210 m 1,44,-1
 351 339 l 1,45,-1
 479 339 l 1,46,-1
 479 210 l 1,47,-1
 351 210 l 1,44,-1
492 210 m 1,48,-1
 492 339 l 1,49,-1
 621 339 l 1,50,-1
 621 210 l 1,51,-1
 492 210 l 1,48,-1
209 351 m 1,52,-1
 209 480 l 1,53,-1
 338 480 l 1,54,-1
 338 351 l 1,55,-1
 209 351 l 1,52,-1
351 351 m 1,56,-1
 351 480 l 1,57,-1
 479 480 l 1,58,-1
 479 351 l 1,59,-1
 351 351 l 1,56,-1
492 351 m 1,60,-1
 492 480 l 1,61,-1
 621 480 l 1,62,-1
 621 351 l 1,63,-1
 492 351 l 1,60,-1
209 493 m 1,64,-1
 209 622 l 1,65,-1
 338 622 l 1,66,-1
 338 493 l 1,67,-1
 209 493 l 1,64,-1
351 493 m 1,68,-1
 351 622 l 1,69,-1
 479 622 l 1,70,-1
 479 493 l 1,71,-1
 351 493 l 1,68,-1
492 493 m 1,72,-1
 492 622 l 1,73,-1
 621 622 l 1,74,-1
 621 493 l 1,75,-1
 492 493 l 1,72,-1
209 635 m 1,76,-1
 209 764 l 1,77,-1
 338 764 l 1,78,-1
 338 635 l 1,79,-1
 209 635 l 1,76,-1
351 635 m 1,80,-1
 351 764 l 1,81,-1
 479 764 l 1,82,-1
 479 635 l 1,83,-1
 351 635 l 1,80,-1
492 635 m 1,84,-1
 492 764 l 1,85,-1
 621 764 l 1,86,-1
 621 635 l 1,87,-1
 492 635 l 1,84,-1
209 777 m 1,88,-1
 209 906 l 1,89,-1
 338 906 l 1,90,-1
 338 777 l 1,91,-1
 209 777 l 1,88,-1
351 777 m 1,92,-1
 351 906 l 1,93,-1
 479 906 l 1,94,-1
 479 777 l 1,95,-1
 351 777 l 1,92,-1
492 777 m 1,96,-1
 492 906 l 1,97,-1
 621 906 l 1,98,-1
 621 777 l 1,99,-1
 492 777 l 1,96,-1
66 68 m 1,100,-1
 66 196 l 1,101,-1
 196 196 l 1,102,-1
 196 68 l 1,103,-1
 66 68 l 1,100,-1
634 68 m 1,104,-1
 634 196 l 1,105,-1
 764 196 l 1,106,-1
 764 68 l 1,107,-1
 634 68 l 1,104,-1
634 919 m 1,108,-1
 634 1048 l 1,109,-1
 764 1048 l 1,110,-1
 764 919 l 1,111,-1
 634 919 l 1,108,-1
66 919 m 1,112,-1
 66 1048 l 1,113,-1
 196 1048 l 1,114,-1
 196 919 l 1,115,-1
 66 919 l 1,112,-1
209 68 m 1,116,-1
 209 196 l 1,117,-1
 338 196 l 1,118,-1
 338 68 l 1,119,-1
 209 68 l 1,116,-1
351 68 m 1,120,-1
 351 196 l 1,121,-1
 479 196 l 1,122,-1
 479 68 l 1,123,-1
 351 68 l 1,120,-1
492 68 m 1,124,-1
 492 196 l 1,125,-1
 621 196 l 1,126,-1
 621 68 l 1,127,-1
 492 68 l 1,124,-1
634 210 m 1,128,-1
 634 339 l 1,129,-1
 764 339 l 1,130,-1
 764 210 l 1,131,-1
 634 210 l 1,128,-1
634 352 m 1,132,-1
 634 481 l 1,133,-1
 764 481 l 1,134,-1
 764 352 l 1,135,-1
 634 352 l 1,132,-1
634 493 m 1,136,-1
 634 622 l 1,137,-1
 764 622 l 1,138,-1
 764 493 l 1,139,-1
 634 493 l 1,136,-1
634 635 m 1,140,-1
 634 764 l 1,141,-1
 764 764 l 1,142,-1
 764 635 l 1,143,-1
 634 635 l 1,140,-1
634 777 m 1,144,-1
 634 906 l 1,145,-1
 764 906 l 1,146,-1
 764 777 l 1,147,-1
 634 777 l 1,144,-1
209 919 m 1,148,-1
 209 1048 l 1,149,-1
 338 1048 l 1,150,-1
 338 919 l 1,151,-1
 209 919 l 1,148,-1
351 919 m 1,152,-1
 351 1048 l 1,153,-1
 479 1048 l 1,154,-1
 479 919 l 1,155,-1
 351 919 l 1,152,-1
492 919 m 1,156,-1
 492 1048 l 1,157,-1
 621 1048 l 1,158,-1
 621 919 l 1,159,-1
 492 919 l 1,156,-1
EndSplineSet
Validated: 1
EndChar

StartChar: ccircumflex
Encoding: 265 265 138
Width: 801
Flags: W
LayerCount: 2
Fore
SplineSet
66 210 m 1,0,-1
 66 339 l 1,1,-1
 196 339 l 1,2,-1
 196 210 l 1,3,-1
 66 210 l 1,0,-1
66 351 m 1,4,-1
 66 480 l 1,5,-1
 196 480 l 1,6,-1
 196 351 l 1,7,-1
 66 351 l 1,4,-1
66 493 m 1,8,-1
 66 622 l 1,9,-1
 196 622 l 1,10,-1
 196 493 l 1,11,-1
 66 493 l 1,8,-1
66 635 m 1,12,-1
 66 764 l 1,13,-1
 196 764 l 1,14,-1
 196 635 l 1,15,-1
 66 635 l 1,12,-1
66 777 m 1,16,-1
 66 906 l 1,17,-1
 196 906 l 1,18,-1
 196 777 l 1,19,-1
 66 777 l 1,16,-1
209 210 m 1,20,-1
 209 339 l 1,21,-1
 338 339 l 1,22,-1
 338 210 l 1,23,-1
 209 210 l 1,20,-1
351 210 m 1,24,-1
 351 339 l 1,25,-1
 479 339 l 1,26,-1
 479 210 l 1,27,-1
 351 210 l 1,24,-1
492 210 m 1,28,-1
 492 339 l 1,29,-1
 621 339 l 1,30,-1
 621 210 l 1,31,-1
 492 210 l 1,28,-1
209 351 m 1,32,-1
 209 480 l 1,33,-1
 338 480 l 1,34,-1
 338 351 l 1,35,-1
 209 351 l 1,32,-1
351 351 m 1,36,-1
 351 480 l 1,37,-1
 479 480 l 1,38,-1
 479 351 l 1,39,-1
 351 351 l 1,36,-1
492 351 m 1,40,-1
 492 480 l 1,41,-1
 621 480 l 1,42,-1
 621 351 l 1,43,-1
 492 351 l 1,40,-1
209 493 m 1,44,-1
 209 622 l 1,45,-1
 338 622 l 1,46,-1
 338 493 l 1,47,-1
 209 493 l 1,44,-1
351 493 m 1,48,-1
 351 622 l 1,49,-1
 479 622 l 1,50,-1
 479 493 l 1,51,-1
 351 493 l 1,48,-1
492 493 m 1,52,-1
 492 622 l 1,53,-1
 621 622 l 1,54,-1
 621 493 l 1,55,-1
 492 493 l 1,52,-1
209 635 m 1,56,-1
 209 764 l 1,57,-1
 338 764 l 1,58,-1
 338 635 l 1,59,-1
 209 635 l 1,56,-1
351 635 m 1,60,-1
 351 764 l 1,61,-1
 479 764 l 1,62,-1
 479 635 l 1,63,-1
 351 635 l 1,60,-1
492 635 m 1,64,-1
 492 764 l 1,65,-1
 621 764 l 1,66,-1
 621 635 l 1,67,-1
 492 635 l 1,64,-1
209 777 m 1,68,-1
 209 906 l 1,69,-1
 338 906 l 1,70,-1
 338 777 l 1,71,-1
 209 777 l 1,68,-1
351 777 m 1,72,-1
 351 906 l 1,73,-1
 479 906 l 1,74,-1
 479 777 l 1,75,-1
 351 777 l 1,72,-1
492 777 m 1,76,-1
 492 906 l 1,77,-1
 621 906 l 1,78,-1
 621 777 l 1,79,-1
 492 777 l 1,76,-1
66 68 m 1,80,-1
 66 196 l 1,81,-1
 196 196 l 1,82,-1
 196 68 l 1,83,-1
 66 68 l 1,80,-1
634 68 m 1,84,-1
 634 196 l 1,85,-1
 764 196 l 1,86,-1
 764 68 l 1,87,-1
 634 68 l 1,84,-1
209 68 m 1,88,-1
 209 196 l 1,89,-1
 338 196 l 1,90,-1
 338 68 l 1,91,-1
 209 68 l 1,88,-1
351 68 m 1,92,-1
 351 196 l 1,93,-1
 479 196 l 1,94,-1
 479 68 l 1,95,-1
 351 68 l 1,92,-1
492 68 m 1,96,-1
 492 196 l 1,97,-1
 621 196 l 1,98,-1
 621 68 l 1,99,-1
 492 68 l 1,96,-1
634 210 m 1,100,-1
 634 339 l 1,101,-1
 764 339 l 1,102,-1
 764 210 l 1,103,-1
 634 210 l 1,100,-1
634 352 m 1,104,-1
 634 481 l 1,105,-1
 764 481 l 1,106,-1
 764 352 l 1,107,-1
 634 352 l 1,104,-1
634 493 m 1,108,-1
 634 622 l 1,109,-1
 764 622 l 1,110,-1
 764 493 l 1,111,-1
 634 493 l 1,108,-1
634 635 m 1,112,-1
 634 764 l 1,113,-1
 764 764 l 1,114,-1
 764 635 l 1,115,-1
 634 635 l 1,112,-1
634 777 m 1,116,-1
 634 906 l 1,117,-1
 764 906 l 1,118,-1
 764 777 l 1,119,-1
 634 777 l 1,116,-1
209 919 m 1,120,-1
 209 1048 l 1,121,-1
 338 1048 l 1,122,-1
 338 919 l 1,123,-1
 209 919 l 1,120,-1
351 919 m 1,124,-1
 351 1048 l 1,125,-1
 479 1048 l 1,126,-1
 479 919 l 1,127,-1
 351 919 l 1,124,-1
492 919 m 1,128,-1
 492 1048 l 1,129,-1
 621 1048 l 1,130,-1
 621 919 l 1,131,-1
 492 919 l 1,128,-1
EndSplineSet
Validated: 1
EndChar

StartChar: Cdotaccent
Encoding: 266 266 139
Width: 801
Flags: W
LayerCount: 2
Fore
SplineSet
66 210 m 1,0,-1
 66 339 l 1,1,-1
 196 339 l 1,2,-1
 196 210 l 1,3,-1
 66 210 l 1,0,-1
66 351 m 1,4,-1
 66 480 l 1,5,-1
 196 480 l 1,6,-1
 196 351 l 1,7,-1
 66 351 l 1,4,-1
66 493 m 1,8,-1
 66 622 l 1,9,-1
 196 622 l 1,10,-1
 196 493 l 1,11,-1
 66 493 l 1,8,-1
66 635 m 1,12,-1
 66 764 l 1,13,-1
 196 764 l 1,14,-1
 196 635 l 1,15,-1
 66 635 l 1,12,-1
66 777 m 1,16,-1
 66 906 l 1,17,-1
 196 906 l 1,18,-1
 196 777 l 1,19,-1
 66 777 l 1,16,-1
209 210 m 1,20,-1
 209 339 l 1,21,-1
 338 339 l 1,22,-1
 338 210 l 1,23,-1
 209 210 l 1,20,-1
351 210 m 1,24,-1
 351 339 l 1,25,-1
 479 339 l 1,26,-1
 479 210 l 1,27,-1
 351 210 l 1,24,-1
492 210 m 1,28,-1
 492 339 l 1,29,-1
 621 339 l 1,30,-1
 621 210 l 1,31,-1
 492 210 l 1,28,-1
209 351 m 1,32,-1
 209 480 l 1,33,-1
 338 480 l 1,34,-1
 338 351 l 1,35,-1
 209 351 l 1,32,-1
351 351 m 1,36,-1
 351 480 l 1,37,-1
 479 480 l 1,38,-1
 479 351 l 1,39,-1
 351 351 l 1,36,-1
492 351 m 1,40,-1
 492 480 l 1,41,-1
 621 480 l 1,42,-1
 621 351 l 1,43,-1
 492 351 l 1,40,-1
209 777 m 1,44,-1
 209 906 l 1,45,-1
 338 906 l 1,46,-1
 338 777 l 1,47,-1
 209 777 l 1,44,-1
492 777 m 1,48,-1
 492 906 l 1,49,-1
 621 906 l 1,50,-1
 621 777 l 1,51,-1
 492 777 l 1,48,-1
66 68 m 1,52,-1
 66 196 l 1,53,-1
 196 196 l 1,54,-1
 196 68 l 1,55,-1
 66 68 l 1,52,-1
634 68 m 1,56,-1
 634 196 l 1,57,-1
 764 196 l 1,58,-1
 764 68 l 1,59,-1
 634 68 l 1,56,-1
209 68 m 1,60,-1
 209 196 l 1,61,-1
 338 196 l 1,62,-1
 338 68 l 1,63,-1
 209 68 l 1,60,-1
351 68 m 1,64,-1
 351 196 l 1,65,-1
 479 196 l 1,66,-1
 479 68 l 1,67,-1
 351 68 l 1,64,-1
492 68 m 1,68,-1
 492 196 l 1,69,-1
 621 196 l 1,70,-1
 621 68 l 1,71,-1
 492 68 l 1,68,-1
634 210 m 1,72,-1
 634 339 l 1,73,-1
 764 339 l 1,74,-1
 764 210 l 1,75,-1
 634 210 l 1,72,-1
634 352 m 1,76,-1
 634 481 l 1,77,-1
 764 481 l 1,78,-1
 764 352 l 1,79,-1
 634 352 l 1,76,-1
634 493 m 1,80,-1
 634 622 l 1,81,-1
 764 622 l 1,82,-1
 764 493 l 1,83,-1
 634 493 l 1,80,-1
634 635 m 1,84,-1
 634 764 l 1,85,-1
 764 764 l 1,86,-1
 764 635 l 1,87,-1
 634 635 l 1,84,-1
634 777 m 1,88,-1
 634 906 l 1,89,-1
 764 906 l 1,90,-1
 764 777 l 1,91,-1
 634 777 l 1,88,-1
209 919 m 1,92,-1
 209 1048 l 1,93,-1
 338 1048 l 1,94,-1
 338 919 l 1,95,-1
 209 919 l 1,92,-1
351 919 m 1,96,-1
 351 1048 l 1,97,-1
 479 1048 l 1,98,-1
 479 919 l 1,99,-1
 351 919 l 1,96,-1
492 919 m 1,100,-1
 492 1048 l 1,101,-1
 621 1048 l 1,102,-1
 621 919 l 1,103,-1
 492 919 l 1,100,-1
EndSplineSet
Validated: 1
EndChar

